<svg xmlns="http://www.w3.org/2000/svg" width="150.285" height="38.105" viewBox="0 0 150.285 38.105">
  <g id="Group_2866" data-name="Group 2866" transform="translate(-1289.428 -2970.5)">
    <path id="Path_30333" data-name="Path 30333" d="M365.082,2882.679H374.5v23.47s-.087,6.782,6.474,6.3,6.3-6.3,6.3-6.3v-23.47h9.345v23.948s.433,14.21-15.642,14.156-15.888-14.156-15.888-14.156Z" transform="translate(924.345 87.821)" fill="#3454d1"/>
    <path id="Subtraction_1" data-name="Subtraction 1" d="M30.53,37.97H19.053L10.6,24.157H9.618V37.969H0V0H16.05a12.054,12.054,0,0,1,1.725.25,14.358,14.358,0,0,1,3.8,1.369,10.3,10.3,0,0,1,3.8,3.417,11.48,11.48,0,0,1,1.725,6.394,17.137,17.137,0,0,1-1.124,6.5,10.077,10.077,0,0,1-2.474,3.64,8.492,8.492,0,0,1-2.474,1.592,5.657,5.657,0,0,1-1.125.351L30.53,37.969ZM9.486,7.677v9.035h4.673a4.247,4.247,0,0,0,1.747-.732,4.342,4.342,0,0,0,1.708-3.828,4.394,4.394,0,0,0-1.747-3.785,4.03,4.03,0,0,0-1.708-.689Z" transform="translate(1330.641 2970.5)" fill="#3454d1"/>
    <path id="Path_30336" data-name="Path 30336" d="M649.361,2882.679l15.44,37.969h7.943l15.566-37.969H677.586l-8.785,23.178-8.843-23.178Z" transform="translate(714.24 87.821)" fill="#3454d1"/>
    <g id="Group_2844" data-name="Group 2844" transform="translate(1401.037 2970.636)">
      <path id="Path_30337" data-name="Path 30337" d="M0,0,13.806,37.969h11.21L38.676,0H27.953L19.44,26.446,10.6,0Z" transform="translate(38.676 37.969) rotate(180)" fill="#3454d1"/>
      <circle id="Ellipse_305" data-name="Ellipse 305" cx="5.31" cy="5.31" r="5.31" transform="translate(14.055 26.23)" fill="#ffa21d"/>
    </g>
  </g>
</svg>
