<svg xmlns="http://www.w3.org/2000/svg" xmlns:xlink="http://www.w3.org/1999/xlink" id="Layer_1" x="0px" y="0px" viewBox="0 0 125 100" style="enable-background:new 0 0 125 100;" xml:space="preserve"><style type="text/css">	.st0{fill:#1B2C56;}	.st1{fill:#00A9E2;}</style><g>	<path class="st0" d="M118.08,21.45l5.58-2.31l-5.58-2.31c-5.13-2.12-9.21-6.18-11.34-11.28L104.42,0l-2.32,5.55  c-2.13,5.1-6.21,9.16-11.34,11.28l-5.58,2.31l5.58,2.31c5.13,2.12,9.21,6.18,11.34,11.28l2.32,5.55l2.32-5.55  C108.87,27.63,112.95,23.57,118.08,21.45"></path>	<path class="st1" d="M86.65,35.09c-0.49,0.18-0.98,0.35-1.48,0.52c-6.22,2.13-12.85,4.03-19.5,3.7c-5.09-0.25-9.27-2.44-13.35-5.29  c-3.58-2.5-7.16-4.7-11.7-4.53c-5.51,0.21-10.87,2.65-15.92,4.62c-1.93,0.75-3.88,1.51-5.85,2.22v15.51  c0.49-0.17,0.97-0.35,1.45-0.52c5.56-2.05,11.04-4.67,16.87-5.86c4.66-0.95,8.77-0.14,12.74,2.43c3.82,2.47,7.29,5.31,11.83,6.4  c6.14,1.47,12.79,0.08,18.72-1.65c2.09-0.61,4.14-1.31,6.19-2.04V35.09z"></path>	<path class="st1" d="M109.02,74.88c-2.16-0.31-4.38-0.28-6.68,0.19c-5.9,1.2-11.49,3.7-17.17,5.64c-6.22,2.13-12.85,4.03-19.5,3.7  c-5.09-0.25-9.27-2.44-13.35-5.29c-3.58-2.5-7.16-4.7-11.7-4.53c-2.57,0.1-5.11,0.69-7.6,1.49v15.55c1.36-0.42,2.74-0.79,4.13-1.08  c4.66-0.95,8.77-0.14,12.74,2.43c3.82,2.47,7.29,5.31,11.83,6.4c6.14,1.47,12.79,0.08,18.72-1.65c6.15-1.79,12.03-4.37,18.17-6.2  c2.71-0.81,5.54-1.5,8.38-1.43c0.67,0.02,1.34,0.09,2.01,0.18V74.88z"></path>	<path class="st1" d="M123.67,59.49c-1.83-1.42-3.79-2.7-5.79-3.82c-4.88-2.72-9.98-4.1-15.53-2.97c-5.9,1.2-11.49,3.7-17.17,5.64  c-6.22,2.13-12.85,4.03-19.5,3.7c-5.09-0.25-9.27-2.44-13.35-5.29c-3.58-2.5-7.16-4.7-11.7-4.53c-5.51,0.21-10.87,2.65-15.92,4.62  c-5.87,2.29-11.92,4.7-18.27,5.16c-1.71,0.12-3.42,0.02-5.11-0.26v15.59c0.31,0.05,0.63,0.1,0.94,0.13  c6.14,0.66,12.34-1.33,18.03-3.42c5.56-2.05,11.04-4.67,16.87-5.86c4.66-0.95,8.77-0.14,12.74,2.43c3.82,2.47,7.29,5.31,11.83,6.4  c6.14,1.47,12.79,0.08,18.72-1.65c6.15-1.79,12.03-4.37,18.17-6.2c2.71-0.8,5.54-1.5,8.38-1.43c3.13,0.08,6.18,1.12,8.97,2.47  c2.69,1.3,5.3,2.92,7.68,4.78V59.49z"></path></g></svg>