<svg width="28" height="27" viewBox="0 0 28 27" fill="none" xmlns="http://www.w3.org/2000/svg">
<g clip-path="url(#clip0_41_753)">
<path d="M27.4411 12.4244C27.4378 12.3737 27.4283 12.3251 27.4116 12.2772C27.4054 12.2593 27.401 12.242 27.3932 12.2247C27.3664 12.1667 27.3324 12.112 27.2855 12.0657L27.2849 12.0652L24.1011 8.88082V5.76454C24.1011 5.75226 24.095 5.74166 24.0939 5.72939C24.0905 5.6803 24.0811 5.63288 24.0654 5.58602C24.0593 5.56816 24.0548 5.55087 24.0465 5.53358C24.0191 5.47444 23.9851 5.4181 23.9371 5.37012L18.9163 0.349248C18.8683 0.301271 18.8119 0.267241 18.7522 0.239905C18.7355 0.232095 18.7188 0.227632 18.7015 0.221495C18.6541 0.205317 18.6055 0.195275 18.5553 0.192486C18.5442 0.19137 18.5341 0.185791 18.5224 0.185791H4.57553C4.26759 0.185791 4.01766 0.435719 4.01766 0.743666V8.88082L0.833867 12.0646L0.832752 12.0657C0.78589 12.1126 0.752418 12.1673 0.72564 12.2247C0.717829 12.242 0.713366 12.2593 0.70723 12.2772C0.690494 12.3251 0.680452 12.3737 0.677663 12.4244C0.676547 12.4367 0.67041 12.4468 0.67041 12.459V23.0586C0.67041 23.3666 0.920338 23.6165 1.22828 23.6165H4.01766V26.4059C4.01766 26.7138 4.26759 26.9638 4.57553 26.9638H23.5433C23.8512 26.9638 24.1011 26.7138 24.1011 26.4059V23.6165H26.8905C27.1985 23.6165 27.4484 23.3666 27.4484 23.0586V12.459C27.4484 12.4468 27.4423 12.4367 27.4411 12.4244ZM25.5438 11.9012H24.1011V10.4585L25.5438 11.9012ZM22.1966 5.20666H19.0803V2.09037L22.1966 5.20666ZM5.13341 1.30154H17.9645V5.76454C17.9645 6.07248 18.2144 6.32241 18.5224 6.32241H22.9854V9.11178V11.9012H5.13341V9.11178V1.30154ZM4.01766 10.4585V11.9012H2.57499L4.01766 10.4585ZM22.9854 25.848H5.13341V23.6165H22.9854V25.848ZM26.3326 22.5008H1.78616V13.0169H4.57553H23.5433H26.3326V22.5008Z" fill="#00A9E2"/>
<path d="M11.9301 14.6704H10.792V21.385H11.9301V14.6704Z" fill="#00A9E2"/>
<path d="M14.984 14.6704H13.2959V21.385H14.9745C15.8409 21.385 16.497 21.0927 16.9427 20.508C17.3885 19.9228 17.6111 19.0994 17.6111 18.0372C17.6111 16.975 17.3885 16.1482 16.9427 15.5569C16.497 14.9661 15.8443 14.6704 14.984 14.6704ZM16.3642 19.0659C16.2917 19.3605 16.1885 19.6054 16.0557 19.8012C15.9229 19.997 15.7651 20.1443 15.5815 20.2419C15.398 20.3401 15.1988 20.3892 14.984 20.3892H14.4434V15.6662H14.984C15.1988 15.6662 15.398 15.7153 15.5815 15.8135C15.7651 15.9111 15.9229 16.0584 16.0557 16.2542C16.1885 16.45 16.2911 16.6966 16.3642 16.994C16.4367 17.2913 16.473 17.6389 16.473 18.0372C16.473 18.4294 16.4367 18.7719 16.3642 19.0659Z" fill="#00A9E2"/>
<rect x="3.45996" y="13.575" width="23.4307" height="8.36812" fill="white"/>
<path d="M4.63436 19.5664V15.2989H6.30263C6.6442 15.2989 6.92953 15.3426 7.15863 15.4301C7.3919 15.5176 7.56476 15.6634 7.67723 15.8675C7.79386 16.0716 7.85218 16.3486 7.85218 16.6985C7.85218 17.0067 7.79595 17.2671 7.68348 17.4795C7.57518 17.6878 7.40856 17.8419 7.18362 17.9419L7.85218 19.5664H6.94619L6.38385 18.1356H5.49661V19.5664H4.63436ZM5.49661 17.4295H6.32137C6.47966 17.4295 6.60671 17.4004 6.70251 17.342C6.79832 17.2796 6.86705 17.1942 6.9087 17.0859C6.95036 16.9734 6.97118 16.8464 6.97118 16.7047C6.97118 16.4715 6.91703 16.2965 6.80873 16.1799C6.70043 16.0633 6.53173 16.0049 6.30263 16.0049H5.49661V17.4295ZM9.70296 19.6351C9.35723 19.6351 9.08231 19.5768 8.8782 19.4602C8.67826 19.3436 8.53455 19.1665 8.44708 18.9291C8.3596 18.6917 8.31586 18.3938 8.31586 18.0356C8.31586 17.6482 8.37001 17.3316 8.47832 17.0859C8.59078 16.8401 8.75324 16.6589 8.96568 16.5423C9.17811 16.4215 9.44054 16.3611 9.75295 16.3611C10.2153 16.3611 10.5631 16.4777 10.7964 16.711C11.0338 16.9442 11.1525 17.3129 11.1525 17.8169L11.1151 18.2793H9.15312C9.15729 18.5125 9.20519 18.6875 9.29683 18.8041C9.38847 18.9208 9.54676 18.9791 9.77169 18.9791C9.90082 18.9791 10.0424 18.977 10.1966 18.9728C10.3507 18.9645 10.5027 18.9562 10.6527 18.9478C10.8068 18.9395 10.938 18.9312 11.0463 18.9228L11.0651 19.5039C10.9609 19.5206 10.8297 19.5393 10.6714 19.5602C10.5131 19.581 10.3486 19.5976 10.1778 19.6101C10.0112 19.6268 9.85292 19.6351 9.70296 19.6351ZM9.15312 17.7482H10.3215C10.3215 17.4649 10.2757 17.2671 10.1841 17.1546C10.0966 17.0421 9.95289 16.9859 9.75295 16.9859C9.55717 16.9859 9.40721 17.0442 9.30308 17.1609C9.20311 17.2775 9.15312 17.4733 9.15312 17.7482ZM11.8301 19.5664V17.1234H11.5177V16.4298H11.8301V16.2486C11.8301 15.9529 11.8572 15.7196 11.9113 15.5488C11.9696 15.378 12.0675 15.2572 12.205 15.1864C12.3424 15.1156 12.5278 15.0802 12.7611 15.0802C12.8277 15.0802 12.9069 15.0844 12.9985 15.0927C13.0943 15.0969 13.1859 15.1031 13.2734 15.1114C13.3609 15.1198 13.4275 15.1281 13.4734 15.1364L13.4671 15.7738C13.4005 15.7738 13.3255 15.7738 13.2422 15.7738C13.163 15.7696 13.0943 15.7675 13.036 15.7675C12.9443 15.7675 12.8694 15.7821 12.811 15.8112C12.7569 15.8404 12.7173 15.8883 12.6923 15.9549C12.6715 16.0216 12.6611 16.1174 12.6611 16.2424V16.4298H13.4109V17.1234H12.6611V19.5664H11.8301ZM13.822 19.5664V18.6417H14.6905V19.5664H13.822ZM16.7646 19.5664V15.2989H17.8893L19.2577 18.298H19.3701V15.2989H20.2324V19.5664H19.1202L17.7394 16.5173H17.6269V19.5664H16.7646ZM22.3172 19.6351C21.9631 19.6351 21.6778 19.5768 21.4612 19.4602C21.2487 19.3436 21.0946 19.1644 20.9988 18.9228C20.903 18.6771 20.8551 18.3605 20.8551 17.9731C20.8551 17.5982 20.9051 17.2941 21.0051 17.0609C21.105 16.8234 21.2633 16.6485 21.4799 16.536C21.6965 16.4194 21.9756 16.3611 22.3172 16.3611C22.6629 16.3611 22.942 16.4194 23.1544 16.536C23.3711 16.6485 23.5293 16.8234 23.6293 17.0609C23.7334 17.2941 23.7855 17.5982 23.7855 17.9731C23.7855 18.3605 23.7376 18.6771 23.6418 18.9228C23.546 19.1644 23.3898 19.3436 23.1732 19.4602C22.9608 19.5768 22.6754 19.6351 22.3172 19.6351ZM22.3172 18.9478C22.4921 18.9478 22.6234 18.9166 22.7108 18.8541C22.7983 18.7875 22.8566 18.6833 22.8858 18.5417C22.9191 18.3959 22.9358 18.2064 22.9358 17.9731C22.9358 17.744 22.917 17.5628 22.8795 17.4295C22.842 17.2921 22.7796 17.1942 22.6921 17.1359C22.6046 17.0775 22.4796 17.0484 22.3172 17.0484C22.1589 17.0484 22.0339 17.0775 21.9423 17.1359C21.8548 17.1942 21.7923 17.2921 21.7549 17.4295C21.7174 17.5628 21.6986 17.744 21.6986 17.9731C21.6986 18.2064 21.7132 18.3959 21.7424 18.5417C21.7757 18.6833 21.8361 18.7875 21.9236 18.8541C22.011 18.9166 22.1422 18.9478 22.3172 18.9478ZM24.3353 19.5664V18.6417H25.2038V19.5664H24.3353Z" fill="#00A9E2"/>
</g>
<defs>
<clipPath id="clip0_41_753">
<rect width="26.778" height="26.778" fill="white" transform="translate(0.67041 0.185791)"/>
</clipPath>
</defs>
</svg>
