<svg width="1950" height="900" viewBox="0 0 1950 900" fill="none" xmlns="http://www.w3.org/2000/svg">
<g clip-path="url(#clip0_1022_717)">
<rect width="1950" height="900" fill="white"/>
<path d="M1796.7 656.231V601.376C1802.08 598.94 1807.42 596.349 1812.69 593.788C1812.9 593.686 1813.11 593.585 1813.32 593.483L1813.32 593.482C1815.26 592.535 1817.21 591.56 1819.18 590.58C1824.67 587.838 1830.26 585.053 1835.94 582.697C1843.64 579.502 1851.46 577.126 1859.36 576.749C1872.25 576.146 1882.47 583.942 1892.9 593.051C1904.81 603.445 1917.12 611.543 1932.18 612.468C1951.71 613.68 1971.14 606.703 1989.25 598.953C1990.36 598.48 1991.46 598.006 1992.56 597.514V652.354C1986.74 654.938 1980.93 657.409 1975.02 659.567C1957.77 665.855 1938.62 670.83 1920.99 665.555C1914.5 663.607 1908.75 660.089 1903.22 655.912C1899.86 653.373 1896.62 650.625 1893.34 647.847C1891.19 646.029 1889.03 644.199 1886.81 642.405C1875.1 632.929 1862.91 629.912 1849.11 633.429L1849.11 633.429C1840.56 635.61 1832.29 639.097 1824.14 642.96C1820.48 644.696 1816.88 646.493 1813.28 648.285C1808.83 650.505 1804.4 652.716 1799.91 654.785C1799.3 655.053 1798.71 655.322 1798.12 655.59C1797.64 655.805 1797.17 656.019 1796.7 656.231Z" stroke="#00A9E2" stroke-width="1.4326"/>
<path d="M2057.59 741.729V796.31C2055.9 796.046 2054.2 795.845 2052.49 795.781L2052.48 795.781C2044.07 795.522 2035.73 798.076 2027.83 801.028C2019.09 804.281 2010.54 808.183 2002.02 812.072L2001.35 812.377C1992.6 816.371 1983.88 820.333 1974.96 823.577L1974.96 823.578C1957.71 829.866 1938.56 834.841 1920.94 829.566C1914.45 827.618 1908.7 824.1 1903.16 819.923C1899.8 817.384 1896.56 814.636 1893.28 811.858C1891.14 810.04 1888.98 808.21 1886.76 806.416C1875.05 796.94 1862.86 793.923 1849.06 797.44L1849.05 797.441C1845.31 798.417 1841.59 799.64 1837.93 801.022V745.986C1844.99 743.184 1852.15 741.147 1859.36 740.796C1872.26 740.193 1882.47 747.989 1892.91 757.098C1904.81 767.492 1917.12 775.591 1932.18 776.515C1951.71 777.727 1971.14 770.75 1989.25 763C1994.14 760.914 1999.02 758.64 2003.9 756.368C2007.27 754.8 2010.64 753.233 2014 751.729C2022.27 748.034 2030.58 744.689 2039.11 742.521L2039.11 742.521C2045.47 740.897 2051.61 740.74 2057.59 741.729Z" stroke="#00A9E2" stroke-width="1.4326"/>
<path d="M2100.25 685.432V739.814C2093.62 733.503 2086.41 727.983 2078.99 723.5C2070.83 718.562 2061.83 714.71 2052.54 714.413L2052.54 714.413C2044.13 714.154 2035.78 716.745 2027.89 719.658L2027.89 719.659C2019.15 722.913 2010.6 726.815 2002.08 730.704L2001.41 731.009C1992.66 735.003 1983.93 738.965 1975.02 742.209L1975.02 742.209C1957.77 748.498 1938.62 753.472 1920.99 748.198C1914.5 746.25 1908.75 742.732 1903.22 738.555C1899.86 736.016 1896.62 733.268 1893.34 730.49C1891.19 728.672 1889.03 726.842 1886.81 725.048C1875.1 715.571 1862.91 712.555 1849.11 716.072L1849.11 716.072C1840.57 718.253 1832.29 721.74 1824.14 725.603C1820.49 727.339 1816.88 729.136 1813.29 730.928C1808.83 733.149 1804.39 735.36 1799.9 737.43C1783.33 745.038 1765.47 752.181 1747.83 749.811L1747.83 749.811L1747.82 749.81C1747.14 749.727 1746.43 749.6 1745.72 749.46V694.214C1750.42 695.113 1755.17 695.418 1759.93 695L1759.93 695C1778.11 693.354 1795.43 684.905 1812.09 676.774C1812.51 676.57 1812.93 676.365 1813.35 676.161C1815.29 675.214 1817.24 674.239 1819.21 673.259C1824.7 670.518 1830.29 667.733 1835.97 665.376C1843.67 662.181 1851.49 659.805 1859.39 659.428C1872.28 658.825 1882.5 666.621 1892.93 675.73C1904.84 686.124 1917.15 694.223 1932.21 695.147C1951.74 696.359 1971.17 689.382 1989.28 681.632C1994.17 679.546 1999.05 677.272 2003.93 675C2007.3 673.432 2010.67 671.864 2014.03 670.361C2022.3 666.665 2030.61 663.32 2039.14 661.153L2038.96 660.459L2039.14 661.153C2055.01 657.112 2069.64 662.024 2083.74 671.85C2089.44 675.84 2095.03 680.391 2100.25 685.432Z" stroke="#00A9E2" stroke-width="1.4326"/>
</g>
<defs>
<clipPath id="clip0_1022_717">
<rect width="1950" height="900" fill="white"/>
</clipPath>
</defs>
</svg>
