<svg xmlns="http://www.w3.org/2000/svg" xmlns:xlink="http://www.w3.org/1999/xlink" width="616" height="671" viewBox="0 0 616 671">
  <defs>
    <linearGradient id="linear-gradient" x1="0.5" x2="0.5" y2="1" gradientUnits="objectBoundingBox">
      <stop offset="0" stop-color="#f8f9fa"/>
      <stop offset="0.466" stop-color="#fafbfc"/>
      <stop offset="0.683" stop-color="#fbfcfd"/>
      <stop offset="1" stop-color="#fff"/>
    </linearGradient>
  </defs>
  <g id="Additional_Waste" data-name="Additional Waste" transform="translate(-1106 -4110)">
    <rect id="Rectangle_1453" data-name="Rectangle 1453" width="616" height="671" rx="28" transform="translate(1106 4110)" fill="url(#linear-gradient)"/>
    <g id="Add_files-amico" data-name="Add files-amico" transform="translate(1104.189 4177.517)">
      <g id="freepik--Floor--inject-2" transform="translate(39.693 296.112)">
        <path id="freepik--floor--inject-2-2" data-name="freepik--floor--inject-2" d="M118.806,485.006c105.484,55.128,276.524,55.128,382.008,0s105.485-144.569,0-199.659-276.524-55.141-382.008,0S13.321,429.865,118.806,485.006Z" transform="translate(-39.693 -244.01)" fill="#f5f5f5"/>
      </g>
      <g id="freepik--Shadows--inject-2" transform="translate(302.312 400.231)">
        <path id="freepik--Shadow--inject-2" d="M246.11,404.071l4.862,2.8a6.128,6.128,0,0,0,5.54,0l129.575-74.818a1.689,1.689,0,0,0,0-3.2l-4.849-2.8a6.128,6.128,0,0,0-5.54,0L246.11,400.872a1.689,1.689,0,0,0,0,3.2Z" transform="translate(-244.964 -325.393)" fill="#e0e0e0"/>
        <path id="freepik--shadow--inject-2-2" data-name="freepik--shadow--inject-2" d="M426.2,386.852c-16.043,8.585-42.066,8.585-58.109,0s-16.043-22.491,0-31.076,42.066-8.585,58.109,0S442.24,378.331,426.2,386.852Z" transform="translate(-213.928 -318.703)" fill="#e0e0e0"/>
      </g>
      <g id="freepik--Plants--inject-2" transform="translate(504.639 376.814)">
        <g id="freepik--plants--inject-2-2" data-name="freepik--plants--inject-2">
          <path id="Path_30506" data-name="Path 30506" d="M403.11,347.275s1.484-13.011,7.958-23.105,15.352-16.389,23.643-17.041,14.994,6.973,6.128,12.205-24.641,10.593-31.895,30.193Z" transform="translate(-403.11 -307.089)" fill="#3454d1"/>
          <path id="Path_30507" data-name="Path 30507" d="M403.11,347.275s1.484-13.011,7.958-23.105,15.352-16.389,23.643-17.041,14.994,6.973,6.128,12.205-24.641,10.593-31.895,30.193Z" transform="translate(-403.11 -307.089)" opacity="0.1"/>
          <path id="Path_30508" data-name="Path 30508" d="M405.08,343.043h-.09a.435.435,0,0,1-.243-.576c8.751-21.557,25.408-30.564,33-32.3a.441.441,0,1,1,.2.857c-7.433,1.714-23.771,10.555-32.381,31.78a.448.448,0,0,1-.486.243Z" transform="translate(-402.662 -306.234)" fill="#fff"/>
          <path id="Path_30509" data-name="Path 30509" d="M449.159,338.485c-.755,1.689-2.559,2.559-4.324,3.262s-3.582,1.433-4.516,3.045c-1.868,3.224,1.2,7.779-.806,10.926a5.834,5.834,0,0,1-3.953,2.29c-1.279.243-2.559.23-3.838.345a17.321,17.321,0,0,1-1.842-.141,8.418,8.418,0,0,0-5.348.563c-2.559,1.446-3.365,4.7-4.926,7.19a12.18,12.18,0,0,1-8.661,5.437,8.509,8.509,0,0,1-4.478-.294l-.243-.154h0a6.608,6.608,0,0,1-.461-.537v-.077c-.461-1.676.281-3.429.32-5.117a2.49,2.49,0,0,0,0-.307c-.064-2.021-.128-4.017-.166-6.026-.1-3.7-.141-7.408-.115-11.1,0-2.392-.269-5.028.755-7.292,1.126-2.482,3.928-2.559,4.977-4.977.422-.985.653-2.021,1.062-3.007a8.6,8.6,0,0,1,7.331-5.118c4.887-.243,9.263,3.71,14.15,3.352a37.661,37.661,0,0,0,3.736-.716c3.953-.742,8.534.384,10.76,3.736A5.118,5.118,0,0,1,449.159,338.485Z" transform="translate(-402.411 -301.42)" fill="#3454d1"/>
          <path id="Path_30510" data-name="Path 30510" d="M405.4,361.272h0a.41.41,0,0,1-.294-.512c6.742-25.332,33.43-28.991,39.66-28.543a.409.409,0,0,1,.384.448.4.4,0,0,1-.435.384c-6.115-.435-32.215,3.147-38.816,27.929a.422.422,0,0,1-.5.294Z" transform="translate(-402.558 -300.079)" fill="#fff"/>
          <path id="Path_30511" data-name="Path 30511" d="M432.629,346.279a.409.409,0,0,1-.217-.115,22.21,22.21,0,0,0-18.167-5.117.41.41,0,0,1-.473-.345.422.422,0,0,1,.358-.473A23.029,23.029,0,0,1,433,345.575a.422.422,0,0,1-.371.7Z" transform="translate(-400.133 -297.918)" fill="#fff"/>
        </g>
      </g>
      <g id="freepik--Folder--inject-2" transform="translate(87.602 57.515)">
        <g id="freepik--folder--inject-2-2" data-name="freepik--folder--inject-2">
          <path id="Path_30512" data-name="Path 30512" d="M317.149,286.314v12.794L96.368,426.546h0l-6.793,3.838a11.873,11.873,0,0,1-5.194-9.391V206.379a2.315,2.315,0,0,1,.32-1.087,2.367,2.367,0,0,1,.793-.832l50.318-29.055c.614-.345,4.2,1.151,4.785,1.51l.384.218a3.837,3.837,0,0,1,.883.78,3.134,3.134,0,0,1,.64,1.062l4.555,13.152,163.76-97.565a2.559,2.559,0,0,1,2.149,0l3.045,1.766a2.289,2.289,0,0,1,.78.819,2.227,2.227,0,0,1,.32,1.1V286.314Z" transform="translate(-75.117 -47.231)" fill="#263238"/>
          <path id="Path_30513" data-name="Path 30513" d="M316.015,298.449,88.44,429.777V207.486l52.288-30.18a3.135,3.135,0,0,1,.64,1.062l4.555,13.152.87,2.495L315.669,96.5a2.227,2.227,0,0,1,.32,1.1Z" transform="translate(-73.983 -46.623)" fill="#37474f"/>
          <path id="Path_30514" data-name="Path 30514" d="M141.792,160.265,89.5,190.446l-4.874-2.8a2.367,2.367,0,0,1,.793-.832l50.318-29.055a2.393,2.393,0,0,1,2.188,0l2.981,1.714A3.839,3.839,0,0,1,141.792,160.265Z" transform="translate(-75.047 -29.584)" fill="#455a64"/>
          <path id="Path_30515" data-name="Path 30515" d="M303.127,97.108,134.25,194.621l-.87-2.495L297.14,94.562a2.559,2.559,0,0,1,2.149,0l3.045,1.766a2.291,2.291,0,0,1,.793.78Z" transform="translate(-61.428 -47.231)" fill="#455a64"/>
          <g id="freepik--Document--inject-2" transform="translate(82.008)">
            <path id="Path_30516" data-name="Path 30516" d="M143.607,350.306a5.373,5.373,0,0,1-2.367-4.26V134.616a5.527,5.527,0,0,1,2.559-4.35L268.691,58.238a4.721,4.721,0,0,1,7.228,4.171V273.838a5.553,5.553,0,0,1-2.559,4.35l-124.88,72.029A5.373,5.373,0,0,1,143.607,350.306Z" transform="translate(-141.24 -57.515)" fill="#fafafa"/>
            <path id="Path_30517" data-name="Path 30517" d="M147.462,349.54l124.892-72.029a5.552,5.552,0,0,0,2.559-4.35V61.732c0-1.6-1.126-2.252-2.559-1.458L147.449,132.315a5.553,5.553,0,0,0-2.559,4.35V348.094C144.941,349.694,146.067,350.346,147.462,349.54Z" transform="translate(-140.22 -56.838)" fill="#f0f0f0"/>
            <path id="Path_30518" data-name="Path 30518" d="M158.073,135.026l94.315-54.45c1.215-.7,2.213-.141,2.213,1.279v.883a4.926,4.926,0,0,1-2.213,3.838l-94.315,54.45c-1.279.7-2.213.128-2.213-1.279v-.883A4.9,4.9,0,0,1,158.073,135.026Z" transform="translate(-137.156 -51.157)" fill="#e0e0e0"/>
            <path id="Path_30519" data-name="Path 30519" d="M158.073,146.736l94.315-54.45c1.215-.7,2.213-.128,2.213,1.279v.883a4.9,4.9,0,0,1-2.213,3.838l-94.315,54.45c-1.279.7-2.213.128-2.213-1.279v-.883a4.926,4.926,0,0,1,2.213-3.838Z" transform="translate(-137.156 -47.885)" fill="#e0e0e0"/>
            <path id="Path_30520" data-name="Path 30520" d="M158.073,158.446,252.389,104c1.215-.7,2.213-.128,2.213,1.279v.883A4.9,4.9,0,0,1,252.389,110l-94.315,54.45c-1.279.716-2.213.141-2.213-1.279v-.883a4.926,4.926,0,0,1,2.213-3.838Z" transform="translate(-137.156 -44.613)" fill="#e0e0e0"/>
            <path id="Path_30521" data-name="Path 30521" d="M158.073,170.155l94.315-54.437C253.6,115,254.6,115.577,254.6,117v.883a4.938,4.938,0,0,1-2.213,3.838l-94.315,54.45c-1.279.7-2.213.128-2.213-1.279v-.9A4.938,4.938,0,0,1,158.073,170.155Z" transform="translate(-137.156 -41.341)" fill="#e0e0e0"/>
            <path id="Path_30522" data-name="Path 30522" d="M158.073,181.876l94.315-54.45c1.215-.7,2.213-.141,2.213,1.279v.883a4.926,4.926,0,0,1-2.213,3.838l-94.315,54.45c-1.279.7-2.213.128-2.213-1.279v-.883a4.9,4.9,0,0,1,2.213-3.838Z" transform="translate(-137.156 -38.068)" fill="#e0e0e0"/>
            <path id="Path_30523" data-name="Path 30523" d="M158.073,193.677l94.315-54.45c1.215-.716,2.213-.141,2.213,1.279v.883a4.938,4.938,0,0,1-2.213,3.838l-94.315,54.45c-1.279.7-2.213.128-2.213-1.279v-.883A4.9,4.9,0,0,1,158.073,193.677Z" transform="translate(-137.156 -34.773)" fill="#e0e0e0"/>
            <path id="Path_30524" data-name="Path 30524" d="M158.073,205.386l94.315-54.45c1.215-.7,2.213-.141,2.213,1.279v.883a4.926,4.926,0,0,1-2.213,3.838l-94.315,54.45c-1.279.7-2.213.128-2.213-1.279v-.883A4.9,4.9,0,0,1,158.073,205.386Z" transform="translate(-137.156 -31.5)" fill="#e0e0e0"/>
            <path id="Path_30525" data-name="Path 30525" d="M158.073,217.1l94.315-54.45c1.215-.7,2.213-.128,2.213,1.279v.883a4.9,4.9,0,0,1-2.213,3.838L158.073,223.1c-1.279.7-2.213.141-2.213-1.279v-.883a4.926,4.926,0,0,1,2.213-3.838Z" transform="translate(-137.156 -28.228)" fill="#e0e0e0"/>
            <path id="Path_30526" data-name="Path 30526" d="M158.073,228.806l94.315-54.45c1.215-.7,2.213-.128,2.213,1.279v.908a4.9,4.9,0,0,1-2.213,3.838l-94.315,54.45c-1.279.716-2.213.141-2.213-1.279v-.883a4.938,4.938,0,0,1,2.213-3.864Z" transform="translate(-137.156 -24.957)" fill="#e0e0e0"/>
            <path id="Path_30527" data-name="Path 30527" d="M158.073,240.53l94.315-54.463c1.215-.716,2.213-.141,2.213,1.279v.883a4.938,4.938,0,0,1-2.213,3.838l-94.315,54.45c-1.279.7-2.213.128-2.213-1.279v-.883A4.9,4.9,0,0,1,158.073,240.53Z" transform="translate(-137.156 -21.687)" fill="#e0e0e0"/>
            <path id="Path_30528" data-name="Path 30528" d="M158.073,252.286l94.315-54.45c1.215-.7,2.213-.128,2.213,1.279V200a4.926,4.926,0,0,1-2.213,3.838L158.073,258.26c-1.279.7-2.213.128-2.213-1.279V256.1a4.9,4.9,0,0,1,2.213-3.813Z" transform="translate(-137.156 -18.397)" fill="#e0e0e0"/>
            <path id="Path_30529" data-name="Path 30529" d="M158.073,263.956l94.315-54.45c1.215-.7,2.213-.128,2.213,1.279v.883a4.9,4.9,0,0,1-2.213,3.838l-94.315,54.45c-1.279.7-2.213.141-2.213-1.279v-.883a4.926,4.926,0,0,1,2.213-3.838Z" transform="translate(-137.156 -15.137)" fill="#e0e0e0"/>
            <path id="Path_30530" data-name="Path 30530" d="M158.073,275.706l94.315-54.45c1.215-.7,2.213-.128,2.213,1.279v.9a4.939,4.939,0,0,1-2.213,3.838l-94.315,54.437c-1.279.716-2.213.141-2.213-1.279v-.883A4.938,4.938,0,0,1,158.073,275.706Z" transform="translate(-137.156 -11.854)" fill="#e0e0e0"/>
            <path id="Path_30531" data-name="Path 30531" d="M148.147,334.085a4.7,4.7,0,0,1-6.9-4.337V118.332a5.22,5.22,0,0,1,.729-2.482l4.721,2.725a5.118,5.118,0,0,0-.742,2.469V332.474C145.959,333.945,146.918,334.61,148.147,334.085Z" transform="translate(-141.238 -41.218)" fill="#e0e0e0"/>
          </g>
          <g id="freepik--document--inject-2-2" data-name="freepik--document--inject-2" transform="translate(99.689 10.03)">
            <path id="Path_30532" data-name="Path 30532" d="M157.427,358.146a5.374,5.374,0,0,1-2.367-4.26V142.456a5.527,5.527,0,0,1,2.559-4.35L282.511,66.078a4.721,4.721,0,0,1,7.228,4.171V281.678a5.553,5.553,0,0,1-2.559,4.35L162.288,358.056a5.373,5.373,0,0,1-4.862.09Z" transform="translate(-155.06 -65.355)" fill="#fafafa"/>
            <path id="Path_30533" data-name="Path 30533" d="M161.282,357.38l124.892-72.029a5.553,5.553,0,0,0,2.559-4.35V69.572c0-1.6-1.126-2.252-2.559-1.458L161.269,140.155a5.553,5.553,0,0,0-2.559,4.35V355.922C158.761,357.534,159.887,358.186,161.282,357.38Z" transform="translate(-154.04 -64.678)" fill="#f0f0f0"/>
            <path id="Path_30534" data-name="Path 30534" d="M171.893,142.866l94.315-54.45c1.279-.7,2.213-.141,2.213,1.279v.832a4.926,4.926,0,0,1-2.213,3.838l-94.315,54.5c-1.279.7-2.213.128-2.213-1.279V146.7a4.9,4.9,0,0,1,2.213-3.838Z" transform="translate(-150.976 -58.997)" fill="#e0e0e0"/>
            <path id="Path_30535" data-name="Path 30535" d="M171.893,154.576l94.315-54.45c1.279-.7,2.213-.128,2.213,1.279v.883a4.9,4.9,0,0,1-2.213,3.838l-94.315,54.45c-1.279.7-2.213.141-2.213-1.279v-.883a4.926,4.926,0,0,1,2.213-3.838Z" transform="translate(-150.976 -55.725)" fill="#e0e0e0"/>
            <path id="Path_30536" data-name="Path 30536" d="M171.893,166.286l94.315-54.45c1.279-.7,2.213-.128,2.213,1.279V114a4.9,4.9,0,0,1-2.213,3.838L171.893,172.26c-1.279.716-2.213.141-2.213-1.279V170.1A4.926,4.926,0,0,1,171.893,166.286Z" transform="translate(-150.976 -52.453)" fill="#e0e0e0"/>
            <path id="Path_30537" data-name="Path 30537" d="M171.893,178.007l94.315-54.45c1.279-.716,2.213-.141,2.213,1.279v.883a4.938,4.938,0,0,1-2.213,3.838l-94.315,54.45c-1.279.7-2.213.128-2.213-1.279v-.883a4.9,4.9,0,0,1,2.213-3.838Z" transform="translate(-150.976 -49.181)" fill="#e0e0e0"/>
            <path id="Path_30538" data-name="Path 30538" d="M171.893,189.716l94.315-54.45c1.279-.7,2.213-.141,2.213,1.279v.883a4.926,4.926,0,0,1-2.213,3.838l-94.315,54.45c-1.279.7-2.213.128-2.213-1.279v-.883a4.9,4.9,0,0,1,2.213-3.838Z" transform="translate(-150.976 -45.908)" fill="#e0e0e0"/>
            <path id="Path_30539" data-name="Path 30539" d="M171.893,201.517l94.315-54.45c1.279-.716,2.213-.141,2.213,1.279v.883a4.938,4.938,0,0,1-2.213,3.838l-94.315,54.45c-1.279.7-2.213.128-2.213-1.279v-.883a4.9,4.9,0,0,1,2.213-3.838Z" transform="translate(-150.976 -42.613)" fill="#e0e0e0"/>
            <path id="Path_30540" data-name="Path 30540" d="M171.893,213.226l94.315-54.45c1.279-.7,2.213-.141,2.213,1.279v.883a4.926,4.926,0,0,1-2.213,3.838l-94.315,54.5c-1.279.7-2.213.128-2.213-1.279v-.883a4.9,4.9,0,0,1,2.213-3.889Z" transform="translate(-150.976 -39.34)" fill="#e0e0e0"/>
            <path id="Path_30541" data-name="Path 30541" d="M171.893,224.956l94.315-54.45c1.279-.7,2.213-.128,2.213,1.279v.883a4.9,4.9,0,0,1-2.213,3.838l-94.315,54.45c-1.279.7-2.213.141-2.213-1.279v-.883a4.926,4.926,0,0,1,2.213-3.838Z" transform="translate(-150.976 -36.063)" fill="#e0e0e0"/>
            <path id="Path_30542" data-name="Path 30542" d="M171.893,236.646l94.315-54.45c1.279-.7,2.213-.128,2.213,1.279v.883a4.9,4.9,0,0,1-2.213,3.838l-94.315,54.45c-1.279.716-2.213.141-2.213-1.279v-.883a4.939,4.939,0,0,1,2.213-3.838Z" transform="translate(-150.976 -32.797)" fill="#e0e0e0"/>
            <path id="Path_30543" data-name="Path 30543" d="M171.893,248.367l94.315-54.45c1.279-.716,2.213-.141,2.213,1.279v.883a4.938,4.938,0,0,1-2.213,3.838l-94.315,54.45c-1.279.7-2.213.128-2.213-1.279v-.883A4.9,4.9,0,0,1,171.893,248.367Z" transform="translate(-150.976 -29.524)" fill="#e0e0e0"/>
            <path id="Path_30544" data-name="Path 30544" d="M171.893,260.126l94.315-54.45c1.279-.7,2.213-.128,2.213,1.279v.883a4.9,4.9,0,0,1-2.213,3.838l-94.315,54.45c-1.279.7-2.213.128-2.213-1.279v-.883A4.9,4.9,0,0,1,171.893,260.126Z" transform="translate(-150.976 -26.237)" fill="#e0e0e0"/>
            <path id="Path_30545" data-name="Path 30545" d="M171.893,271.836l94.315-54.45c1.279-.7,2.213-.128,2.213,1.279v.87a4.9,4.9,0,0,1-2.213,3.838l-94.315,54.45c-1.279.7-2.213.141-2.213-1.279v-.883a4.926,4.926,0,0,1,2.213-3.825Z" transform="translate(-150.976 -22.966)" fill="#e0e0e0"/>
            <path id="Path_30546" data-name="Path 30546" d="M171.893,283.554l94.315-54.489c1.279-.7,2.213-.128,2.213,1.279v.9a4.939,4.939,0,0,1-2.213,3.838l-94.315,54.437c-1.279.716-2.213.141-2.213-1.279v-.883a4.938,4.938,0,0,1,2.213-3.8Z" transform="translate(-150.976 -19.702)" fill="#e0e0e0"/>
            <path id="Path_30547" data-name="Path 30547" d="M161.967,341.925a4.7,4.7,0,0,1-6.9-4.337V126.172a5.22,5.22,0,0,1,.729-2.482l4.721,2.725a5.118,5.118,0,0,0-.742,2.469V340.3C159.779,341.785,160.739,342.45,161.967,341.925Z" transform="translate(-155.058 -49.058)" fill="#e0e0e0"/>
          </g>
          <path id="Path_30548" data-name="Path 30548" d="M362.495,117.858l-36.488,158-3.365,14.534a16.8,16.8,0,0,1-6.973,9.429L99.174,424.766a11.348,11.348,0,0,1-5.118,1.369,10.516,10.516,0,0,1-5.616-1.177l1.113-4.823.115-.473,1.215-5.284,5.3-22.926,33.545-145.26a2.313,2.313,0,0,1,.2-.537c.09-.166.192-.333.294-.486v-.077a3.249,3.249,0,0,1,.844-.793L316,137.56,356.469,114.2a2.444,2.444,0,0,1,2.226,0l2.981,1.714A1.881,1.881,0,0,1,362.495,117.858Z" transform="translate(-73.983 -41.754)" fill="#37474f"/>
          <path id="Path_30549" data-name="Path 30549" d="M353.4,117.487c0-.448-.358-.589-.857-.294L127.179,247.3a2.891,2.891,0,0,0-.844.793l-5.194-3.007a3.25,3.25,0,0,1,.844-.793L347.333,114.2a2.444,2.444,0,0,1,2.226,0l2.981,1.714A1.906,1.906,0,0,1,353.4,117.487Z" transform="translate(-64.848 -41.754)" fill="#455a64"/>
          <path id="Path_30550" data-name="Path 30550" d="M135.47,219.445a4.132,4.132,0,0,0-.384.627,2.916,2.916,0,0,0-.166.461L102.846,359.447h0l-6.755,29.272-.857,3.7h0l-1.177,5.117a10.517,10.517,0,0,1-5.616-1.177l1.113-4.823.115-.473,1.215-5.284,5.3-22.926,33.545-145.26a2.315,2.315,0,0,1,.2-.537c.09-.166.192-.333.294-.486v-.077Z" transform="translate(-73.983 -13.102)" fill="#263238"/>
          <path id="Path_30551" data-name="Path 30551" d="M97.515,348a1.446,1.446,0,0,1,.691,1.574l-1.829,7.945h0l-.96,3.953a1.446,1.446,0,0,1-1.484,1.113,9.581,9.581,0,0,1-4.388-1.177,11.872,11.872,0,0,1-5.194-9.391V342.9a1.433,1.433,0,0,1,2.162-1.279l2.316,1.279a1.471,1.471,0,0,1,.716,1.279v4.529a1.433,1.433,0,0,0,2.84.32l.384-1.676a1.446,1.446,0,0,1,2.124-.921Z" transform="translate(-75.126 21.802)" fill="#263238"/>
          <path id="Path_30552" data-name="Path 30552" d="M147.326,322.22l-12.32-7.113h0l-.128-.077h0c-6.128-3.467-14.534-2.955-23.835,2.418-8.713,5.015-16.632,13.4-22.632,23.029C81.49,351.633,77.14,364.554,77.14,376.133c0,10.8,3.838,18.385,9.89,21.928h0L99.542,405.2c6.179,3.94,14.9,3.6,24.577-2,18.73-10.811,33.916-37.1,33.916-58.736C158.035,333.312,153.915,325.559,147.326,322.22Z" transform="translate(-77.14 13.814)" fill="#3454d1"/>
          <path id="Path_30553" data-name="Path 30553" d="M99.3,399.1,87.03,392.092h0c-6.115-3.544-9.89-11.131-9.89-21.928,0-11.578,4.35-24.487,11.271-35.643l13.088,7.548c-6.921,11.156-11.258,24.052-11.258,35.618C90.2,388,93.657,395.38,99.3,399.1Z" transform="translate(-77.14 19.873)" opacity="0.1"/>
          <path id="Path_30554" data-name="Path 30554" d="M144.618,322.06c-6.039-2.93-14.073-2.188-22.952,2.917S105.034,338.4,99.008,348.1L85.92,340.547c5.987-9.7,13.932-18.065,22.632-23.029,9.3-5.373,17.707-5.885,23.835-2.431h0l.128.077h0Z" transform="translate(-74.687 13.833)" fill="#fff" opacity="0.4"/>
          <path id="Path_30555" data-name="Path 30555" d="M121.62,361.287v11.937a3.954,3.954,0,0,1-.41,1.753,2.635,2.635,0,0,1-.985,1.279l-6.538,3.774a.755.755,0,0,1-.985-.077,1.74,1.74,0,0,1-.409-1.279V366.789l-8.047,4.631a.742.742,0,0,1-.985-.064,1.74,1.74,0,0,1-.409-1.279v-8.06a4.235,4.235,0,0,1,.409-1.766,2.751,2.751,0,0,1,.985-1.2l8.047-4.644V342.519a4.234,4.234,0,0,1,.409-1.765,2.66,2.66,0,0,1,.985-1.2l6.538-3.838a.768.768,0,0,1,.985.064,1.714,1.714,0,0,1,.409,1.279v11.86l8-4.606a.742.742,0,0,1,.985.064,1.74,1.74,0,0,1,.409,1.279v8.06a4.235,4.235,0,0,1-.409,1.766,2.75,2.75,0,0,1-.985,1.2Z" transform="translate(-69.959 20.164)" fill="#fff"/>
        </g>
      </g>
      <g id="freepik--Character--inject-2" transform="translate(306.132 198.54)">
        <g id="freepik--character--inject-2-2" data-name="freepik--character--inject-2" transform="translate(0)">
          <path id="Path_30556" data-name="Path 30556" d="M382.726,215.339l-14.956-.422c-1-.857-16.7-18.577-16.7-18.577s-5.655,8.956-5.744,9.48,15.352,17.131,16.926,18.807a4.631,4.631,0,0,0,3.646,1.791c4.056.243,19.191,1.279,19.191,1.279Z" transform="translate(-220.745 -159.756)" fill="#ffb573"/>
          <g id="freepik--document--inject-2-3" data-name="freepik--document--inject-2">
            <path id="Path_30557" data-name="Path 30557" d="M250.3,447.866a5.386,5.386,0,0,1-2.354-4.26V244.817a5.553,5.553,0,0,1,2.559-4.35L375.4,168.426a5.45,5.45,0,0,1,4.874-.09,5.386,5.386,0,0,1,2.354,4.273V371.385a5.553,5.553,0,0,1-2.559,4.363L255.178,447.777a5.412,5.412,0,0,1-4.874.09Z" transform="translate(-247.95 -167.728)" fill="#3454d1"/>
            <path id="Path_30558" data-name="Path 30558" d="M254.466,431.792l.256-.077a.448.448,0,0,1-.179.077,3.84,3.84,0,0,1-.461.154h-.256a4.47,4.47,0,0,1-.576.09,5.781,5.781,0,0,1-.665,0,4.7,4.7,0,0,1-2.29-.537,4.26,4.26,0,0,1-1.279-1.279,5.386,5.386,0,0,1-1.036-2.994V228.55a4.246,4.246,0,0,1,.192-1.279,5.223,5.223,0,0,1,.23-.627,5.5,5.5,0,0,1,.307-.614l4.708,2.725h0l-.115.192a5.118,5.118,0,0,0-.627,2.277v198.84a2.69,2.69,0,0,0,.1.755,1.561,1.561,0,0,0,.486.768,1.459,1.459,0,0,0,.512.243h.294a1.075,1.075,0,0,0,.345,0A.09.09,0,0,0,254.466,431.792Z" transform="translate(-247.942 -151.461)" opacity="0.15"/>
            <path id="Path_30559" data-name="Path 30559" d="M382.381,172.089c-.2-1.279-1.279-1.7-2.469-.985L255.006,243.132a5.361,5.361,0,0,0-1.778,1.881l-4.708-2.738a5,5,0,0,1,1.778-1.868l124.892-72.042a5.45,5.45,0,0,1,4.874-.09A5.361,5.361,0,0,1,382.381,172.089Z" transform="translate(-247.791 -167.745)" fill="#fff" opacity="0.3"/>
            <path id="Path_30560" data-name="Path 30560" d="M264.789,245.2l94.29-54.45c1.279-.716,2.213-.141,2.213,1.279v.883a4.913,4.913,0,0,1-2.213,3.838L264.763,251.2c-1.279.7-2.213.128-2.213-1.279v-.883a4.887,4.887,0,0,1,2.239-3.838Z" transform="translate(-243.871 -161.404)" fill="#fafafa"/>
            <path id="Path_30561" data-name="Path 30561" d="M264.789,259.53l94.29-54.463c1.279-.716,2.213-.141,2.213,1.279v.883a4.887,4.887,0,0,1-2.213,3.838l-94.315,54.45c-1.279.7-2.213.128-2.213-1.279v-.883a4.887,4.887,0,0,1,2.239-3.825Z" transform="translate(-243.871 -157.404)" fill="#fafafa"/>
            <path id="Path_30562" data-name="Path 30562" d="M264.789,273.856l94.29-54.45c1.279-.7,2.213-.141,2.213,1.279v.844a4.887,4.887,0,0,1-2.213,3.838l-94.315,54.45c-1.279.7-2.213.128-2.213-1.279v-.883a4.887,4.887,0,0,1,2.239-3.8Z" transform="translate(-243.871 -153.396)" fill="#fafafa"/>
            <path id="Path_30563" data-name="Path 30563" d="M264.789,288.186l94.29-54.45c1.279-.7,2.213-.141,2.213,1.279v.883a4.887,4.887,0,0,1-2.213,3.838l-94.315,54.45c-1.279.7-2.213.128-2.213-1.279v-.883a4.887,4.887,0,0,1,2.239-3.838Z" transform="translate(-243.871 -149.393)" fill="#fafafa"/>
            <path id="Path_30564" data-name="Path 30564" d="M264.789,302.516l94.29-54.45c1.279-.7,2.213-.141,2.213,1.279v.883a4.887,4.887,0,0,1-2.213,3.838l-94.315,54.45c-1.279.7-2.213.128-2.213-1.279v-.883a4.887,4.887,0,0,1,2.239-3.838Z" transform="translate(-243.871 -145.389)" fill="#fafafa"/>
            <path id="Path_30565" data-name="Path 30565" d="M264.789,316.846l94.29-54.45c1.279-.7,2.213-.141,2.213,1.279v.857a4.887,4.887,0,0,1-2.213,3.838l-94.315,54.45c-1.279.7-2.213.128-2.213-1.279v-.883a4.888,4.888,0,0,1,2.239-3.813Z" transform="translate(-243.871 -141.386)" fill="#fafafa"/>
            <path id="Path_30566" data-name="Path 30566" d="M264.789,331.176l94.29-54.45c1.279-.7,2.213-.141,2.213,1.279v.883a4.887,4.887,0,0,1-2.213,3.838l-94.315,54.45c-1.279.7-2.213.128-2.213-1.279v-.883a4.887,4.887,0,0,1,2.239-3.838Z" transform="translate(-243.871 -137.383)" fill="#fafafa"/>
            <path id="Path_30567" data-name="Path 30567" d="M264.789,345.5l94.29-54.437c1.279-.7,2.213-.128,2.213,1.279v.883a4.887,4.887,0,0,1-2.213,3.838l-94.315,54.45c-1.279.7-2.213.128-2.213-1.279v-.883a4.887,4.887,0,0,1,2.239-3.851Z" transform="translate(-243.871 -133.376)" fill="#fafafa"/>
            <path id="Path_30568" data-name="Path 30568" d="M264.789,359.836l94.29-54.45c1.279-.7,2.213-.128,2.213,1.279v.87a4.875,4.875,0,0,1-2.213,3.838l-94.315,54.45c-1.279.7-2.213.128-2.213-1.279v-.883a4.887,4.887,0,0,1,2.239-3.825Z" transform="translate(-243.871 -129.375)" fill="#fafafa"/>
            <path id="Path_30569" data-name="Path 30569" d="M264.786,374.166l94.29-54.45c1.279-.7,2.213-.128,2.213,1.279v.883a4.875,4.875,0,0,1-2.213,3.838l-94.3,54.45c-1.279.7-2.213.128-2.213-1.279V378a4.9,4.9,0,0,1,2.226-3.838Z" transform="translate(-243.868 -125.372)" fill="#fafafa"/>
          </g>
          <path id="Path_30570" data-name="Path 30570" d="M376.73,218.617h17.758a22.952,22.952,0,0,0,22.952-22.952h0a20.355,20.355,0,0,0-20.355-20.355h0a20.355,20.355,0,0,0-20.355,20.355Z" transform="translate(-211.972 -165.631)" fill="#263238"/>
          <path id="Path_30571" data-name="Path 30571" d="M405.072,182.5,410,179.857a2.712,2.712,0,0,0-3.723-1.279,2.93,2.93,0,0,0-1.2,3.928Z" transform="translate(-204.147 -164.804)" fill="#263238"/>
          <path id="Path_30572" data-name="Path 30572" d="M404.73,182.4l5.245,1.957a2.725,2.725,0,0,0-1.535-3.621A2.955,2.955,0,0,0,404.73,182.4Z" transform="translate(-204.15 -164.162)" fill="#263238"/>
          <path id="Path_30573" data-name="Path 30573" d="M396.747,225.572l-24.73-1.062c-2.137-3.007-2.137-10.951.115-13.51l27.366.742Z" transform="translate(-213.733 -155.66)" fill="#3454d1"/>
          <path id="Path_30574" data-name="Path 30574" d="M379.25,342.31a49.324,49.324,0,0,1,.2,4.977v9.736h8.431v-5.706a47.2,47.2,0,0,1,.64-7.676Z" transform="translate(-211.268 -118.976)" fill="#ffb573"/>
          <path id="Path_30575" data-name="Path 30575" d="M382.941,350.817V349.6c-.23,1.842-5.5,8.776-8.853,11.834-2.674,2.444-6.32,5.258-7.254,7.983s4.312,3.941,7.766,3.6a13.983,13.983,0,0,0,8.7-4.555,41.857,41.857,0,0,0,3.749-5.578c1.023-1.382,5.629-4.222,6.192-5.834a10.453,10.453,0,0,0-.486-4.439c-.4-1.5-.819-3.147-1.279-3.007v.921a6.73,6.73,0,0,1-4.235,1.433C385.948,352.007,382.941,351.764,382.941,350.817Z" transform="translate(-214.768 -116.941)" fill="#263238"/>
          <path id="Path_30576" data-name="Path 30576" d="M390.4,350.521a6.73,6.73,0,0,1-4.235,1.433c-1.279,0-4.248-.192-4.248-1.139V349.6c-.23,1.842-5.5,8.777-8.853,11.834-.64.588-1.343,1.19-2.047,1.817-1.42,1.586-1.011,2.968,2.329,3.25s6.282-1.727,8.815-4.836S390.4,350.521,390.4,350.521Z" transform="translate(-213.784 -116.939)" fill="#ffb573"/>
          <path id="Path_30577" data-name="Path 30577" d="M399.48,353.53c.166,2.047.166,4.184.2,5.117v9.736h8.469v-5.706a47.208,47.208,0,0,1,.629-7.687Z" transform="translate(-205.617 -115.841)" fill="#ffb573"/>
          <path id="Path_30578" data-name="Path 30578" d="M403.171,362.137v-1.215c-.243,1.842-5.5,8.776-8.866,11.834-2.674,2.444-6.32,5.258-7.241,7.971s4.3,3.953,7.766,3.608a13.945,13.945,0,0,0,8.687-4.554,42.213,42.213,0,0,0,3.761-5.578c1.023-1.382,5.629-4.222,6.179-5.834a10.056,10.056,0,0,0-.486-4.439c-.384-1.5-.819-3.147-1.279-3.007v.921a6.729,6.729,0,0,1-4.235,1.433C406.2,363.327,403.158,363.084,403.171,362.137Z" transform="translate(-209.115 -113.778)" fill="#263238"/>
          <path id="Path_30579" data-name="Path 30579" d="M410.648,361.841a6.729,6.729,0,0,1-4.235,1.433c-1.279,0-4.248-.192-4.235-1.139V360.92c-.243,1.842-5.5,8.776-8.866,11.834-.64.588-1.279,1.19-2.034,1.817-1.42,1.586-1.011,2.968,2.328,3.25s6.269-1.727,8.8-4.836S410.648,361.841,410.648,361.841Z" transform="translate(-208.123 -113.777)" fill="#ffb573"/>
          <path id="Path_30580" data-name="Path 30580" d="M380.525,370.1c-1.817-14.93-4.785-40.748-5.655-46.39-.806-5.22,1.215-49.9,2.456-64.122l44.138-2.367c3.352,14.38.077,33.775-1.062,45.891-1.126,11.783-2.559,25.587-2.559,25.587s3.442,12.013,2.559,21.57c-.588,6.026-3.288,24.206-4.567,31.984a10.44,10.44,0,0,1-9.685-.128c.141,1.65-1.574-20.137-2.559-28.939-1.407-12.218-1.945-21.122-3.2-28.261-1.574-8.956-2.111-43.78-2.111-43.78l-5.118,39.571a95.846,95.846,0,0,1,.806,12.794c0,8.841-3.262,28.927-4.286,36.437C387.472,371.519,382.969,371.993,380.525,370.1Z" transform="translate(-212.544 -142.748)" fill="#455a64"/>
          <path id="Path_30581" data-name="Path 30581" d="M395.886,277.439s-8.073-2.827-12.666-7.049a22.708,22.708,0,0,0,9.455,8.278l.077,23.157,3.134-24.385" transform="translate(-210.159 -139.068)" fill="#37474f"/>
          <path id="Path_30582" data-name="Path 30582" d="M404.443,211.824s11.988,1.382,13.421,2.021c-7.305,8,.473,14.623.473,14.623l-5.565,24.487c4.8,6.128,7.535,10.862,8.687,18.167-5.118,9.058-33.993,10.312-44.573,3.569.921-12.627,2.981-21.673,2.29-25.472-5.028-15.506-3.467-18.756-2.994-22.3.921-6.921,7.791-12.947,11.719-15.48h3.659Z" transform="translate(-212.294 -155.537)" fill="#f0f0f0"/>
          <path id="Path_30583" data-name="Path 30583" d="M383,183.1c-2.149,1.279-4.811,6.678-4.542,18.014.218,9.608,3.339,11.975,4.9,12.666s4.58.269,7.51-.23v5.77s-4.056,4.708-3.838,7.356,5.847,3.262,9.646.678a30.769,30.769,0,0,0,6.985-7.612l-.064-13.254s1.714,1.676,4.644-.883c2.418-2.111,3.224-5.68,1.279-7.587a4.209,4.209,0,0,0-6.691,1.279s-1.625-4.516-8.38-6.729C388.395,190.648,385.081,188.333,383,183.1Z" transform="translate(-211.496 -163.455)" fill="#ffb573"/>
          <path id="Path_30584" data-name="Path 30584" d="M387.3,195.575a1.21,1.21,0,1,0,2.418.077,1.215,1.215,0,1,0-2.418-.115Z" transform="translate(-209.02 -160.334)" fill="#263238"/>
          <path id="Path_30585" data-name="Path 30585" d="M387.662,201.66l-2.8.9a1.433,1.433,0,0,0,1.817,1,1.535,1.535,0,0,0,.985-1.893Z" transform="translate(-209.701 -158.269)" fill="#9a4a4d"/>
          <path id="Path_30586" data-name="Path 30586" d="M379.613,192.907l2.444-1.689a1.433,1.433,0,0,0-2.034-.422A1.574,1.574,0,0,0,379.613,192.907Z" transform="translate(-211.234 -161.376)" fill="#263238"/>
          <path id="Path_30587" data-name="Path 30587" d="M390.584,193.607l-2.444-1.689a1.433,1.433,0,0,1,2.034-.422A1.574,1.574,0,0,1,390.584,193.607Z" transform="translate(-208.785 -161.18)" fill="#263238"/>
          <path id="Path_30588" data-name="Path 30588" d="M380,194.892a1.21,1.21,0,1,0,2.418.09,1.215,1.215,0,1,0-2.418-.115Z" transform="translate(-211.059 -160.522)" fill="#263238"/>
          <path id="Path_30589" data-name="Path 30589" d="M385.327,194.07l-.192,7.267-3.825-1.177Z" transform="translate(-210.693 -160.39)" fill="#ea9b54"/>
          <path id="Path_30590" data-name="Path 30590" d="M388.11,207.934c3.083-.4,9.442-2.226,10.44-4.734a6.5,6.5,0,0,1-2.239,3.2c-1.893,1.625-8.2,3.467-8.2,3.467Z" transform="translate(-208.793 -157.839)" fill="#9a4a4d"/>
          <path id="Path_30591" data-name="Path 30591" d="M408.822,235.34,398.6,250.27l7.74-3.992Z" transform="translate(-205.862 -148.86)" fill="#e0e0e0"/>
          <path id="Path_30592" data-name="Path 30592" d="M420.233,216.649l-23.988,24.807s-23.553-2.316-31.549-4.606c-2.559-.729-4.555-4.184-5.118-7.088a3.646,3.646,0,0,0-2.8-3.211v5.821c-.2,1.471-.921,2.226-3.019,2.277-8.086.179-11.834-2.277-12.794,2.111-.627,2.8.589,5.987,5.923,7.459,7.5,2.047,11.642,1.023,16.2,2.162,3.518.87,28.069,5.54,32.893,6.589,2.559.563,4.491.384,7.267-2.354s23.528-22.184,23.528-22.184c6.4-6.4,4.5-12.96.947-14.918C425.491,212.3,423.06,213.732,420.233,216.649Z" transform="translate(-222.007 -155.079)" fill="#ffb573"/>
          <path id="Path_30593" data-name="Path 30593" d="M412.779,213.413c1.548.627,3.441,2.277,3.6,6.55s-3.007,8.162-6.73,12.615-4.849,5.629-4.849,5.629-9.416-3.429-11.015-10.427c0,0,7.1-7.523,9.224-9.928S409.043,211.724,412.779,213.413Z" transform="translate(-207.209 -155.105)" fill="#3454d1"/>
        </g>
      </g>
      <g id="freepik--Clouds--inject-2" transform="translate(422.054 90.104)">
        <path id="Path_30594" data-name="Path 30594" d="M371.5,87.84l8.892,5.117a9.255,9.255,0,0,1-.077-1.177V89.221c0-4.58,3.224-6.4,7.19-4.145a14.072,14.072,0,0,1,4.286,4.12c.652-5.77,5.117-7.907,10.67-4.746,5.936,3.442,10.76,11.783,10.76,18.64v3.838a10.043,10.043,0,0,1-.921,4.465l7.395,4.26a8.853,8.853,0,0,1,3.992,6.909c0,2.559-1.791,3.582-3.992,2.3L371.5,97.077a8.815,8.815,0,0,1-3.992-6.909C367.51,87.6,369.3,86.56,371.5,87.84Z" transform="translate(-330.471 -82.988)" fill="#ebebeb"/>
        <path id="Path_30595" data-name="Path 30595" d="M341.529,107.809l6.7,3.838v-2.84c0-3.454,2.431-4.862,5.424-3.122a10.351,10.351,0,0,1,3.237,3.109c.486-4.35,3.838-5.975,8.047-3.582a17.911,17.911,0,0,1,8.124,14.073v2.9a7.674,7.674,0,0,1-.691,3.378l5.578,3.211a6.666,6.666,0,0,1,3.007,5.22c0,1.919-1.343,2.7-3.007,1.74L341.58,114.73a6.653,6.653,0,0,1-3.019-5.207C338.509,107.668,339.865,106.887,341.529,107.809Z" transform="translate(-338.559 -77.088)" fill="#ebebeb"/>
      </g>
    </g>
  </g>
</svg>
