<svg xmlns="http://www.w3.org/2000/svg" width="63.592" height="62.32" viewBox="0 0 63.592 62.32">
  <g id="Admin_Operations_blue" data-name="Admin &amp; Operations blue" transform="translate(10125.026 4485.826)">
    <path id="Path_30484" data-name="Path 30484" d="M666.825,121.949c.22-1.869.426-3.625.634-5.381.489-4.113.995-8.224,1.461-12.339a3.188,3.188,0,0,0-3.272-3.688c-1.6-.033-3.193-.008-4.79-.008q-11.377,0-22.753,0c-2.879,0-4.144,1.577-3.755,4.427.518,3.8.91,7.615,1.361,11.423.215,1.818.443,3.635.69,5.655a45.178,45.178,0,0,1-5.68-.337,4.582,4.582,0,0,1-3.612-5.161c.936-5.249,2-10.475,3.092-15.695a4.563,4.563,0,0,1,3.615-3.536c2.663-.711,5.323-1.431,7.993-2.113,1.6-.408,2.414-1.75,3.373-2.863a1.23,1.23,0,0,0-.4-1.751,11.36,11.36,0,0,1-4.669-7.643,1.127,1.127,0,0,0-.553-.707,4.209,4.209,0,0,1-1.92-6.371,2.156,2.156,0,0,0,.253-1.031c.024-1.935,0-3.87.016-5.8a4.878,4.878,0,0,1,3.726-4.865,1,1,0,0,0,.815-.81,4.448,4.448,0,0,1,4.063-3.492,49.742,49.742,0,0,1,9.184.147,11.231,11.231,0,0,1,9.615,11.21c.016.706,0,1.413.006,2.119a6.933,6.933,0,0,0,.616,3.354,3.982,3.982,0,0,1-2.138,5.43,1.152,1.152,0,0,0-.765,1,11.408,11.408,0,0,1-4.533,7.428c-.848.648-.8,1.357-.2,2.238,1.569,2.289,4.044,2.7,6.439,3.314,1.453.375,2.9.782,4.356,1.13a5.013,5.013,0,0,1,4.078,4.216c.924,4.723,1.9,9.436,2.783,14.166.7,3.745-1.485,6.326-5.277,6.338-1.251,0-2.5,0-3.861,0M651.588,90.8a9.546,9.546,0,0,0,9.565-9.031,1.2,1.2,0,0,1,1.04-1.291c1.543-.306,2.29-1.28,2.051-2.61-.224-1.244-1.318-1.889-2.809-1.656-.945.147-1.374-.209-1.406-1.177-.011-.337,0-.675,0-1.012-.007-1.841-.78-2.622-2.613-2.642a51.68,51.68,0,0,1-10.955-1.119c-1.253-.285-1.679-.131-2.1,1.1s-.667,2.54-.981,3.816c-.272,1.109-.565,1.293-1.678,1.025a2.145,2.145,0,0,0-2.723,1.647,2.1,2.1,0,0,0,1.731,2.58c.947.138,1.269.574,1.34,1.5a9.562,9.562,0,0,0,9.539,8.872m-4.14,1.291a4.334,4.334,0,0,0,1.936,4.71,4.116,4.116,0,0,0,4.6-.11A4.177,4.177,0,0,0,655.71,92.1a12,12,0,0,1-8.262-.009" transform="translate(-10752.072 -4545.545)" fill="#3454d1"/>
    <path id="Path_30485" data-name="Path 30485" d="M692.526,292.318q6.813,0,13.626,0c1.421,0,1.786.355,1.623,1.768-.579,5.025-1.2,10.046-1.8,15.069-.011.091-.032.181-.041.273-.249,2.651.038,2.258-2.6,2.264-7.672.016-15.344-.007-23.016.024-.819,0-1.059-.217-1.151-1.05-.539-4.876-1.16-9.742-1.749-14.612-.085-.7-.168-1.4-.221-2.105-.09-1.2.3-1.627,1.522-1.629q6.9-.009,13.809,0m2.2,9.655a2.231,2.231,0,1,0-2.172,2.263,2.255,2.255,0,0,0,2.172-2.263" transform="translate(-10792.973 -4735.293)" fill="#3454d1"/>
    <path id="Path_30486" data-name="Path 30486" d="M824.53,193.8c1.151-1.379.727-2.6-.025-3.872-.727-1.235-.637-1.426.4-2.458.564-.564,1.143-1.112,1.693-1.69a1.257,1.257,0,0,1,1.724-.283c.4.232.816.422,1.225.632,1.57.8,2.809.259,3.416-1.415.792-2.187.2-2.382,3.238-2.363,2.922.018,2.524-.016,3.331,2.361a2.207,2.207,0,0,0,3.417,1.421c2.354-1.19,1.958-1.357,3.923.624,1.949,1.963,1.994,1.531.637,4.156a2.176,2.176,0,0,0,1.3,3.2c2.773.93,2.523.51,2.525,3.563v.184c0,2.086,0,2.083-1.972,2.761-.739.254-1.525.372-1.881,1.282a2.457,2.457,0,0,0,.081,2.252c1.2,2.281,1.359,2.007-.594,3.935-1.858,1.835-1.572,1.995-4.1.673a2.167,2.167,0,0,0-3.311,1.358,15.875,15.875,0,0,1-.542,1.561,7.446,7.446,0,0,1-.849,1.111l-1.891-9.55c.668-.169,1.3-.279,1.9-.489a5.618,5.618,0,0,0-.5-10.752,5.527,5.527,0,0,0-6.247,2.574c-.408.747-.759.893-1.552.648-1.694-.523-3.426-.925-5.339-1.428" transform="translate(-10912.769 -4645.582)" fill="#3454d1"/>
  </g>
</svg>
