<svg id="Case_Management_blue" data-name="Case Management blue" xmlns="http://www.w3.org/2000/svg" xmlns:xlink="http://www.w3.org/1999/xlink" width="58.598" height="55.557" viewBox="0 0 58.598 55.557">
  <defs>
    <clipPath id="clip-path">
      <rect id="Rectangle_1477" data-name="Rectangle 1477" width="58.598" height="55.557" fill="#3454d1"/>
    </clipPath>
  </defs>
  <g id="Group_6670" data-name="Group 6670" clip-path="url(#clip-path)">
    <path id="Path_30471" data-name="Path 30471" d="M38.005,88.9a3.2,3.2,0,0,0,2.036-3.111c-.011-.98.014-1.962-.041-2.94a2.482,2.482,0,0,0-1.88-2.386c-.288-.092-.568-.209-.924-.342.158-.323.306-.616.446-.913A2.427,2.427,0,0,0,37.4,76.43a23.933,23.933,0,0,0-2.729-2.724c-1.219-1.021-2.488-.557-3.749.245-.116-.35-.211-.618-.294-.891a2.526,2.526,0,0,0-2.241-1.943,21.528,21.528,0,0,0-2.851-.136c-1.862.039-3.135.853-3.362,2.709l-3.539-.659V50.96c.047,0,.176-.04.226.006a8.455,8.455,0,0,0,6.066,1.914q23.022-.055,46.044-.018A7.186,7.186,0,0,1,72.1,52.9a1.383,1.383,0,0,1,1.318,1.425c.008.271.007.542.007.814q0,15.769,0,31.538c0,1.908-.321,2.222-2.278,2.222H38.005ZM66.192,82.54V81.185q0-8.34,0-16.68c0-1.2-.318-1.517-1.5-1.525-1.432-.009-2.864.007-4.3-.005-.923-.008-1.4.385-1.37,1.343.027,1.006.006,2.014.006,3.067H55.791c0-1.062-.018-2.071.005-3.078.022-.956-.443-1.346-1.374-1.334q-2.2.03-4.4,0a1.194,1.194,0,0,0-1.38,1.359q0,1.78,0,3.56c0,1.309,0,2.617,0,4.013-1.33,0-2.516-.006-3.7,0-1.169.008-1.461.288-1.466,1.426-.009,2,0,4,0,6v3.205a4.917,4.917,0,0,0-1.53.035c-.37.138-.855.568-.868.886s.445.728.789.969c.211.148.594.066.9.067q12.071,0,24.141,0c.306,0,.686.082.9-.064.348-.238.816-.64.806-.96s-.494-.756-.864-.9a4.986,4.986,0,0,0-1.553-.036m-32.226-23.4q-3.99,0-7.98,0a4.08,4.08,0,0,0-1.515.068,1.52,1.52,0,0,0-.821,1.044c-.021.269.548.617.9.867.137.1.4.023.6.023H42.543c.239,0,.538.08.7-.032.332-.226.826-.564.821-.847a1.734,1.734,0,0,0-.715-1.043c-.193-.156-.59-.078-.895-.079q-4.246-.006-8.491,0m-.105,7.523c2.964,0,5.928-.006,8.892,0,.709,0,1.366-.1,1.364-.969s-.68-.984-1.373-.984q-8.892,0-17.784,0c-.7,0-1.37.125-1.365.993s.667.963,1.374.961c2.964-.01,5.928,0,8.892,0" transform="translate(-14.823 -40.577)" fill="#3454d1"/>
    <path id="Path_30472" data-name="Path 30472" d="M45.13.006V10.286c-.3.026-.589.073-.879.074q-10.129.006-20.257,0a5.2,5.2,0,0,1-5.381-4.2A5.126,5.126,0,0,1,23.739.017C29.4-.014,35.061.007,40.722.006H45.13" transform="translate(-14.729 0)" fill="#3454d1"/>
    <path id="Path_30473" data-name="Path 30473" d="M3.227,166.2a13.95,13.95,0,0,0-.687-1.285,1.207,1.207,0,0,1,.171-1.726c.34-.332.642-.7.986-1.029,1.2-1.14,1.2-1.136,2.693-.323a1.848,1.848,0,0,0,2.762-1.179c.427-1.564.449-1.583,2.064-1.612.341-.006.682-.007,1.022,0,1.483.037,1.533.079,1.917,1.536a1.8,1.8,0,0,0,2.882,1.161,1.623,1.623,0,0,1,2.473.293c.2.232.439.426.649.647,1.165,1.22,1.164,1.221.357,2.685a1.844,1.844,0,0,0,1.127,2.766c.565.2,1.478.026,1.528.9a20.063,20.063,0,0,1-.141,3.5c-.024.2-.658.387-1.035.493-1.715.48-2.262,1.6-1.336,3.058a1.514,1.514,0,0,1-.245,2.225c-.25.229-.471.489-.718.723-1.254,1.19-1.256,1.189-2.759.375a1.86,1.86,0,0,0-2.766,1.171c-.433,1.611-.44,1.618-2.15,1.646q-.358.006-.716,0c-1.678-.028-1.727-.066-2.157-1.641A1.844,1.844,0,0,0,6.4,179.413c-1.517.819-1.52.822-2.761-.367-.318-.3-.6-.651-.912-.958a1.254,1.254,0,0,1-.144-1.81,1.907,1.907,0,0,0,.39-1.959,1.948,1.948,0,0,0-1.747-1.292,1.243,1.243,0,0,1-1.19-1.37c-.009-.406-.037-.813-.034-1.219.017-1.775.005-1.857,1.7-2.289,1.069-.272,1.135-1.123,1.522-1.947m8.44-2.465a6.9,6.9,0,1,0,6.944,6.94,6.933,6.933,0,0,0-6.944-6.94" transform="translate(0 -126.678)" fill="#3454d1"/>
    <rect id="Rectangle_1473" data-name="Rectangle 1473" width="3.094" height="17.433" transform="translate(35.879 24.447)" fill="#3454d1"/>
    <rect id="Rectangle_1474" data-name="Rectangle 1474" width="2.981" height="17.432" transform="translate(46.292 24.484)" fill="#3454d1"/>
    <rect id="Rectangle_1475" data-name="Rectangle 1475" width="3.13" height="12.988" transform="translate(41.023 28.874)" fill="#3454d1"/>
    <rect id="Rectangle_1476" data-name="Rectangle 1476" width="3.013" height="8.551" transform="translate(30.732 33.341)" fill="#3454d1"/>
    <path id="Path_30474" data-name="Path 30474" d="M37.811,191.965a4.9,4.9,0,1,1-4.965,4.844,4.861,4.861,0,0,1,4.965-4.844" transform="translate(-26.125 -152.899)" fill="#3454d1"/>
  </g>
</svg>
