<svg xmlns="http://www.w3.org/2000/svg" width="59.47" height="59.486" viewBox="0 0 59.47 59.486">
  <g id="Contract_Account_blue" data-name="Contract &amp; Account blue" transform="translate(10258.619 4498.84)">
    <path id="Path_30487" data-name="Path 30487" d="M31.44,135.443a27.422,27.422,0,0,1,3.856.923,3.617,3.617,0,0,0,3.854-.635,23.672,23.672,0,0,1,2.194-1.361,5.7,5.7,0,0,1,5.118-.533c1.3.465,2.6.9,3.881,1.409a5.628,5.628,0,0,0,3.868.174c.842-.262,1.708-.442,2.6-.668a2.609,2.609,0,0,1,1.723-2.739c1.046-.534,2.036-1.177,3.06-1.754a2.193,2.193,0,0,1,3.242.842q4.145,7.1,8.265,14.214a2.179,2.179,0,0,1-.856,3.294c-1.182.707-2.351,1.448-3.589,2.042a3.1,3.1,0,0,1-1.876.233,1.078,1.078,0,0,0-1.1.264c-1,.806-2.049,1.557-3.107,2.287-.394.272-.953.4-1.154-.171-.078-.224.293-.708.571-.934.954-.774,1.957-1.487,2.943-2.221.408-.3.373-.633.134-1.042q-3.675-6.278-7.32-12.574c-.249-.433-.5-.567-.961-.421-.381.122-.79.169-1.161.313a8.9,8.9,0,0,1-7.167-.458,24.907,24.907,0,0,0-2.838-1,3.893,3.893,0,0,0-3.242.35c-2.271,1.345-4.523,2.723-6.768,4.11a2.687,2.687,0,0,0-.715.733q-1.658,2.308-3.284,4.639c-.56.8-.458,1.109.45,1.472a4.9,4.9,0,0,0,5.358-1.3,7.951,7.951,0,0,0,1.192-1.468c1.1-2.047,3.206-2.224,5.1-2.755.315-.088.838.275,1.162.552q7.041,6.016,14.041,12.081a5.585,5.585,0,0,1,1.581,1.867,3,3,0,0,1-3.232,4.122c-.166-.018-.334-.019-.5-.028-.294,2.424-2.462,3.914-5.03,2.478-.389,1.915-2.125,3.457-4.8,2.288-.085.262-.163.521-.253.776a2.874,2.874,0,0,1-4.486,1.413c-.968-.707-1.909-1.452-2.86-2.178-2.028,2.487-4.424,1.8-5.569-.288-2.712.671-3.773.163-4.665-2.236-2.658-.088-3.645-.98-3.69-3.427a3.138,3.138,0,0,1-2.915-2.088c-.48-1.41.23-2.5,1.084-3.578l-2.378-2.244c-1.176.662-2.222.209-3.25-.566-.87-.656-1.807-1.222-2.708-1.837a2.185,2.185,0,0,1-.684-3.337q4.6-6.814,9.238-13.609a2.194,2.194,0,0,1,3.348-.629c1.008.661,1.991,1.362,3.01,2.006a2.532,2.532,0,0,1,1.292,3.191m8.554,27.541c1.088.822,2.1,1.666,3.2,2.373a1.709,1.709,0,0,0,1.368.039,1.772,1.772,0,0,0,.373-3c-.683-.613-1.418-1.169-2.137-1.742-.362-.289-.686-.612-.347-1.078.4-.548.806-.2,1.17.089,1.23.991,2.45,1.994,3.682,2.983a1.811,1.811,0,0,0,2.678-.055,1.793,1.793,0,0,0-.455-2.695c-1-.819-2.007-1.627-3.011-2.442-.825-.67-1.677-1.31-2.453-2.034-.193-.18-.136-.629-.193-.955a4.648,4.648,0,0,1,.985.025c.2.046.362.27.541.414q3.448,2.792,6.9,5.582a1.857,1.857,0,0,0,2.69-.038,1.781,1.781,0,0,0-.449-2.695c-1.442-1.185-2.9-2.353-4.348-3.529-.669-.542-1.334-1.089-2.01-1.623-.381-.3-.776-.647-.413-1.137.431-.582.852-.143,1.236.156.159.123.313.253.469.379,2.321,1.879,4.634,3.768,6.968,5.631a1.784,1.784,0,0,0,2.608-.186,1.821,1.821,0,0,0-.329-2.6q-7.242-6.246-14.514-12.457a1.347,1.347,0,0,0-.987-.225,5.048,5.048,0,0,0-3.848,2.4,7.2,7.2,0,0,1-.922,1.135,6.178,6.178,0,0,1-6.9,1.712c-1.655-.628-2.093-1.918-1.018-3.319,1.638-2.135,2.765-4.674,5.078-6.337l-4.964-1.227-8.619,12.7,2.262,2.141c2.087-1.28,3.358-1.021,4.839.89,2.107-1.969,3.694-1.766,5.411.717a2.9,2.9,0,0,1,3.578.378,2.957,2.957,0,0,1,.509,3.747,3.046,3.046,0,0,1,2.675,2.393c.3,1.4-.547,2.4-1.306,3.491m-2.216-7.346a1.669,1.669,0,0,0-1.174-1.721,1.63,1.63,0,0,0-1.936.747c-1.266,1.812-2.536,3.62-3.792,5.439a1.668,1.668,0,1,0,2.709,1.914q1.915-2.708,3.779-5.45a4.824,4.824,0,0,0,.414-.93m-9.237,4.655c.19-.1.706-.223.945-.546,1.244-1.676,2.456-3.379,3.6-5.127a1.615,1.615,0,0,0-2.7-1.75c-1.2,1.639-2.383,3.293-3.479,5-.661,1.029.168,2.384,1.638,2.422m11.546-.374a1.569,1.569,0,0,0-1.069-1.373,1.488,1.488,0,0,0-1.835.546c-.664.937-1.3,1.895-1.967,2.83a1.4,1.4,0,0,0,.081,1.825,1.544,1.544,0,0,0,1.852.518c.735-.253,2.947-3.424,2.939-4.345M25.32,156.895a6.093,6.093,0,0,0,1.2-.815,13.959,13.959,0,0,0,1.2-1.673A1.546,1.546,0,0,0,27.4,152.2a1.585,1.585,0,0,0-2.233.242,13.028,13.028,0,0,0-1.317,1.9,1.737,1.737,0,0,0,1.467,2.55m44.124-11.112a1.146,1.146,0,0,0-1.181-1.183A1.246,1.246,0,0,0,67,145.825a1.321,1.321,0,0,0,1.216,1.21,1.211,1.211,0,0,0,1.226-1.253m-50.036-1.731a1.2,1.2,0,0,0-1.235,1.168,1.217,1.217,0,1,0,1.235-1.168" transform="translate(-10272.672 -4606.209)" fill="#3454d1"/>
    <path id="Path_30488" data-name="Path 30488" d="M119.077,1.26H85.733c-1.983,0-2.6.629-2.6,2.637q0,7.369,0,14.739a2.436,2.436,0,0,1-.052.852c-.079.2-.357.468-.528.456a.944.944,0,0,1-.632-.445,1.672,1.672,0,0,1-.056-.761q0-7.585,0-15.17A3.214,3.214,0,0,1,85.431,0q18.311,0,36.622,0a4.917,4.917,0,0,1,5.222,5.153c.012,1.752-.019,3.506.012,5.257.013.753-.293,1.011-1.026,1-2.412-.022-4.825,0-7.237.006a1.618,1.618,0,0,0-.3.1c0,1.258.014,2.567-.006,3.875-.009.569.2,1.421-.662,1.419s-.643-.859-.646-1.423c-.015-2.758,0-5.516-.009-8.274-.007-2.035-.2-4.11,1.677-5.856" transform="translate(-10328.779 -4498.84)" fill="#3454d1"/>
    <path id="Path_30489" data-name="Path 30489" d="M123.942,81.4c.648,1.59,1.878,2.2,3.226,1.5.458-.237.707-.878,1.051-1.336.176-.235.315-.614.534-.667s.544.193.741.39c.383.382.668.867,1.066,1.228a1.022,1.022,0,0,0,1.747-.188,11.131,11.131,0,0,0,.821-1.507c.352-.7.788-.764,1.3-.192a8.358,8.358,0,0,0,.948.992,1.008,1.008,0,0,0,1.679-.227,4.473,4.473,0,0,0,.4-.663c.472-.914.625-.964,1.474-.371a1.385,1.385,0,0,0,1.938-.117c.221-.2.686-.113,1.039-.158-.058.352,0,.808-.2,1.036a2.442,2.442,0,0,1-3.18.535c-1.854,2.033-2.22,2.077-4.555.567-1.867,2.453-2.748,2.6-4.824.788-2.417,2.21-4.55,1.908-6.43-.91-.97.345-1.936.7-2.912,1.029-.453.152-.958.243-1.122-.385-.153-.583.334-.711.744-.857.7-.25,1.395-.526,2.108-.736.6-.178.707-.485.569-1.085a5.455,5.455,0,0,1,2.438-5.963,2.308,2.308,0,0,1,3.411,2.883,8.478,8.478,0,0,1-3,3.694c-.321.238-.653.461-1.018.718m-.476-1.266a7.381,7.381,0,0,0,3.237-3.526,1.526,1.526,0,0,0-.27-1.347,1.422,1.422,0,0,0-1.289.007,4.034,4.034,0,0,0-1.678,4.866" transform="translate(-10359.245 -4559.802)" fill="#3454d1"/>
    <path id="Path_30490" data-name="Path 30490" d="M131.89,45.358q-5.295,0-10.589,0a2.127,2.127,0,0,1-.847-.064.84.84,0,0,1-.46-.592c.006-.2.274-.458.49-.578a1.515,1.515,0,0,1,.677-.043q10.762,0,21.523,0c.2,0,.441-.06.593.028.244.14.585.374.6.583s-.305.495-.545.621a1.764,1.764,0,0,1-.763.046q-5.338,0-10.675,0" transform="translate(-10360.35 -4535.304)" fill="#3454d1"/>
    <path id="Path_30491" data-name="Path 30491" d="M289.236,109.884c-.307.217-.638.63-.916.6a1.1,1.1,0,0,1-.767-.758c-.008-.265.449-.721.75-.765.277-.041.618.355.93.558q0,.184,0,.368" transform="translate(-10499.024 -4589.013)" fill="#3454d1"/>
  </g>
</svg>
