<svg xmlns="http://www.w3.org/2000/svg" xmlns:xlink="http://www.w3.org/1999/xlink" width="616" height="671" viewBox="0 0 616 671">
  <defs>
    <linearGradient id="linear-gradient" x1="0.5" x2="0.5" y2="1" gradientUnits="objectBoundingBox">
      <stop offset="0" stop-color="#f8f9fa"/>
      <stop offset="0.466" stop-color="#fafbfc"/>
      <stop offset="0.683" stop-color="#fbfcfd"/>
      <stop offset="1" stop-color="#fff"/>
    </linearGradient>
  </defs>
  <g id="Customer_Interaction" data-name="Customer Interaction" transform="translate(-1106 -2487)">
    <rect id="Rectangle_1438" data-name="Rectangle 1438" width="616" height="671" rx="28" transform="translate(1106 2487)" fill="url(#linear-gradient)"/>
    <g id="Group_6698" data-name="Group 6698" transform="translate(11495.447 5242.229)">
      <rect id="Rectangle_1512" data-name="Rectangle 1512" width="45.296" height="0.354" transform="translate(-9854.97 -2180.372)" fill="#ebebeb"/>
      <rect id="Rectangle_1513" data-name="Rectangle 1513" width="11.885" height="0.354" transform="translate(-9983.867 -2176.522)" fill="#ebebeb"/>
      <rect id="Rectangle_1514" data-name="Rectangle 1514" width="26.245" height="0.354" transform="translate(-9882.582 -2193.506)" fill="#ebebeb"/>
      <rect id="Rectangle_1515" data-name="Rectangle 1515" width="59.068" height="0.354" transform="translate(-10353.222 -2191.128)" fill="#ebebeb"/>
      <rect id="Rectangle_1516" data-name="Rectangle 1516" width="8.657" height="0.354" transform="translate(-10281.971 -2191.128)" fill="#ebebeb"/>
      <rect id="Rectangle_1517" data-name="Rectangle 1517" width="128.119" height="0.354" transform="translate(-10245.167 -2185.156)" fill="#ebebeb"/>
      <path id="Path_30728" data-name="Path 30728" d="M189.447,417.783H181.98V296.83H193.7Z" transform="translate(-10358.067 -2621.083)" fill="#f0f0f0"/>
      <path id="Path_30729" data-name="Path 30729" d="M182,327.118c.465,0,.916-.085,1.368-.085a19.582,19.582,0,0,1,9.177,2.675l1.162-32.878H182Z" transform="translate(-10358.06 -2621.083)" fill="#e0e0e0"/>
      <path id="Path_30730" data-name="Path 30730" d="M167.731,417.783H160.25V296.83h11.721Z" transform="translate(-10366.056 -2621.083)" fill="#f0f0f0"/>
      <path id="Path_30731" data-name="Path 30731" d="M160.268,340.224c3.5.566,6.838-.736,10.285-2.717l1.368-40.676H160.2Z" transform="translate(-10366.075 -2621.083)" fill="#e0e0e0"/>
      <path id="Path_30732" data-name="Path 30732" d="M317.89,417.783h7.481V296.83H313.65Z" transform="translate(-10309.663 -2621.083)" fill="#f0f0f0"/>
      <path id="Path_30733" data-name="Path 30733" d="M325.367,327.118c-.465,0-.916-.085-1.368-.085a19.581,19.581,0,0,0-9.177,2.675L313.66,296.83h11.721Z" transform="translate(-10309.658 -2621.083)" fill="#e0e0e0"/>
      <path id="Path_30734" data-name="Path 30734" d="M339.633,417.783H347.1V296.83H335.38Z" transform="translate(-10301.674 -2621.083)" fill="#f0f0f0"/>
      <path id="Path_30735" data-name="Path 30735" d="M347.151,340.224c-3.5.566-6.838-.736-10.284-2.717L335.43,296.83h11.72Z" transform="translate(-10301.656 -2621.083)" fill="#e0e0e0"/>
      <path id="Path_30736" data-name="Path 30736" d="M414.264,280.13c21.745,8.365,27.681,44.285,0,48.857-10.38,1.727-19.913-13.177-31.113-13.177s-19.9,13.177-31.1,13.177-19.913-13.177-31.1-13.177-19.913,13.177-31.113,13.177-19.9-13.177-31.1-13.177-19.913,13.177-31.1,13.177-19.913-13.177-31.113-13.177-20.719,14.9-31.1,13.177c-27.681-4.572-23.578-41.37,0-48.857Z" transform="translate(-10371.231 -2628.018)" fill="#f0f0f0"/>
      <path id="Path_30737" data-name="Path 30737" d="M298.544,248.977V232.884a2.228,2.228,0,0,0-2.175-2.265h-2.12a2.228,2.228,0,0,0-2.175,2.265v16.092l-2.735,4.812a16.925,16.925,0,0,0-2.27,8.492v36.006a2.9,2.9,0,0,0,2.845,2.944h10.941a2.9,2.9,0,0,0,2.845-2.944V262.295a16.938,16.938,0,0,0-2.284-8.492Z" transform="translate(-10319.435 -2648.58)" fill="#e0e0e0"/>
      <path id="Path_30738" data-name="Path 30738" d="M291.451,269.725c0,12.738.233,23.155-.615,23.155s-1.545-10.374-1.545-23.155,1.614-23.155,2.462-23.155S291.451,256.93,291.451,269.725Z" transform="translate(-10318.618 -2641.956)" fill="#f5f5f5"/>
      <path id="Path_30739" data-name="Path 30739" d="M292.821,240.392c0,4.5-.438,8.152-.985,8.152s-.137-3.651-.137-8.152.438-8.152.985-8.152S292.821,235.934,292.821,240.392Z" transform="translate(-10317.786 -2647.908)" fill="#f5f5f5"/>
      <path id="Path_30740" data-name="Path 30740" d="M230.526,252.562V238.3a1.963,1.963,0,0,0-1.928-2h-1.874a1.963,1.963,0,0,0-1.928,2v14.266l-2.475,4.246a15.124,15.124,0,0,0-2.01,7.544v31.915a2.561,2.561,0,0,0,2.516,2.6H232.5a2.473,2.473,0,0,0,1.788-.758,2.651,2.651,0,0,0,.742-1.846v-31.9A14.993,14.993,0,0,0,233,256.822Z" transform="translate(-10343.977 -2646.222)" fill="#e0e0e0"/>
      <path id="Path_30741" data-name="Path 30741" d="M224.215,270.952c0,11.323.205,20.522-.547,20.522s-1.368-9.185-1.368-20.522,1.368-20.522,2.175-20.522S224.215,259.615,224.215,270.952Z" transform="translate(-10343.245 -2640.353)" fill="#f5f5f5"/>
      <path id="Path_30742" data-name="Path 30742" d="M225.434,244.992c0,3.991-.383,7.218-.875,7.218s-.123-3.227-.123-7.218.4-7.232.875-7.232S225.434,241,225.434,244.992Z" transform="translate(-10342.509 -2645.615)" fill="#f5f5f5"/>
      <path id="Path_30743" data-name="Path 30743" d="M216.123,245.31V227.335a2.477,2.477,0,0,0-2.434-2.505h-2.366a2.477,2.477,0,0,0-2.434,2.505V245.31l-3.1,5.364a18.887,18.887,0,0,0-2.544,9.5v40.2a3.23,3.23,0,0,0,3.173,3.284H218.6a3.23,3.23,0,0,0,3.173-3.284v-40.2a18.885,18.885,0,0,0-2.544-9.5Z" transform="translate(-10350.252 -2650.985)" fill="#e0e0e0"/>
      <path id="Path_30744" data-name="Path 30744" d="M208.163,268.474c0,14.266.274,25.83-.684,25.83s-1.71-11.563-1.71-25.83,1.792-25.844,2.735-25.844S208.163,254.193,208.163,268.474Z" transform="translate(-10349.323 -2643.593)" fill="#f5f5f5"/>
      <path id="Path_30745" data-name="Path 30745" d="M209.714,235.761c0,5.038-.492,9.115-1.108,9.115s-.15-4.076-.15-9.115.492-9.1,1.094-9.1S209.714,230.736,209.714,235.761Z" transform="translate(-10348.396 -2650.225)" fill="#f5f5f5"/>
      <path id="Path_30746" data-name="Path 30746" d="M312.97,286.156V272.441a2.926,2.926,0,0,1,1.915-2.831,11.439,11.439,0,0,0,7.4-10.969,12.039,12.039,0,0,0-2.735-7.742H304.026a12.039,12.039,0,0,0-2.735,7.742,11.438,11.438,0,0,0,7.4,10.969,2.926,2.926,0,0,1,1.915,2.831v13.714A2.959,2.959,0,0,1,308.2,289.1c-2.393.41-4.021,1.217-4.021,2.137,0,1.33,3.419,1.585,7.618,1.585s7.631-.255,7.631-1.585c0-.92-1.627-1.727-4.021-2.137A2.957,2.957,0,0,1,312.97,286.156Z" transform="translate(-10314.207 -2640.158)" fill="#f5f5f5"/>
      <path id="Path_30747" data-name="Path 30747" d="M302.913,255.69a7.856,7.856,0,0,0-.082.977,9.164,9.164,0,0,0,5.936,8.86,5,5,0,0,1,2.5,1.925A4.9,4.9,0,0,1,313.7,265.6a9.164,9.164,0,0,0,5.935-8.86,7.84,7.84,0,0,0-.082-.977Z" transform="translate(-10313.642 -2638.168)" fill="#e0e0e0"/>
      <path id="Path_30748" data-name="Path 30748" d="M195.44,286.156V272.441a2.926,2.926,0,0,1,1.915-2.831,11.438,11.438,0,0,0,7.4-10.969,12.038,12.038,0,0,0-2.735-7.742H186.5a12.039,12.039,0,0,0-2.735,7.742,11.438,11.438,0,0,0,7.4,10.969,2.926,2.926,0,0,1,1.915,2.831v13.714a2.959,2.959,0,0,1-2.407,2.944c-2.393.41-4.021,1.217-4.021,2.137,0,1.33,3.419,1.585,7.618,1.585s7.631-.255,7.631-1.585c0-.92-1.627-1.727-4.021-2.137A2.957,2.957,0,0,1,195.44,286.156Z" transform="translate(-10357.413 -2640.158)" fill="#ebebeb"/>
      <path id="Path_30753" data-name="Path 30753" d="M112.308,410.016h-4.787L103.61,315.53H109.7Z" transform="translate(-10386.878 -2613.316)" fill="#e0e0e0"/>
      <path id="Path_30754" data-name="Path 30754" d="M136.031,410.016h-4.787L126.02,315.53h6.086Z" transform="translate(-10378.64 -2613.316)" fill="#e0e0e0"/>
      <path id="Path_30759" data-name="Path 30759" d="M390.03,410.016h4.787l3.911-94.486h-6.086Z" transform="translate(-10281.584 -2613.316)" fill="#e0e0e0"/>
      <rect id="Rectangle_1521" data-name="Rectangle 1521" width="53.488" height="7.204" transform="translate(-9872.202 -2294.191) rotate(180)" fill="#ebebeb"/>
      <path id="Path_30761" data-name="Path 30761" d="M147.74,147s17.136-24.06,40.359-24.06S226.283,147,226.283,147V275.6H147.74Z" transform="translate(-10370.655 -2693.302)" fill="#f5f5f5"/>
      <path id="Path_30762" data-name="Path 30762" d="M223.71,146.948c-10.025-13.983-23.181-21.668-37.172-21.668s-27.147,7.685-37.158,21.668V272.19h74.33Zm-2.366,121.887H151.6V148.378c9.491-12.738,21.882-19.814,34.847-19.814s25.369,7.077,34.847,19.814Z" transform="translate(-10370.052 -2692.33)" fill="#e0e0e0"/>
      <path id="Path_30763" data-name="Path 30763" d="M228.868,279.754H146.4V146.234l.6-.863c10.859-15.568,25.287-24.23,40.632-24.23s29.787,8.605,40.646,24.23l.588.863Zm-78.392-5.845h74.33V148.668C214.781,134.685,201.625,127,187.634,127s-27.147,7.685-37.158,21.669Z" transform="translate(-10371.148 -2694.049)" fill="#ebebeb"/>
      <path id="Path_30764" data-name="Path 30764" d="M201.416,269.8V211.943h21.2v-5.831h-21.2v-57.6h21.2v-1.84c-1.012-1.415-2.065-2.717-3.146-3.977H201.416V128.836a41.865,41.865,0,0,0-4.1-1.486v15.3H175.281v-15.3q-2.051.637-4.1,1.486V142.65H153.126c-1.08,1.26-2.133,2.576-3.146,3.977v1.882h21.2v57.6H150.007v5.859h21.2V269.8h4.1V211.943h22.073V269.8Zm-4.1-63.689H175.281v-57.6h22.073Z" transform="translate(-10369.832 -2691.47)" fill="#e6e6e6"/>
      <path id="Path_30765" data-name="Path 30765" d="M297.32,147s17.136-24.06,40.359-24.06S375.863,147,375.863,147V275.6H297.32Z" transform="translate(-10315.666 -2693.302)" fill="#f5f5f5"/>
      <path id="Path_30766" data-name="Path 30766" d="M373.29,146.948c-10.011-13.983-23.181-21.668-37.172-21.668s-27.147,7.685-37.158,21.668V272.19h74.33Zm-2.325,121.887h-69.68V148.378c9.478-12.738,21.814-19.814,34.833-19.814s25.369,7.077,34.847,19.814Z" transform="translate(-10315.063 -2692.33)" fill="#e0e0e0"/>
      <path id="Path_30767" data-name="Path 30767" d="M378.44,279.754H296V146.234l.588-.863c10.859-15.568,25.287-24.23,40.632-24.23s29.787,8.605,40.646,24.23l.588.863ZM300.1,273.909h74.33V148.668C364.422,134.685,351.252,127,337.261,127s-27.147,7.685-37.158,21.669Z" transform="translate(-10316.15 -2694.049)" fill="#ebebeb"/>
      <path id="Path_30768" data-name="Path 30768" d="M350.993,269.8V211.943h21.2v-5.831h-21.2v-57.6h21.2v-1.84c-1.012-1.415-2.065-2.717-3.132-3.977H350.993V128.836q-2.051-.849-4.1-1.486v15.3H324.871v-15.3q-2.052.637-4.1,1.486V142.65H302.716c-1.067,1.26-2.12,2.576-3.146,3.977v1.882h21.2v57.6h-21.2v5.859h21.2V269.8h4.1V211.943h22.06V269.8Zm-4.1-63.689H324.871v-57.6h22.06Z" transform="translate(-10314.839 -2691.47)" fill="#e6e6e6"/>
      <path id="Path_30769" data-name="Path 30769" d="M211.216,305.249s12.514,7.077,28.351-6.61h0V281.5l-29.937-.34,1.545,23.155Z" transform="translate(-10347.902 -2627.59)" fill="#f0f0f0"/>
      <ellipse id="freepik--path--inject-1" cx="265.168" cy="16.021" rx="265.168" ry="16.021" transform="translate(-10345.632 -2178.73)" fill="#f5f5f5"/>
      <path id="Path_30770" data-name="Path 30770" d="M392.34,373.772l4.445,39.714,10.216.028.889-41.624Z" transform="translate(-10280.735 -2589.908)" fill="#ffb573"/>
      <path id="Path_30771" data-name="Path 30771" d="M410.371,399.643c7.33,4.317,8.206,4.416,16.22,6.128,1.778.382,1.108,4.741-3.009,4.784-6.838.113-6.223-.142-12.035,0-4.951,0-12.131.34-16.07.453h-.055a1.763,1.763,0,0,1-1.573-1.84l.739-9.384a.777.777,0,0,1,.766-.736l12.555-.1A4.664,4.664,0,0,1,410.371,399.643Z" transform="translate(-10280.18 -2578.67)" fill="#263238"/>
      <path id="Path_30772" data-name="Path 30772" d="M405.514,400.255c1.628.325,4.541.708,5.621-.34a1.444,1.444,0,0,0,.424-1.231h0a.823.823,0,0,0-.424-.665c-1.245-.679-5.252,1.5-5.7,1.755a.243.243,0,0,0,0,.453Zm5.4-1.8a.312.312,0,0,1,.164.255.9.9,0,0,1-.274.821c-.6.58-2.27.708-4.513.34,1.586-.821,3.775-1.727,4.54-1.415Z" transform="translate(-10275.979 -2579.112)" fill="#3454d1"/>
      <path id="Path_30773" data-name="Path 30773" d="M405.653,400.979c1.2-.594,3.569-2.831,3.351-4.119,0-.3-.26-.637-.916-.708h0a1.726,1.726,0,0,0-1.368.453c-1.258,1.132-1.45,3.991-1.45,4.1a.273.273,0,0,0,.109.241h0A.266.266,0,0,0,405.653,400.979Zm2.653-4.246a.211.211,0,0,1,.219.226c.137.736-1.463,2.548-2.735,3.354a5.946,5.946,0,0,1,1.258-3.3,1.178,1.178,0,0,1,.971-.326h.246Z" transform="translate(-10275.98 -2579.836)" fill="#3454d1"/>
      <path id="Path_30774" data-name="Path 30774" d="M379.86,383.477l14.811,32.736h11.447L394,376.5Z" transform="translate(-10285.323 -2587.994)" fill="#ffb573"/>
      <path id="Path_30775" data-name="Path 30775" d="M404.463,403.094c7.331,4.331,8.206,4.416,16.22,6.142,1.778.368,1.108,4.727-3.009,4.77-6.838.113-6.223-.127-12.035-.071-4.951,0-12.117.354-16.056.453h-.164a1.749,1.749,0,0,1-1.559-1.826l.725-9.4a.8.8,0,0,1,.78-.736l12.541-.1A4.908,4.908,0,0,1,404.463,403.094Z" transform="translate(-10282.381 -2577.267)" fill="#263238"/>
      <path id="Path_30776" data-name="Path 30776" d="M399.522,403.695c1.641.326,4.541.708,5.621-.34a1.444,1.444,0,0,0,.424-1.217h0a.853.853,0,0,0-.41-.679c-1.258-.679-5.265,1.5-5.7,1.755a.243.243,0,0,0-.123.255.2.2,0,0,0,.164.2Zm5.47-1.783a.27.27,0,0,1,.15.255.88.88,0,0,1-.274.807c-.6.594-2.27.722-4.513.34,1.586-.807,3.775-1.713,4.541-1.415Z" transform="translate(-10278.166 -2577.683)" fill="#3454d1"/>
      <path id="Path_30777" data-name="Path 30777" d="M399.687,404.416c1.19-.594,3.569-2.831,3.337-4.118,0-.283-.246-.637-.916-.694h0a1.673,1.673,0,0,0-1.368.453c-1.258,1.118-1.463,3.991-1.45,4.1a.23.23,0,0,0,.1.226h.068A.2.2,0,0,0,399.687,404.416Zm2.64-4.246a.279.279,0,0,1,.232.241c.123.722-1.463,2.533-2.735,3.34a6.078,6.078,0,0,1,1.245-3.3,1.245,1.245,0,0,1,.971-.326h.246Z" transform="translate(-10278.18 -2578.405)" fill="#3454d1"/>
      <path id="Path_30778" data-name="Path 30778" d="M369.7,230.123a3.3,3.3,0,0,0,2.538-1.021,3.549,3.549,0,0,0,.977-2.631l-.793-39.006c-.109-2.463-.588-6.185-.588-6.185,5.471.92,15.044,3.708,17.7,14.578,2.735,11.323,2.106,33.515.971,44.186-.547,5.138-4.486,11.747-13.156,9.907Z" transform="translate(-10289.058 -2669.072)" fill="#3454d1"/>
      <path id="Path_30779" data-name="Path 30779" d="M396.38,194.481c-3.036,27.655-9.218,43.663-8.589,65.855l-50.411-.878c.328-40.86-5.279-33.317-5.867-55.537-.082-8.492.137-19.206,4.869-19.928l28.583-5.874,23.25,4.812A10.519,10.519,0,0,1,396.38,194.481Z" transform="translate(-10303.1 -2670.385)" fill="#3454d1"/>
      <path id="Path_30780" data-name="Path 30780" d="M396.38,194.481c-3.036,27.655-9.218,43.663-8.589,65.855l-50.411-.878c.328-40.86-5.279-33.317-5.867-55.537-.082-8.492.137-19.206,4.869-19.928l28.583-5.874,23.25,4.812A10.519,10.519,0,0,1,396.38,194.481Z" transform="translate(-10303.1 -2670.385)" opacity="0.1"/>
      <path id="Path_30781" data-name="Path 30781" d="M366.414,201.941c-9.368-.849-19.543-9.27-20.514-14.082,3.255-.481,4.1-2.831,4.787-6.878a42.778,42.778,0,0,0,.356-7.685c-.082-3.864-.465-7.614-.588-10.105l16,9.907c-.1.467-.205.977-.3,1.486a21.563,21.563,0,0,0-.068,7.784,8.206,8.206,0,0,0,6.729,7.077C375.044,192.473,373.977,198.3,366.414,201.941Z" transform="translate(-10297.807 -2676.585)" fill="#ffb573"/>
      <path id="Path_30782" data-name="Path 30782" d="M367.516,197.554a53.275,53.275,0,0,0-19.817-2.831c.766-1.6,1.545-3.524,2.3-5.123-2.38,0-4.664-.226-7.057-.226a28.021,28.021,0,0,1,2.557-9.115c1.5-2.831,3.515-5.081,6.537-5.039-.41,1.09-1.45,5.123-.4,7.289a17.98,17.98,0,0,0,4.664,5.322Z" transform="translate(-10298.895 -2671.589)" fill="#3454d1"/>
      <g id="Group_6692" data-name="Group 6692" transform="translate(-9955.954 -2496.37)" opacity="0.5">
        <path id="Path_30783" data-name="Path 30783" d="M367.516,197.554a53.275,53.275,0,0,0-19.817-2.831c.766-1.6,1.545-3.524,2.3-5.123-2.38,0-4.664-.226-7.057-.226a28.021,28.021,0,0,1,2.557-9.115c1.5-2.831,3.515-5.081,6.537-5.039-.41,1.09-1.45,5.123-.4,7.289a17.98,17.98,0,0,0,4.664,5.322Z" transform="translate(-342.94 -175.22)" fill="#fff"/>
      </g>
      <path id="Path_30784" data-name="Path 30784" d="M360.67,176.347a6.585,6.585,0,0,0,1.463,3.963c.834,1.161,1.833,2.18,2.571,3.411a9.49,9.49,0,0,1,1.019,7.388,9.146,9.146,0,0,1-4.6,5.746c-.137,0-.137.255-.082.41a69.6,69.6,0,0,1,8.835-5.18c.9-.453,1.682-.948,2.544-1.415a7.887,7.887,0,0,0-3.528-4.642c2.229-.241,4.4-.821,6.619-1.062-3.036-2.151-5.922-4.6-8.985-6.723C364.91,177.1,362.489,175.809,360.67,176.347Z" transform="translate(-10292.376 -2671.173)" fill="#3454d1"/>
      <path id="Path_30785" data-name="Path 30785" d="M360.67,176.347a6.585,6.585,0,0,0,1.463,3.963c.834,1.161,1.833,2.18,2.571,3.411a9.49,9.49,0,0,1,1.019,7.388,9.146,9.146,0,0,1-4.6,5.746c-.137,0-.137.255-.082.41a69.6,69.6,0,0,1,8.835-5.18c.9-.453,1.682-.948,2.544-1.415a7.887,7.887,0,0,0-3.528-4.642c2.229-.241,4.4-.821,6.619-1.062-3.036-2.151-5.922-4.6-8.985-6.723C364.91,177.1,362.489,175.809,360.67,176.347Z" transform="translate(-10292.376 -2671.173)" fill="#fff" opacity="0.5"/>
      <path id="Path_30786" data-name="Path 30786" d="M364.426,179.673c-6.838-1.628-11.392-7.077-14.046-10.063l14.114,2.279A21.564,21.564,0,0,0,364.426,179.673Z" transform="translate(-10296.16 -2673.919)" opacity="0.2"/>
      <path id="Path_30787" data-name="Path 30787" d="M374.144,175.111c-2.735,9.766-14.675,13.842-21.595,5.958-3.993-4.543-4.226-9.511-4.308-17.21v-3.708a14.333,14.333,0,0,1,1.149-5.916,13.023,13.023,0,0,1,1.2-2.208,12.886,12.886,0,0,1,16.124-4.685C375.921,151.588,376.633,166.336,374.144,175.111Z" transform="translate(-10296.946 -2683.651)" fill="#ffb573"/>
      <path id="Path_30788" data-name="Path 30788" d="M360.813,157.26c.506,0,.875.694.848,1.486s-.41,1.415-.971,1.415-.957-.694-.93-1.514S360.307,157.246,360.813,157.26Z" transform="translate(-10292.712 -2679.048)" fill="#263238"/>
      <path id="Path_30789" data-name="Path 30789" d="M365.626,164.6l-3.652.113c-.315.75-.67,1.415-.985,2.18a10.906,10.906,0,0,0,6.838.708,16.3,16.3,0,0,0-.656-3.128C366.72,164.513,366.078,164.583,365.626,164.6Z" transform="translate(-10292.259 -2676.054)" fill="#263238"/>
      <path id="Path_30790" data-name="Path 30790" d="M367.165,157.72c.506,0,.889.679.862,1.415s-.465,1.415-.985,1.415-.889-.679-.862-1.486S366.659,157.706,367.165,157.72Z" transform="translate(-10290.353 -2678.857)" fill="#263238"/>
      <path id="Path_30791" data-name="Path 30791" d="M364.4,166.73a4.324,4.324,0,0,0,3.679-1,28.814,28.814,0,0,1-4.1-6.6Z" transform="translate(-10291.16 -2678.271)" fill="#ed893e"/>
      <path id="Path_30792" data-name="Path 30792" d="M364.574,167.863h-.137l-.383-.184a5.686,5.686,0,0,0-4.636-.1.343.343,0,0,1-.451-.2.363.363,0,0,1,.191-.467,6.415,6.415,0,0,1,5.183.113l.383.184a.359.359,0,0,1,.164.467A.326.326,0,0,1,364.574,167.863Z" transform="translate(-10293.013 -2675.243)" fill="#263238"/>
      <path id="Path_30793" data-name="Path 30793" d="M359.363,156.765a3.669,3.669,0,0,1,3.009-1.415h0a.211.211,0,0,0,.137,0,.474.474,0,0,0-.014-.948,4.5,4.5,0,0,0-3.788,1.769.479.479,0,0,0,0,.665.4.4,0,0,0,.205.1.457.457,0,0,0,.451-.17Z" transform="translate(-10293.148 -2680.238)" fill="#263238"/>
      <path id="Path_30794" data-name="Path 30794" d="M369.311,157.7h0a.491.491,0,0,0,.15-.651,4.429,4.429,0,0,0-3.446-2.378h0a.429.429,0,0,0-.322.117.46.46,0,0,0-.143.321h0a.445.445,0,0,0,.438.453,3.639,3.639,0,0,1,2.735,1.925.428.428,0,0,0,.271.229.412.412,0,0,0,.345-.059Z" transform="translate(-10290.582 -2680.124)" fill="#263238"/>
      <path id="Path_30795" data-name="Path 30795" d="M370.756,143.207a6.246,6.246,0,0,1,5.347,2.505c.191.255-1.231,7.416-2.735,7.572a21.8,21.8,0,0,1-10.3-1.415,6.742,6.742,0,0,0-1.874-.467c-.643,0-3.857,3.071-4.472,4.472a17.453,17.453,0,0,0-1.135,4.43,4.186,4.186,0,0,1-.383,1.415c-.219.41-.342.793-.793.764a7.655,7.655,0,0,0-.465,4.331,23.958,23.958,0,0,0,1.231,4.246l1.094,2.972c-.479,0-6.182-2.463-8.206-3.156a21.863,21.863,0,0,1-3.8-13.318c0-1.33.123-5.534.752-6.709a4,4,0,0,1,3.022-2.236c-.821-3.411,1.956-4.246,5.115-5.52s6.715-.863,10.052-.212a31.225,31.225,0,0,0,7.549.326Z" transform="translate(-10298.416 -2685.276)" fill="#263238"/>
      <path id="Path_30796" data-name="Path 30796" d="M348.958,158.207c3.091.382,4.609,4.628,4.677,7.43.1,3.114-2.147,5.449-4.9,3.793a9.2,9.2,0,0,1-4.1-5.661,4.364,4.364,0,0,1,.7-4A4.039,4.039,0,0,1,348.958,158.207Z" transform="translate(-10298.35 -2678.665)" fill="#ffb573"/>
      <path id="Path_30797" data-name="Path 30797" d="M345.4,191.8c.082-12.186-15.864-12.214-17.779-.92v.326c-1.764,11.549,1.969,39.445,4.1,49.961a9.1,9.1,0,0,0,10.654,7.346l31.811-6.369-1.682-15.724-20.952,2.9a3.313,3.313,0,0,1-2.617-.787,3.555,3.555,0,0,1-1.213-2.525Z" transform="translate(-10304.694 -2668.552)" fill="#3454d1"/>
      <path id="Path_30798" data-name="Path 30798" d="M358.534,226.973l8.11-2.151a4.617,4.617,0,0,1,2.243,0l7.413,1.741a4.645,4.645,0,0,0,4.458-1.415l3.747-3.963a5.075,5.075,0,0,0-.191-7.077l-1.2-1.146a4.65,4.65,0,0,0-5.881-.467h0a4.571,4.571,0,0,1-3.036.807h-.451a4.729,4.729,0,0,0-4.773,2.958l-.479,1.118-11.461,1.415Z" transform="translate(-10293.715 -2656.455)" fill="#ffb573"/>
      <path id="Path_30799" data-name="Path 30799" d="M363.74,217.09l-8.288-1.146a4.709,4.709,0,0,1-2.092-.849l-6.25-4.487a4.663,4.663,0,0,0-4.636-.467l-4.91,2.208a4.915,4.915,0,0,0-2.576,2.827,5.141,5.141,0,0,0,.169,3.882l.711,1.529a4.716,4.716,0,0,0,5.279,2.7h0a4.55,4.55,0,0,1,3.1.439l.4.2a4.666,4.666,0,0,0,5.47-.892l.848-.849,11.16,3.1Z" transform="translate(-10301.929 -2657.257)" fill="#ffb573"/>
      <path id="Path_30800" data-name="Path 30800" d="M359.736,215.34l-8.356-1.84-2.27,11.181,8.069,2.194Z" transform="translate(-10296.626 -2655.691)" fill="#263238"/>
      <g id="Group_6693" data-name="Group 6693" transform="translate(-9947.517 -2442.191)" opacity="0.7">
        <path id="Path_30801" data-name="Path 30801" d="M359.736,215.34l-8.356-1.84-2.27,11.181,8.069,2.194Z" transform="translate(-349.11 -213.5)" fill="#fff"/>
      </g>
      <path id="Path_30802" data-name="Path 30802" d="M395.547,230.581a9.075,9.075,0,0,1-11.133,6.525l-31.3-8.648,2.735-15.568,20.719,4.4C396.97,220.122,395.547,230.581,395.547,230.581Z" transform="translate(-10295.157 -2655.944)" fill="#3454d1"/>
      <path id="Path_30803" data-name="Path 30803" d="M430.89,364.364l-5.47,93.835-20.514-.807s0-14.875-.574-35.723c-.492-16.984-6.838-40.322-3.064-58.254-19.885-36.8-45.638-66.661-49.8-77.319-8.589-22.051-1.258-50.173-1.258-50.173l32.016-.594h0a159.59,159.59,0,0,0,13.9,45.177l30.908,64.482a40.367,40.367,0,0,1,3.857,19.376Z" transform="translate(-10297.292 -2646.624)" fill="#263238"/>
      <path id="Path_30804" data-name="Path 30804" d="M384.254,328.1,356.56,264.85h16.712Z" transform="translate(-10293.888 -2634.364)" opacity="0.2"/>
      <path id="Path_30805" data-name="Path 30805" d="M337.329,235.686s-9.505,24.6-3.939,47.654c2.735,11.464,42.082,99.426,42.082,99.426s2.325,24.06,15.755,52.041l13.389,25.929L420.7,460.1l-19.735-89.929-19.6-64.553c-5.949-23.041-10.667-46.422-11.488-70.256h0Z" transform="translate(-10303.049 -2646.612)" fill="#263238"/>
      <path id="Path_30806" data-name="Path 30806" d="M278.269,201.839c-7.973-6.4-12.842-.51-20.966-5.223-3.939-2.279-6.414-1.33-3.5-4.656v-.085a39.663,39.663,0,0,0,5.347-9.426,28.119,28.119,0,0,0,1.71-13.247,11.308,11.308,0,0,1,1.723-6.992h0c4.445.807,10.134,0,12.131,4.246a53.117,53.117,0,0,1,2.475,14.889l-2.462-1.868c1.245,3.227,2.448,5.449,3.419,7.473C279.76,190.134,278.5,196.39,278.269,201.839Z" transform="translate(-10332.132 -2676.992)" fill="#263238"/>
      <path id="Path_30807" data-name="Path 30807" d="M251.214,201.954c3.638-3.736,2.735-21.074,2.735-21.074l10.161,7.586s.328,10.714,2.735,12.851c.574.51,1.436.127,2.133.184l-.711,2.7-2.024,3.326-2.735,1.882-3.925-.127-3.487-1.146-3.952-3.029-3.214-2.831C249.7,202.181,250.681,202.492,251.214,201.954Z" transform="translate(-10333.455 -2669.238)" fill="#eec8c0"/>
      <path id="Path_30808" data-name="Path 30808" d="M263.46,191.436c-6.838-1-9.82-4.755-11.16-7.685l.369-2.831,10.161,7.586Z" transform="translate(-10332.217 -2669.222)" opacity="0.1"/>
      <path id="Path_30809" data-name="Path 30809" d="M276.172,184.317v.184a15.059,15.059,0,0,1-.068,1.769,15.488,15.488,0,0,1-.219,1.628,10.988,10.988,0,0,1-11.926,8.888h-.1a12.528,12.528,0,0,1-6.4-2.576,16.854,16.854,0,0,1-2.489-2.25,13.5,13.5,0,0,1-1.231-1.613l-.219-.34c-.246-.41-.465-.807-.67-1.231-.109-.212-.205-.439-.3-.665a.481.481,0,0,1,0-.085l-.191-.481a45.226,45.226,0,0,1-1.778-6.383,2.754,2.754,0,0,0-.15-.623V180.3c-.191-.877-.383-1.812-.6-2.831a12.787,12.787,0,0,1,2.992-11.557,11.812,11.812,0,0,1,11.012-3.644l.547.113c4.171.977,7.112,4.246,9.026,8.35a11.992,11.992,0,0,1,.533,1.231c.068.142.123.283.178.425a32.106,32.106,0,0,1,1.368,4.8,2.7,2.7,0,0,1,0,.325,25.447,25.447,0,0,1,.479,3.312,27.994,27.994,0,0,1,.205,3.5Z" transform="translate(-10333.248 -2677.063)" fill="#eec8c0"/>
      <path id="Path_30810" data-name="Path 30810" d="M266.126,172.927c.109.736-.178,1.415-.629,1.415s-.944-.453-1.067-1.2a1.445,1.445,0,0,1,.451-1.415h.068l1.559-.764s-.315.75-.834.934a1.7,1.7,0,0,1,.451,1.033Z" transform="translate(-10327.771 -2673.358)" fill="#263238"/>
      <path id="Path_30811" data-name="Path 30811" d="M264,173.55a19.484,19.484,0,0,0,4.007,3.567,3.158,3.158,0,0,1-2.257,1.415Z" transform="translate(-10327.915 -2672.282)" fill="#ed893e"/>
      <path id="Path_30812" data-name="Path 30812" d="M257.712,173.353a.426.426,0,0,0,.4-.311,5.123,5.123,0,0,1,3.022-2.788.456.456,0,0,0,.287-.552.422.422,0,0,0-.52-.3h0a5.816,5.816,0,0,0-3.583,3.312.438.438,0,0,0,.027.329.414.414,0,0,0,.246.209h0Z" transform="translate(-10330.38 -2674.011)" fill="#263238"/>
      <path id="Path_30813" data-name="Path 30813" d="M268.423,169.5a.409.409,0,0,0,.369-.227.452.452,0,0,0,.049-.337.437.437,0,0,0-.2-.271,3.983,3.983,0,0,0-3.9-.283.431.431,0,0,0-.205.552h0a.418.418,0,0,0,.561.2h0a3.253,3.253,0,0,1,3.05.269.5.5,0,0,0,.274.1Z" transform="translate(-10327.729 -2674.587)" fill="#263238"/>
      <path id="Path_30814" data-name="Path 30814" d="M260.234,173.964c.123.736-.178,1.415-.629,1.486s-.93-.467-1.067-1.217.205-1.415.656-1.486h.1l1.368-.637a1.984,1.984,0,0,1-.821.906A1.613,1.613,0,0,1,260.234,173.964Z" transform="translate(-10329.935 -2672.881)" fill="#263238"/>
      <path id="Path_30815" data-name="Path 30815" d="M246.484,223.07l-5.689,14.04c-1.655,4.119.137,10.261,1.915,14.549,4.034,9.667,10.284,24.924,10.284,24.924-1.121,3.51-6.975,2.675-6.975,2.675s-10.558-16.828-14.962-33.317c-2.927-10.926,4.472-35.5,10.941-44.568,1.969-2.76,8.315-7.3,8.315-7.3l-1.245,30.543Z" transform="translate(-10340.267 -2663.76)" fill="#eec8c0"/>
      <path id="Path_30816" data-name="Path 30816" d="M246.008,251.046l4.322,2.9a1.154,1.154,0,0,1,.369.368l3.624,5.364a1.454,1.454,0,0,1,.232.977l-.3,2.349a1.149,1.149,0,0,1-.574.906l-6.086,3.383a1.18,1.18,0,0,1-.94.041,1.235,1.235,0,0,1-.688-.664l-3.556-7.4a2.016,2.016,0,0,1-.137-.467l-.6-5.251a1.258,1.258,0,0,1,.615-1.26l2.571-1.246a1.129,1.129,0,0,1,1.149,0Z" transform="translate(-10336.128 -2640.163)" fill="#eec8c0"/>
      <path id="Path_30817" data-name="Path 30817" d="M281.367,273.559,243.238,265.6s5.785-9.907-2.257-46.988c-3.679-16.984,2.94-25.985,15.769-27.117.6-.071,1.19-.1,1.805-.127,5.2-.184,11.8,4.133,15.878,7.36h.068c1.272,1.415,2.489,2.93,3.939,4.557,11.926,13.4,1.368,24.641,2.407,57.533v.877a70.737,70.737,0,0,0,.52,11.86Z" transform="translate(-10336.748 -2664.884)" fill="#eec8c0"/>
      <path id="Path_30818" data-name="Path 30818" d="M261.24,157.723a8.684,8.684,0,0,0-7.467.934,16.724,16.724,0,0,0-5.375,5.661A30.581,30.581,0,0,0,244.637,183c.93,5.8,5.129,14.663,11.584,15.3-3.528-12.865,2.735-29.014,5.99-40.521C261.9,157.892,261.623,157.652,261.24,157.723Z" transform="translate(-10335.11 -2679.044)" fill="#263238"/>
      <path id="Path_30819" data-name="Path 30819" d="M248.869,179.489a6.44,6.44,0,0,0,3.761,3.184c2.147.637,3.241-1.415,2.667-3.482-.533-1.9-2.284-4.529-4.458-4.246a2.958,2.958,0,0,0-2.421,3.368,3.119,3.119,0,0,0,.451,1.175Z" transform="translate(-10333.654 -2671.711)" fill="#eec8c0"/>
      <path id="Path_30820" data-name="Path 30820" d="M260.545,157.593c7.4,1.826,13.5,4.968,15.386,15.993-1.846-.354-3.378.425-5.375,1.826a16.571,16.571,0,0,0-7.221-7.487c-.848,2.349-1.7,4.685-2.53,7.077-.465,1.26-1.094,4.147-1.094,4.147a45.567,45.567,0,0,0-5.99.5s-1.709-9.27.492-15.568c.944-2.675,2.092-5.491,4.445-6.935Z" transform="translate(-10331.927 -2679.098)" fill="#263238"/>
      <path id="Path_30821" data-name="Path 30821" d="M279.786,261.338v.849h0c-10.531,4.84-30.17-1.118-36.926-3.17v-4.005c2.872-1.415,6.715-2.434,8.575-3.383a39.843,39.843,0,0,0,16.576-15.71c5.388-9.468,8.383-22.39,5.347-32.934-1.368-4.713-6.373-7.7-10.531-9.3-1.477-.594-6.578-1.076-7.153-1.741h0c0-.4,0-1.84.52-1.713,10.011,2.236,13.813,5.208,17.246,9,1.272,1.415,5.949,7.841,7.4,9.468C292.765,222.134,278.8,228.446,279.786,261.338Z" transform="translate(-10335.687 -2665.357)" fill="#263238"/>
      <path id="Path_30822" data-name="Path 30822" d="M279.786,261.338v.849h0c-10.531,4.84-30.17-1.118-36.926-3.17v-4.005c2.872-1.415,6.715-2.434,8.575-3.383a39.843,39.843,0,0,0,16.576-15.71c5.388-9.468,8.383-22.39,5.347-32.934-1.368-4.713-6.373-7.7-10.531-9.3-1.477-.594-6.578-1.076-7.153-1.741h0c0-.4,0-1.84.52-1.713,10.011,2.236,13.813,5.208,17.246,9,1.272,1.415,5.949,7.841,7.4,9.468C292.765,222.134,278.8,228.446,279.786,261.338Z" transform="translate(-10335.687 -2665.357)" fill="#fff" opacity="0.3"/>
      <path id="Path_30823" data-name="Path 30823" d="M271.534,298.855s-1.545,5.039-3.952,12.738a.887.887,0,0,0,0,.156c-1.723,5.449-3.843,12.228-6.154,19.446-4.458,13.941-6.838,24.91-10.845,36.006-4.623,12.922-31.592,61.694-38.676,73.6-1.518,2.548-2.927,5.152-4.253,7.827l-1.368,2.831-6.975-4.869,1.586-3.85h0c.711-1.953,24.617-66.76,29.281-84.608,6.209-24.06,9.478-63.986,17.314-89.972.725-2.434,1.518-4.77,2.352-7.077,0,0,24.015,20.819,25.383,22.56S271.534,298.855,271.534,298.855Z" transform="translate(-10351.696 -2635.93)" fill="#eec8c0"/>
      <path id="Path_30824" data-name="Path 30824" d="M228.71,297.764s6.264,8.633,26.764,8.817l1.71-5.463,1.286-8.591.684-3.2S241.278,270.9,228.71,297.764Z" transform="translate(-10340.889 -2626.758)" opacity="0.1"/>
      <path id="Path_30825" data-name="Path 30825" d="M209.89,396.053l-8.52-5.223c-2.434,3.326-6.756,8.336-6.756,8.336a1.728,1.728,0,0,0,.109,2.208,1.028,1.028,0,0,0,.246.184c3.282,1.981,6.277,3.581,10.339,6.128,4.787,2.986,3.255,2.831,8.835,6.482,3.364,2.18,6.113-1.812,4.787-2.916C212.8,406.2,209.944,398.147,209.89,396.053Z" transform="translate(-10353.551 -2582.043)" fill="#263238"/>
      <path id="Path_30826" data-name="Path 30826" d="M283.554,288.992c-.9,19.234-1.368,57.207-3.337,76.427-2.284,22.164-13.225,99.836-13.225,99.836l-8.944-.92s-3.884-61.382.4-92.831c1.368-9.836-2.216-36.43-3.693-52.268a.454.454,0,0,1,0-.2c-1.272-13.445-2.448-24.244-2.448-24.244s-9.218-3.623-14.688-11.719a21.917,21.917,0,0,1-3.446-7.473,20.449,20.449,0,0,1-.574-3.736c-.971-15.384,11.338-28.306,11.338-28.306l37.911,8.081S284.005,279.452,283.554,288.992Z" transform="translate(-10339.112 -2643.206)" fill="#eec8c0"/>
      <path id="Path_30827" data-name="Path 30827" d="M248.22,293.058l1.368,11.9c-1.039,2.42,20.678,2.548,27.817-5.52v-.75l-.752-13.021Z" transform="translate(-10333.716 -2625.717)" opacity="0.1"/>
      <path id="Path_30828" data-name="Path 30828" d="M288.58,318.289s-25.711-2.024-38.444-.849c-24.139,2.236-28.146-8.053-28.146-8.053s10.449-1.783,13.84-39.19c.807-8.987,7.59-18.088,11.269-22.433a23.359,23.359,0,0,0,3.323-9.044l36.926,2.293.246,9.638s1.368,14.45,1.491,18.116C289.551,282.1,288.58,318.289,288.58,318.289Z" transform="translate(-10343.358 -2645.217)" fill="#263238"/>
      <path id="Path_30829" data-name="Path 30829" d="M288.58,318.289s-25.711-2.024-38.444-.849c-24.139,2.236-28.146-8.053-28.146-8.053s10.449-1.783,13.84-39.19c.807-8.987,7.59-18.088,11.269-22.433a23.359,23.359,0,0,0,3.323-9.044l36.926,2.293.246,9.638s1.368,14.45,1.491,18.116C289.551,282.1,288.58,318.289,288.58,318.289Z" transform="translate(-10343.358 -2645.217)" fill="#fff" opacity="0.3"/>
      <path id="Path_30830" data-name="Path 30830" d="M262.189,398.75H251.631c-.274,0-.479-.566-.588.962a46.312,46.312,0,0,1-1.9,10.671l-.082.241a1.95,1.95,0,0,0,1.19,2.194.78.78,0,0,0,.315,0c4.021,0,7.59-.226,12.61-.141,5.922.1,4.445.934,11.392,1.175,4.2.127,4.8-5.661,3.022-5.973C269.423,406.591,263.078,398.722,262.189,398.75Z" transform="translate(-10333.421 -2578.796)" fill="#263238"/>
      <path id="Path_30831" data-name="Path 30831" d="M259.825,198c-3.843-4.7-4.007,28.646,10.49,40.634C279.2,246,279.368,221.879,259.825,198Z" transform="translate(-10330.264 -2662.314)" opacity="0.1"/>
      <path id="Path_30832" data-name="Path 30832" d="M255.9,201.384q.447,3.186,1.2,6.312c10.859,34.067,27.352,26.325,30.662,22.532,2.475-5.845,2.065-31.321-.52-41.228l-4.363,2.6c-1.45,3.312-1.532,32.071-4.1,26.481,0,0-7.9-10.671-8.63-13.842h0a11.659,11.659,0,0,0-10.3-9.185,5.752,5.752,0,0,0-3.952,6.326Z" transform="translate(-10330.912 -2665.866)" fill="#eec8c0"/>
      <path id="Path_30833" data-name="Path 30833" d="M278.568,194.672c-4.294-1.076-6.838-5.774-6.838-5.774l8.616-6.227,1,8.987Z" transform="translate(-10325.074 -2668.495)" fill="#eec8c0"/>
      <path id="Path_30834" data-name="Path 30834" d="M281.383,184.391l-8.616,6.227-3.6-9.936,7.426-2.123Z" transform="translate(-10326.015 -2670.202)" fill="#eec8c0"/>
      <path id="Path_30835" data-name="Path 30835" d="M263.911,180.451c.137.75.643,1.274,1.108,1.189s.739-.793.6-1.529-.643-1.274-1.108-1.189S263.76,179.7,263.911,180.451Z" transform="translate(-10327.963 -2670.055)" fill="#263238"/>
      <path id="Path_30836" data-name="Path 30836" d="M291.848,431.893h0a3.421,3.421,0,0,1-3.446-2.618L270.91,359.74h22.005l4.24,66.52a5.574,5.574,0,0,1-5.306,5.633Z" transform="translate(-10325.374 -2594.955)" fill="#263238"/>
      <path id="Path_30837" data-name="Path 30837" d="M349.108,431.893h0a3.408,3.408,0,0,1-3.446-2.618L328.17,359.74h21.991l4.253,66.52a5.574,5.574,0,0,1-5.306,5.633Z" transform="translate(-10304.324 -2594.955)" fill="#263238"/>
      <path id="Path_30838" data-name="Path 30838" d="M349.108,431.893h0a3.408,3.408,0,0,1-3.446-2.618L328.17,359.74h21.991l4.253,66.52a5.574,5.574,0,0,1-5.306,5.633Z" transform="translate(-10304.324 -2594.955)" fill="#fff" opacity="0.2"/>
      <path id="Path_30839" data-name="Path 30839" d="M241.826,431.893h0a3.407,3.407,0,0,0,3.446-2.618l17.492-69.534H240.773l-4.253,66.52a5.574,5.574,0,0,0,5.306,5.633Z" transform="translate(-10338.018 -2594.955)" fill="#263238"/>
      <path id="Path_30840" data-name="Path 30840" d="M241.826,431.893h0a3.407,3.407,0,0,0,3.446-2.618l17.492-69.534H240.773l-4.253,66.52a5.574,5.574,0,0,0,5.306,5.633Z" transform="translate(-10338.018 -2594.955)" fill="#fff" opacity="0.2"/>
      <path id="Path_30841" data-name="Path 30841" d="M184.576,431.893h0a3.421,3.421,0,0,0,3.446-2.618l17.492-69.535H183.51l-4.24,66.52a5.574,5.574,0,0,0,5.306,5.633Z" transform="translate(-10359.063 -2594.955)" fill="#263238"/>
      <path id="Path_30842" data-name="Path 30842" d="M398.593,289.865l-10.708,99.78c-.725,7.006-7.426,12.412-15.55,12.667H236.6c-9.573,0-16.972-6.992-16.152-15.1l10.708-99.78c.739-7.176,7.754-12.738,16.152-12.738H382.442a4.89,4.89,0,0,1,.643,0C392.289,275.132,399.4,281.925,398.593,289.865Z" transform="translate(-10343.949 -2630.281)" fill="#3454d1"/>
      <path id="Path_30843" data-name="Path 30843" d="M398.593,289.865l-10.708,99.78c-.725,7.006-7.426,12.412-15.55,12.667H236.6c-9.573,0-16.972-6.992-16.152-15.1l10.708-99.78c.739-7.176,7.754-12.738,16.152-12.738H382.442a4.89,4.89,0,0,1,.643,0C392.289,275.132,399.4,281.925,398.593,289.865Z" transform="translate(-10343.949 -2630.281)" fill="#fff" opacity="0.5"/>
      <path id="Path_30844" data-name="Path 30844" d="M367.368,289.837l-10.708,99.78c-.725,7.006-7.426,12.412-15.55,12.667-9.2-.3-16.329-7.147-15.523-15.087l10.722-99.78c.711-7.006,7.412-12.426,15.55-12.667C361.063,275.1,368.175,281.9,367.368,289.837Z" transform="translate(-10305.297 -2630.252)" fill="#3454d1"/>
      <path id="Path_30845" data-name="Path 30845" d="M367.368,289.837l-10.708,99.78c-.725,7.006-7.426,12.412-15.55,12.667-9.2-.3-16.329-7.147-15.523-15.087l10.722-99.78c.711-7.006,7.412-12.426,15.55-12.667C361.063,275.1,368.175,281.9,367.368,289.837Z" transform="translate(-10305.297 -2630.252)" fill="#fff" opacity="0.3"/>
      <rect id="Rectangle_1523" data-name="Rectangle 1523" width="128.31" height="46.776" rx="12.51" transform="translate(-10076.21 -2255.072)" fill="#3454d1"/>
      <rect id="Rectangle_1524" data-name="Rectangle 1524" width="128.31" height="46.776" rx="12.51" transform="translate(-10076.21 -2255.072)" fill="#fff" opacity="0.3"/>
      <rect id="Rectangle_1525" data-name="Rectangle 1525" width="179.979" height="46.776" rx="12.25" transform="translate(-10188.807 -2255.072)" fill="#3454d1"/>
      <rect id="Rectangle_1526" data-name="Rectangle 1526" width="179.979" height="46.776" rx="12.25" transform="translate(-10188.807 -2255.072)" fill="#fff" opacity="0.6"/>
      <path id="Path_30846" data-name="Path 30846" d="M218.972,381.62,206.9,405.4,199.47,400.1l7.413-23.664Z" transform="translate(-10351.638 -2588.019)" fill="#7f3e3b"/>
      <path id="Path_30847" data-name="Path 30847" d="M316.493,309.6a79.5,79.5,0,0,1-22.99-3.538h0a22.908,22.908,0,0,1-6.688,15.059l-1.586,1.585s-47.115-11.86-53.57,3.468c-5.471,13.077-31.209,88.981-31.209,88.981l15.714,7.077s22.99-33.345,33.548-60.179c.574-1.415,2.516-8.959,2.516-8.959a134.282,134.282,0,0,0,61.228,11.521c4.65-.226,9.314-3.284,8.206-18.994A344.912,344.912,0,0,0,316.493,309.6Z" transform="translate(-10351.277 -2617.249)" fill="#3454d1"/>
      <path id="Path_30848" data-name="Path 30848" d="M277.548,351.011c-13.17-6.341-31.319-23.367-39.729-29.722a18.505,18.505,0,0,0-6.578-3.3c7.426-1.514,16.89-1.245,25.027-.481l19.147,9.2,30.8,14.889,3.638,11.407c-1.45,6.1-5.17,6.921-8.507,7.077a139.031,139.031,0,0,1-38.567-3.821C264.337,356.488,290.28,357.2,277.548,351.011Z" transform="translate(-10339.958 -2612.749)" opacity="0.2"/>
      <path id="Path_30849" data-name="Path 30849" d="M203.287,351.471l-16.931,17.069-6.346-5.392,13.143-19.687Z" transform="translate(-10358.791 -2601.716)" fill="#7f3e3b"/>
      <path id="Path_30850" data-name="Path 30850" d="M185.932,357.014l7.385,6.072a.927.927,0,0,1,.232,1.1l-3.939,8.393a1.455,1.455,0,0,1-.821.772,1.392,1.392,0,0,1-1.107-.064l-.274-.156c-3.009-2.576-5.594-4.982-9.409-8.11-4.5-3.68-3.788-2.194-9.122-6.454-3.214-2.576-.93-6.793.561-5.874,6.838,4.246,10.025,3.765,14.155,3.439A3.4,3.4,0,0,1,185.932,357.014Z" transform="translate(-10363.483 -2597.933)" fill="#3454d1"/>
      <path id="Path_30851" data-name="Path 30851" d="M179.627,356.674a.173.173,0,0,0,.191,0,.219.219,0,0,0,0-.226c-.15-.368-1.586-3.722-2.667-3.935a.629.629,0,0,0-.574.2h0a1.142,1.142,0,0,0-.315.962c.164,1.189,2.134,2.42,3.282,3.029Zm-2.434-3.807c.6.226,1.5,1.882,2.092,3.17-1.545-.892-2.5-1.812-2.6-2.477a.678.678,0,0,1,.219-.623.188.188,0,0,1,.205-.085Z" transform="translate(-10360.173 -2597.96)" fill="#3454d1"/>
      <path id="Path_30852" data-name="Path 30852" d="M178.9,356.758h0a.2.2,0,0,0,.178-.1,5.619,5.619,0,0,0,1.039-3.241,1.418,1.418,0,0,0-.6-.934h0c-.438-.3-.725-.184-.889,0-.711.651-.342,3.241.123,4.246a.2.2,0,0,0,.15.028Zm.26-4.034.15.127h0a.95.95,0,0,1,.438.679,4.641,4.641,0,0,1-.78,2.647c-.369-1.1-.492-3.015-.068-3.4a.186.186,0,0,1,.246,0Z" transform="translate(-10359.446 -2598.044)" fill="#3454d1"/>
      <path id="Path_30853" data-name="Path 30853" d="M198.966,392.546a.216.216,0,0,0,.068-.2.2.2,0,0,0-.15-.17c-.41-.085-4.034-.708-4.828.142a.682.682,0,0,0-.15.623h0a1.128,1.128,0,0,0,.615.835c1.094.524,3.241-.524,4.417-1.217Zm-4.568,0a7.607,7.607,0,0,1,3.843-.071c-1.627.877-2.94,1.217-3.556.92a.719.719,0,0,1-.41-.552.307.307,0,0,1,0-.241Z" transform="translate(-10353.692 -2581.607)" fill="#3454d1"/>
      <path id="Path_30854" data-name="Path 30854" d="M198.62,393.273h0a.2.2,0,0,0,0-.2c0-.085-.875-2.25-2.12-2.831a1.444,1.444,0,0,0-1.135,0h0c-.492.226-.561.538-.533.778.137,1,2.516,2.151,3.583,2.293a.239.239,0,0,0,.205-.042Zm-3.228-2.548.191-.071h0a1.074,1.074,0,0,1,.834,0,4.765,4.765,0,0,1,1.764,2.208c-1.149-.3-2.8-1.274-2.886-1.868a.353.353,0,0,1,.109-.241Z" transform="translate(-10353.345 -2582.334)" fill="#3454d1"/>
      <path id="Path_30855" data-name="Path 30855" d="M310.4,315.4a126.924,126.924,0,0,0,39.292.807s13.539,53.9-25.137,53.782c-14.292,0-20.131-6.284-29.322-12.1-20.925-13.233-38.047-32.552-46.239-31.505-11.789,1.543-5.375,16.121-54.007,55.608l-9.792-9.228s36.762-83.617,60.928-83.617c20.966,0,53.966,33.4,58.384,33.515S310.4,315.4,310.4,315.4Z" transform="translate(-10356.888 -2624.272)" fill="#3454d1"/>
      <path id="Path_30856" data-name="Path 30856" d="M230.5,317.63h0a11.369,11.369,0,0,0-6.277,5.661,36.969,36.969,0,0,0-1.778,7.19c-1.368,2.01-3.022,4.246-4.965,6.68C219.025,320.984,230.5,317.63,230.5,317.63Z" transform="translate(-10345.018 -2612.444)" opacity="0.2"/>
      <path id="Path_30857" data-name="Path 30857" d="M205.129,392.369l8.931,4.147a.942.942,0,0,1,.52,1.033l-1.887,9.5a1.548,1.548,0,0,1-.632,1,1.45,1.45,0,0,1-1.132.233l-.3-.1c-3.679-1.783-6.838-3.51-11.474-5.661-5.471-2.505-4.349-1.2-10.777-4.062-3.87-1.741-2.626-6.6-.889-6.057,7.891,2.491,11.009,1.132,15.044-.3a3.488,3.488,0,0,1,2.6.269Z" transform="translate(-10356.653 -2581.572)" fill="#3454d1"/>
      <path id="Path_30858" data-name="Path 30858" d="M247.058,265.209s-2.954-6.3-1.162-7.629,1.463.354,1.463.354l3.734,7.784Z" transform="translate(-10334.783 -2637.596)" fill="#7f3e3b"/>
      <path id="Path_30859" data-name="Path 30859" d="M244.215,270.623c-1.668-.255-1.846-1.571-2.735-3.057,0,0-2.544-6.029-.52-6.921a43.411,43.411,0,0,1,6.346-.226,6.91,6.91,0,0,1,6.223,5.449C255.4,272.477,244.215,270.623,244.215,270.623Z" transform="translate(-10336.672 -2636.217)" fill="#7f3e3b"/>
      <path id="Path_30860" data-name="Path 30860" d="M244.92,267.58l8.178,13.6,8.151-1.529-9.778-13.332Z" transform="translate(-10334.93 -2633.754)" fill="#7f3e3b"/>
      <path id="Path_30861" data-name="Path 30861" d="M286.816,261s-9.71-.5-13.457,19.121c-2.735,14.323-3.187,12.738-3.187,12.738l-15.5-22.107-8.917,3.708s18.025,37.279,27.352,34.222c0,0,4.8-.241,8.438-8.492S286.816,261,286.816,261Z" transform="translate(-10334.621 -2635.964)" fill="#3454d1"/>
      <path id="Path_30862" data-name="Path 30862" d="M286.816,261s-9.71-.5-13.457,19.121c-2.735,14.323-3.187,12.738-3.187,12.738l-15.5-22.107-8.917,3.708s18.025,37.279,27.352,34.222c0,0,4.8-.241,8.438-8.492S286.816,261,286.816,261Z" transform="translate(-10334.621 -2635.964)" fill="#263238"/>
      <path id="Path_30863" data-name="Path 30863" d="M269.982,275.924c-.109,4.628-7.85,14.79.424,21.584-1.887,3.637-4.91,29.042-1.887,33.769,0,0,30.648,4.7,52.353,3.284,1.518-9.143-2.229-28.151,5.717-57.448a12.229,12.229,0,0,0-1.351-9.561,11.465,11.465,0,0,0-7.771-5.356c-1.792-.326-3.706-.609-5.662-.849a137.922,137.922,0,0,0-20.514-1.415c-2.243,0-4.554.184-6.77.34A15.883,15.883,0,0,0,269.982,275.924Z" transform="translate(-10326.963 -2636.408)" fill="#263238"/>
      <path id="Path_30864" data-name="Path 30864" d="M301.324,290.106a131.507,131.507,0,0,1,7.289-24.8l.574,5.407,1.723,2.265c-2.858,8.945,11.83,23.834-4.746,44.582a2.809,2.809,0,0,1-3.323.835c-6.961-3-14.7-12.327-14.7-12.327l3.652-9.624C296.7,298.839,300,297.423,301.324,290.106Z" transform="translate(-10319.04 -2634.173)" opacity="0.2"/>
      <path id="Path_30865" data-name="Path 30865" d="M274.262,290.919l6.1.113a1.767,1.767,0,0,0,1.477-.684,1.9,1.9,0,0,0,.342-1.637l-3.091-16.545a2.985,2.985,0,0,0-2.735-2.392l-6.086-.113a1.751,1.751,0,0,0-1.487.668,1.889,1.889,0,0,0-.345,1.639l3.118,16.573a2.985,2.985,0,0,0,2.708,2.378Z" transform="translate(-10326.307 -2632.368)" fill="#263238"/>
      <path id="Path_30866" data-name="Path 30866" d="M274.262,290.919l6.1.113a1.767,1.767,0,0,0,1.477-.684,1.9,1.9,0,0,0,.342-1.637l-3.091-16.545a2.985,2.985,0,0,0-2.735-2.392l-6.086-.113a1.751,1.751,0,0,0-1.487.668,1.889,1.889,0,0,0-.345,1.639l3.118,16.573a2.985,2.985,0,0,0,2.708,2.378Z" transform="translate(-10326.307 -2632.368)" fill="#fff" opacity="0.3"/>
      <path id="Path_30867" data-name="Path 30867" d="M273.586,290.913l6.1.113a1.766,1.766,0,0,0,1.487-.678,1.9,1.9,0,0,0,.346-1.643l-3.1-16.545a3.013,3.013,0,0,0-2.735-2.406l-6.1-.113a1.766,1.766,0,0,0-1.487.678,1.9,1.9,0,0,0-.346,1.643l3.1,16.588a3.011,3.011,0,0,0,2.735,2.364Z" transform="translate(-10326.561 -2632.375)" fill="#263238"/>
      <path id="Path_30868" data-name="Path 30868" d="M273.586,290.913l6.1.113a1.766,1.766,0,0,0,1.487-.678,1.9,1.9,0,0,0,.346-1.643l-3.1-16.545a3.013,3.013,0,0,0-2.735-2.406l-6.1-.113a1.766,1.766,0,0,0-1.487.678,1.9,1.9,0,0,0-.346,1.643l3.1,16.588a3.011,3.011,0,0,0,2.735,2.364Z" transform="translate(-10326.561 -2632.375)" fill="#fff" opacity="0.7"/>
      <path id="Path_30869" data-name="Path 30869" d="M274.69,274.289H274.1a1.991,1.991,0,0,1-1.819-1.614l-.123-.609a1.278,1.278,0,0,1,.233-1.1,1.186,1.186,0,0,1,1-.455h.588a2,2,0,0,1,1.819,1.6l.123.623a1.279,1.279,0,0,1-.233,1.1,1.186,1.186,0,0,1-1,.455Z" transform="translate(-10324.929 -2632.014)" fill="#263238"/>
      <path id="Path_30870" data-name="Path 30870" d="M273,271.347a.8.8,0,0,0,.752.665.485.485,0,0,0,.41-.185.523.523,0,0,0,.1-.452.816.816,0,0,0-.752-.665.485.485,0,0,0-.41.185.523.523,0,0,0-.1.452Z" transform="translate(-10324.61 -2631.931)" fill="#263238"/>
      <path id="Path_30871" data-name="Path 30871" d="M273.224,272.691a.857.857,0,0,0,.766.665.5.5,0,0,0,.41-.2.538.538,0,0,0,.1-.456.857.857,0,0,0-.752-.665.5.5,0,0,0-.419.189.537.537,0,0,0-.1.462Z" transform="translate(-10324.529 -2631.378)" fill="#263238"/>
      <path id="Path_30872" data-name="Path 30872" d="M278.18,285.406l9.355,9.582,4.117-6.765-9.82-7.643Z" transform="translate(-10322.702 -2627.831)" fill="#7f3e3b"/>
      <path id="Path_30873" data-name="Path 30873" d="M321.07,282.47c1-5.59,1.135-16.984-4.568-19.121-6.66-2.477-8.452,7.94-9.874,17.352s-4.267,21.131-6.441,19.984c-4.541-2.392-12.486-7.813-12.486-7.813l-4.8,7.685s16.74,18.47,24.357,14.153C315.86,309.856,319.8,289.56,321.07,282.47Z" transform="translate(-10320.967 -2635.142)" fill="#263238"/>
      <path id="Path_30874" data-name="Path 30874" d="M300.8,250.035a37.116,37.116,0,0,0,.15,14.96s-18.367,12.143-18.367-.354c0,0,5.7.708,6.2-6.864C289.049,253.489,293.384,249.13,300.8,250.035Z" transform="translate(-10321.084 -2640.567)" fill="#7f3e3b"/>
      <path id="Path_30875" data-name="Path 30875" d="M287.3,257.786c.492-3.963,4.035-8.011,10.462-7.855l.424.41.451.863s-4.1,10.912-12.049,9.6A12.476,12.476,0,0,0,287.3,257.786Z" transform="translate(-10319.61 -2640.562)" opacity="0.2"/>
      <path id="Path_30876" data-name="Path 30876" d="M306.907,244.329c-1.368,10.318-1.805,14.719-7.276,19.616-8.206,7.388-20.186,3.326-21.773-7.232-1.436-9.511,1.135-24.782,11.256-28.094a13.323,13.323,0,0,1,13.16,2.679,14.426,14.426,0,0,1,4.619,13.031Z" transform="translate(-10322.955 -2649.707)" fill="#7f3e3b"/>
      <path id="Path_30877" data-name="Path 30877" d="M283.623,243.52a23.049,23.049,0,0,1-3.323,5.166,3.391,3.391,0,0,0,2.858.807Z" transform="translate(-10321.923 -2643.223)" fill="#630f0f"/>
      <path id="Path_30878" data-name="Path 30878" d="M290.3,240.607a.47.47,0,0,0,.191-.085.435.435,0,0,0,.082-.58h0a4.612,4.612,0,0,0-3.857-1.981.435.435,0,0,0-.369.453.415.415,0,0,0,.424.368,3.924,3.924,0,0,1,3.186,1.67.391.391,0,0,0,.342.156Z" transform="translate(-10319.699 -2645.532)" fill="#263238"/>
      <path id="Path_30879" data-name="Path 30879" d="M278.545,238.978a.322.322,0,0,0,.192-.071,3.793,3.793,0,0,1,3.487-.665.384.384,0,0,0,.305,0,.4.4,0,0,0,.214-.225h0a.424.424,0,0,0-.006-.32.4.4,0,0,0-.226-.218,4.564,4.564,0,0,0-4.253.75.434.434,0,0,0-.109.58.391.391,0,0,0,.4.17Z" transform="translate(-10322.738 -2645.828)" fill="#263238"/>
      <path id="Path_30880" data-name="Path 30880" d="M287.521,243.353c0,.835-.547,1.486-1.08,1.415s-.916-.764-.848-1.613.561-1.415,1.08-1.415S287.616,242.5,287.521,243.353Z" transform="translate(-10319.98 -2643.962)" fill="#263238"/>
      <path id="Path_30881" data-name="Path 30881" d="M280.8,242.805c0,.849-.561,1.5-1.08,1.415s-.916-.764-.848-1.613.547-1.486,1.08-1.415S280.869,241.956,280.8,242.805Z" transform="translate(-10322.451 -2644.192)" fill="#263238"/>
      <path id="Path_30882" data-name="Path 30882" d="M280.331,241.456l-1.9-.736S279.305,242.376,280.331,241.456Z" transform="translate(-10322.609 -2644.386)" fill="#263238"/>
      <path id="Path_30883" data-name="Path 30883" d="M287.085,242.01l-1.915-.75S286.059,242.93,287.085,242.01Z" transform="translate(-10320.133 -2644.162)" fill="#263238"/>
      <path id="Path_30884" data-name="Path 30884" d="M287.246,249.186a6.8,6.8,0,0,0,.6-.807.218.218,0,0,0,0-.283h0a.2.2,0,0,0-.274,0,5.3,5.3,0,0,1-4.1,2.562.2.2,0,0,0,0,.4A5.4,5.4,0,0,0,287.246,249.186Z" transform="translate(-10320.827 -2641.344)" fill="#263238"/>
      <path id="Path_30885" data-name="Path 30885" d="M297.472,227.524s15.7-3.156,19.338,23.268c1.819,13.162-15.509,20.536-15.509,20.536v-2.746a30.076,30.076,0,0,1,2.284-11.492l1.149-2.831-7.549-10.87s-4.5-1.415-5.129-5.8c0,0-1.067,1.543.629,4.359,0,0-11.515.467-10.941-5.661a3.883,3.883,0,0,0-.068,3.326s-3.583-.071-3.145-3.312S281.785,219.5,297.472,227.524Z" transform="translate(-10322.586 -2650.906)" fill="#263238"/>
      <path id="Path_30886" data-name="Path 30886" d="M302.248,246.852a7.5,7.5,0,0,1-3.884,4.246c-2.38,1.061-3.911-1.047-3.528-3.552.328-2.25,1.969-5.506,4.486-5.506a3.289,3.289,0,0,1,2.727,1.611,3.529,3.529,0,0,1,.2,3.243Z" transform="translate(-10316.601 -2643.837)" fill="#7f3e3b"/>
      <path id="Path_30887" data-name="Path 30887" d="M272.448,283.655l1.368,2.321a3.037,3.037,0,0,0,2.393,1.5l4.609.34a5.548,5.548,0,0,0,4.855-2.123l.739-.906c-2.024-4.019-7.071-6.808-7.071-6.808l-1.368-.962a2.515,2.515,0,0,0-3.583.594l-1.874,2.746A3.118,3.118,0,0,0,272.448,283.655Z" transform="translate(-10324.97 -2629.52)" fill="#7f3e3b"/>
      <path id="Path_30888" data-name="Path 30888" d="M132.861,183.816l-20.036,3.114-11.611-30.684c-.492-1.783-2.571.793-4.335.5l-3.036-.51c-.287-.58,5.594,26.3,9.491,42.12,1.586,6.468,33.575-.524,33.575-.524C149.355,192.025,132.861,183.816,132.861,183.816Z" transform="translate(-10390.473 -2679.733)" fill="#ffb573"/>
      <path id="Path_30889" data-name="Path 30889" d="M113.65,176.641a65.741,65.741,0,0,0,5.361,19.376,1.851,1.851,0,0,0,1.778,1.076c10.189-.651,14.661-3.17,14.661-3.17-.916-3.17,3.159-20.593,1.053-22.872a39.365,39.365,0,0,0-8.37,2.491C125.808,174.744,113.65,176.641,113.65,176.641Z" transform="translate(-10383.188 -2673.321)" fill="#3454d1"/>
      <path id="Path_30890" data-name="Path 30890" d="M128.086,196.153c.123,29.212-2.366,54.292-2.366,54.292s48.893.212,50.6.255c3.939-33.84,6.77-42.459,7.8-63.095.506-8.492-4.1-16.05-8.876-16.984l-.889-.113c-13.676-1.882-28.474-.368-42.232,1.132h0C126.8,172.39,128.592,182.424,128.086,196.153Z" transform="translate(-10378.751 -2673.911)" fill="#3454d1"/>
      <path id="Path_30891" data-name="Path 30891" d="M143.31,330.631c-4.1,38.836-.766,108.385-.766,108.385l8.589.241s6.551-64.425,6.838-110.777Z" transform="translate(-10373.035 -2607.938)" fill="#ffb573"/>
      <path id="Path_30892" data-name="Path 30892" d="M143.31,330.631c-4.1,38.836-.766,108.385-.766,108.385l8.589.241s6.551-64.425,6.838-110.777Z" transform="translate(-10373.035 -2607.938)" fill="#ffb573"/>
      <path id="Path_30893" data-name="Path 30893" d="M154.761,403.759c6.359,3.751,7.071,3.836,14.073,5.322,1.532.326.957,4.1-2.612,4.147-5.894.1-5.47-.113-10.449,0-4.294,0-10.517.3-13.936.382h-.109a1.511,1.511,0,0,1-1.368-1.585l.629-8.152a.707.707,0,0,1,.67-.637l10.941-.085A4.224,4.224,0,0,1,154.761,403.759Z" transform="translate(-10373.368 -2576.926)" fill="#263238"/>
      <path id="Path_30894" data-name="Path 30894" d="M150.518,404.283c1.368.283,3.939.623,4.882-.283a1.271,1.271,0,0,0,.369-1.076h0a.8.8,0,0,0-.369-.58c-1.08-.594-4.568,1.3-4.951,1.529a.258.258,0,0,0-.109.226.224.224,0,0,0,.15.17Zm4.691-1.543a.255.255,0,0,1,.137.212.78.78,0,0,1-.233.708c-.533.51-1.969.623-3.911.3,1.368-.708,3.269-1.5,3.925-1.274Z" transform="translate(-10369.699 -2577.309)" fill="#3454d1"/>
      <path id="Path_30895" data-name="Path 30895" d="M150.641,404.907c1.039-.509,3.1-2.505,2.9-3.567,0-.255-.219-.552-.793-.609h0a1.459,1.459,0,0,0-1.149.4,6.332,6.332,0,0,0-1.258,3.552.244.244,0,0,0,.1.212h0A.186.186,0,0,0,150.641,404.907Zm2.3-3.68c.178,0,.191.156.205.2.1.637-1.272,2.208-2.352,2.916a5.3,5.3,0,0,1,1.094-2.831,1,1,0,0,1,.848-.283h.205Z" transform="translate(-10369.699 -2577.933)" fill="#3454d1"/>
      <path id="Path_30896" data-name="Path 30896" d="M129.336,332.8C124,371.468,104.2,438.031,104.2,438.031l-9.409-.2s9.04-64.086,19.789-109.093Z" transform="translate(-10390.121 -2607.829)" fill="#ffb573"/>
      <path id="Path_30897" data-name="Path 30897" d="M97.165,403.493c-6.633,3.906-7.372,3.991-14.661,5.548-1.6.34-1.012,4.246,2.735,4.317,6.154.1,5.635-.127,10.941-.071,4.472,0,10.941.311,14.51.41h.123a1.569,1.569,0,0,0,1.368-1.656l-.656-8.492a.721.721,0,0,0-.7-.651l-11.338-.1a4.375,4.375,0,0,0-2.325.694Z" transform="translate(-10394.944 -2577.072)" fill="#263238"/>
      <path id="Path_30898" data-name="Path 30898" d="M94.911,404a.2.2,0,0,0,.15-.17.229.229,0,0,0-.109-.241c-.4-.226-4.021-2.194-5.156-1.585a.8.8,0,0,0-.383.609h0a1.3,1.3,0,0,0,.383,1.1c.985.948,3.611.609,5.088.311Zm-4.828-1.642c.684-.226,2.667.594,4.1,1.33-2.024.326-3.528.212-4.1-.311a.838.838,0,0,1-.246-.736.256.256,0,0,1,.137-.226Z" transform="translate(-10392.102 -2577.45)" fill="#3454d1"/>
      <path id="Path_30899" data-name="Path 30899" d="M94.316,404.653h0a.215.215,0,0,0,.1-.212,6.529,6.529,0,0,0-1.368-3.708,1.553,1.553,0,0,0-1.19-.41h0c-.6.071-.78.382-.821.637-.205,1.118,1.928,3.184,3.022,3.722a.187.187,0,0,0,.26-.028Zm-2.544-3.85h.219a1.111,1.111,0,0,1,.875.3A5.544,5.544,0,0,1,94,404.115c-1.121-.736-2.557-2.378-2.434-3.029a.237.237,0,0,1,.191-.212Z" transform="translate(-10391.505 -2578.103)" fill="#3454d1"/>
      <path id="Path_30900" data-name="Path 30900" d="M157.11,292.927c-4.253,7.954-26.135,87.212-26.135,87.212L121.4,426.15a180.406,180.406,0,0,0-3.05,20.182l-1.915,14.705-22.087.283c.451-2,4.568-22.305,14.21-86.179,9.929-65.713,28.282-148.155,28.282-148.155s28.146-1.132,40.263.793C180.5,245.542,166.355,275.83,157.11,292.927Z" transform="translate(-10390.282 -2650.227)" fill="#263238"/>
      <path id="Path_30901" data-name="Path 30901" d="M137.181,257.15s-7.221,45.078-5.074,58.226l15.564-51.829Z" transform="translate(-10376.549 -2637.562)" opacity="0.2"/>
      <path id="Path_30902" data-name="Path 30902" d="M160.359,461.3c.506-.793,3.446-65.43,4.568-83.744l8.479-101.634s4.787-33.812.328-48.927l-41.124-.3s11.05,124.435,8.548,187.176c-.944,23.409-1.45,47.441-1.45,47.441Z" transform="translate(-10376.218 -2650.209)" fill="#263238"/>
      <path id="Path_30903" data-name="Path 30903" d="M156.519,176.166c3.077,2.265,1.764,5.831-.738,8.747a27.874,27.874,0,0,1-10.64,7.954c-.082,0-13.567-10.12-4.034-16.432,1.573-1.047,2.188-3.524,2.366-6.114a31.74,31.74,0,0,0-.232-5.916q-.069-.713-.205-1.415a12.2,12.2,0,0,0-.273-1.415l14.292-6.114c-1.573,2.449-2.735,10.289-2.434,12.823C154.987,171.17,155.1,175.119,156.519,176.166Z" transform="translate(-10374.346 -2679.796)" fill="#ffb573"/>
      <path id="Path_30904" data-name="Path 30904" d="M142.114,168.715a31.742,31.742,0,0,0-.232-5.916q-.061-.712-.191-1.415l11.05-2.194C150.32,161.554,147.106,166.422,142.114,168.715Z" transform="translate(-10372.88 -2678.247)" opacity="0.2"/>
      <path id="Path_30905" data-name="Path 30905" d="M133.194,163.851c1.778,10.006,13.362,15.285,21.007,8.11,4.417-4.133,5.115-9.058,5.922-16.743.137-1.175.26-2.392.4-3.694a14.05,14.05,0,0,0-.588-6.029,12.028,12.028,0,0,0-1-2.321,12.992,12.992,0,0,0-15.714-6.284C133.631,140.244,131.58,154.835,133.194,163.851Z" transform="translate(-10376.186 -2687.804)" fill="#ffb573"/>
      <path id="Path_30906" data-name="Path 30906" d="M142.079,147.22c-.506,0-.957.609-1,1.415s.274,1.486.848,1.514,1.012-.594,1.053-1.415S142.585,147.262,142.079,147.22Z" transform="translate(-10373.105 -2683.218)" fill="#263238"/>
      <path id="Path_30907" data-name="Path 30907" d="M135.729,147.17c-.506,0-.957.58-1,1.415s.328,1.415.848,1.514.957-.594,1-1.415S136.235,147.2,135.729,147.17Z" transform="translate(-10375.439 -2683.239)" fill="#263238"/>
      <path id="Path_30908" data-name="Path 30908" d="M139.384,156.143a7.135,7.135,0,0,1-4.664-1.656,30.35,30.35,0,0,0,5.074-6.227Z" transform="translate(-10375.44 -2682.786)" fill="#ed893e"/>
      <path id="Path_30909" data-name="Path 30909" d="M144.952,147.4A3.67,3.67,0,0,0,142,145.819h-.15a.477.477,0,0,1-.282-.828.455.455,0,0,1,.337-.121,4.531,4.531,0,0,1,3.734,1.925.493.493,0,0,1-.082.665.335.335,0,0,1-.219.085A.456.456,0,0,1,144.952,147.4Z" transform="translate(-10372.981 -2684.194)" fill="#263238"/>
      <path id="Path_30910" data-name="Path 30910" d="M133.14,144.451h0a.473.473,0,0,1,.465-.481,4.476,4.476,0,0,1,3.734,1.911h0a.466.466,0,0,1,.062.349.453.453,0,0,1-.2.288h0a.425.425,0,0,1-.332.052.439.439,0,0,1-.27-.207,3.576,3.576,0,0,0-2.968-1.415.406.406,0,0,1-.383-.2A.476.476,0,0,1,133.14,144.451Z" transform="translate(-10376.021 -2684.568)" fill="#263238"/>
      <path id="Path_30911" data-name="Path 30911" d="M154.835,146.106a18.209,18.209,0,0,1,.574,6.2,13.8,13.8,0,0,1,2.585,11.011,11.52,11.52,0,0,1,6.318-5.152,46.973,46.973,0,0,0,1.094-11.323,10.062,10.062,0,0,0-.793-4.246,3.759,3.759,0,0,0-3.351-2.279c.164-1.514-1.2-2.831-2.462-3.567a22.325,22.325,0,0,0-24.549.693H130.82a9.616,9.616,0,0,0,3.87,6.454,7.227,7.227,0,0,1,1.217,1.3,14.992,14.992,0,0,0,7.713.283,72.039,72.039,0,0,1,7.7-1.415,3.454,3.454,0,0,1,3.515,2.038Z" transform="translate(-10376.874 -2688.954)" fill="#263238"/>
      <path id="Path_30912" data-name="Path 30912" d="M154.757,149.21c-3.132,0-5.047,4.147-5.375,6.935-.383,3.114,1.627,5.661,4.527,4.246a9.147,9.147,0,0,0,4.677-5.307,4.372,4.372,0,0,0-.388-4A4.066,4.066,0,0,0,154.757,149.21Z" transform="translate(-10370.068 -2682.391)" fill="#ffb573"/>
      <path id="Path_30913" data-name="Path 30913" d="M136.33,156.4s2.735-1.132,10.572-2.109c-.451,2.972-2.175,4.246-6.236,4.671S136.33,156.4,136.33,156.4Z" transform="translate(-10374.851 -2680.282)" fill="#263238"/>
      <path id="Path_30914" data-name="Path 30914" d="M136.59,156.265a1.918,1.918,0,0,0,1.477,1.26,34.538,34.538,0,0,0,6.838-1.571,2.1,2.1,0,0,0,1.545-1.613A54.6,54.6,0,0,0,136.59,156.265Z" transform="translate(-10374.754 -2680.261)" fill="#fff"/>
      <path id="Path_30915" data-name="Path 30915" d="M137.985,156.864a20.166,20.166,0,0,1,6.236-1.514,3.316,3.316,0,0,1,1.655.693c-.875,1.415-2.626,2.194-5.471,2.533a4.465,4.465,0,0,1-3.146-.594A4.514,4.514,0,0,1,137.985,156.864Z" transform="translate(-10374.508 -2679.841)" fill="#fff"/>
      <path id="Path_30916" data-name="Path 30916" d="M96.036,156.066s-2.64-6.822-.67-8.081,1.5.481,1.5.481l3.351,8.492Z" transform="translate(-10390.177 -2683.091)" fill="#ffb573"/>
      <path id="Path_30917" data-name="Path 30917" d="M92.638,161.479c-1.737-.4-1.819-1.783-2.612-3.425,0,0-2.229-6.5,0-7.275a46.589,46.589,0,0,1,6.674.241,7.33,7.33,0,0,1,6.127,6.213C104.236,164.295,92.638,161.479,92.638,161.479Z" transform="translate(-10392.236 -2681.752)" fill="#ffb573"/>
      <path id="Path_30918" data-name="Path 30918" d="M160.17,178.04l7.659,36.685L174.01,179.5Z" transform="translate(-10366.086 -2670.418)" opacity="0.2"/>
      <path id="Path_30919" data-name="Path 30919" d="M176.827,180.817c1.149,3.184,2.229,6.383,3.269,9.61s2.038,6.454,3.009,9.695,1.9,6.51,2.831,9.78a22.267,22.267,0,0,1,1.217,7.614,17.067,17.067,0,0,1-.711,4.246,27.727,27.727,0,0,1-1.121,3.114l-.274.651h0q-4.636,8.251-9.423,16.4c-1.6,2.717-3.159,5.463-4.814,8.166s-3.241,5.407-4.923,8.082a3.905,3.905,0,0,1-5.171,1.486,4.181,4.181,0,0,1-1.9-5.194c1.08-2.986,2.243-5.93,3.378-8.9s2.339-5.888,3.5-8.832q3.5-8.832,7.194-17.578l-.3.694a11.551,11.551,0,0,0,.41-1.741,1.565,1.565,0,0,0,0-.807l-.232-.637-.656-1.656c-1.217-3.184-2.421-6.369-3.583-9.582s-2.3-6.411-3.392-9.638-2.147-6.482-3.146-9.737a8.211,8.211,0,0,1,4.889-10.339,7.8,7.8,0,0,1,9.99,5.06Z" transform="translate(-10366.688 -2671.567)" fill="#ffb573"/>
      <path id="Path_30920" data-name="Path 30920" d="M161.021,230.43l-5.47,7.077s4.6,7.388,7.645,6.326,4.1-9.5,4.1-9.5Z" transform="translate(-10367.784 -2648.659)" fill="#ffb573"/>
      <path id="Path_30921" data-name="Path 30921" d="M164.471,170.685s-10.025,1.7-2.366,22.277c5.963,16.05,6.414,13.743,6.414,13.743l15.044-9.115S178.065,169.892,164.471,170.685Z" transform="translate(-10366.435 -2673.479)" fill="#3454d1"/>
      <path id="Path_30922" data-name="Path 30922" d="M419.05,113.53H351.544a3.425,3.425,0,0,0-3.364,3.482v19.376a3.438,3.438,0,0,0,3.364,3.482h10.175l.41,7.19a2.687,2.687,0,0,0,4.623.2l4.335-7.388h47.867a3.438,3.438,0,0,0,3.364-3.482V117.026a3.443,3.443,0,0,0-3.269-3.5Z" transform="translate(-10296.969 -2697.21)" fill="#3454d1"/>
      <g id="Group_6694" data-name="Group 6694" transform="translate(-9948.788 -2583.68)" opacity="0.7">
        <path id="Path_30923" data-name="Path 30923" d="M419.05,113.53H351.544a3.425,3.425,0,0,0-3.364,3.482v19.376a3.438,3.438,0,0,0,3.364,3.482h10.175l.41,7.19a2.687,2.687,0,0,0,4.623.2l4.335-7.388h47.867a3.438,3.438,0,0,0,3.364-3.482V117.026a3.443,3.443,0,0,0-3.269-3.5Z" transform="translate(-348.18 -113.53)" fill="#fff"/>
      </g>
      <path id="Path_30924" data-name="Path 30924" d="M359.523,130.089l1.6-3.354,3.6-.552-2.6-2.618.615-3.694-3.214,1.755-3.2-1.755.6,3.694-2.585,2.618,3.583.552Z" transform="translate(-10294.704 -2694.577)" fill="#3454d1"/>
      <path id="Path_30925" data-name="Path 30925" d="M368.347,130.089l1.6-3.354,3.583-.552-2.585-2.618.6-3.694-3.2,1.755-3.214-1.755.615,3.694-2.6,2.618,3.6.552Z" transform="translate(-10291.466 -2694.577)" fill="#3454d1"/>
      <path id="Path_30926" data-name="Path 30926" d="M377.167,130.089l1.6-3.354,3.583-.552-2.6-2.618.615-3.694-3.2,1.755-3.214-1.755.615,3.694-2.6,2.618,3.583.552Z" transform="translate(-10288.223 -2694.577)" fill="#263238"/>
      <path id="Path_30927" data-name="Path 30927" d="M385.973,130.089l1.614-3.354,3.583-.552-2.6-2.618.615-3.694-3.214,1.755-3.2-1.755.615,3.694-2.6,2.618,3.583.552Z" transform="translate(-10284.979 -2694.577)" fill="#263238"/>
      <path id="Path_30928" data-name="Path 30928" d="M394.793,130.089l1.6-3.354,3.6-.552-2.6-2.618.615-3.694-3.214,1.755-3.2-1.755.6,3.694-2.585,2.618,3.583.552Z" transform="translate(-10281.738 -2694.577)" fill="#263238"/>
      <path id="Path_30929" data-name="Path 30929" d="M225,126.65h67.424a3.453,3.453,0,0,1,3.378,3.5v19.376A3.438,3.438,0,0,1,292.427,153H282.293l-.4,7.19a2.687,2.687,0,0,1-4.623.184L272.925,153H225.058a3.438,3.438,0,0,1-3.378-3.482V130.146A3.455,3.455,0,0,1,225,126.65Z" transform="translate(-10343.474 -2691.761)" fill="#3454d1"/>
      <g id="Group_6695" data-name="Group 6695" transform="translate(-10121.793 -2565.111)" opacity="0.7">
        <path id="Path_30930" data-name="Path 30930" d="M225,126.65h67.424a3.453,3.453,0,0,1,3.378,3.5v19.376A3.438,3.438,0,0,1,292.427,153H282.293l-.4,7.19a2.687,2.687,0,0,1-4.623.184L272.925,153H225.058a3.438,3.438,0,0,1-3.378-3.482V130.146A3.455,3.455,0,0,1,225,126.65Z" transform="translate(-221.68 -126.65)" fill="#fff"/>
      </g>
      <path id="Path_30931" data-name="Path 30931" d="M232.717,132.19l1.6,3.354,3.6.538-2.6,2.618.6,3.694-3.2-1.741-3.214,1.741.615-3.694-2.6-2.618,3.6-.538Z" transform="translate(-10341.326 -2689.46)" fill="#3454d1"/>
      <path id="Path_30932" data-name="Path 30932" d="M241.537,132.19l1.6,3.354,3.583.538-2.6,2.618.615,3.694-3.2-1.741-3.214,1.741.615-3.694-2.6-2.618,3.583-.538Z" transform="translate(-10338.083 -2689.46)" fill="#3454d1"/>
      <path id="Path_30933" data-name="Path 30933" d="M250.343,132.19l1.614,3.354,3.583.538-2.6,2.618.615,3.694-3.214-1.741-3.2,1.741.615-3.694-2.6-2.618,3.583-.538Z" transform="translate(-10334.841 -2689.46)" fill="#3454d1"/>
      <path id="Path_30934" data-name="Path 30934" d="M259.163,132.19l1.6,3.354,3.6.538-2.6,2.618.615,3.694-3.214-1.741-3.2,1.741.6-3.694-2.585-2.618,3.583-.538Z" transform="translate(-10331.599 -2689.46)" fill="#263238"/>
      <path id="Path_30935" data-name="Path 30935" d="M267.987,132.19l1.6,3.354,3.583.538-2.585,2.618.615,3.694-3.214-1.741-3.214,1.741.615-3.694-2.6-2.618,3.6-.538Z" transform="translate(-10328.359 -2689.46)" fill="#263238"/>
      <path id="Path_30936" data-name="Path 30936" d="M241.259,326.943H308.7a3.438,3.438,0,0,0,3.364-3.482V304.086A3.424,3.424,0,0,0,308.7,300.6H298.521l-.342-7.19a2.687,2.687,0,0,0-4.623-.184l-4.335,7.388H241.354a3.425,3.425,0,0,0-3.364,3.482v19.376A3.442,3.442,0,0,0,241.259,326.943Z" transform="translate(-10337.478 -2623.088)" fill="#3454d1"/>
      <g id="Group_6696" data-name="Group 6696" transform="translate(-10099.487 -2331.086)" opacity="0.7">
        <path id="Path_30937" data-name="Path 30937" d="M241.259,326.943H308.7a3.438,3.438,0,0,0,3.364-3.482V304.086A3.424,3.424,0,0,0,308.7,300.6H298.521l-.342-7.19a2.687,2.687,0,0,0-4.623-.184l-4.335,7.388H241.354a3.425,3.425,0,0,0-3.364,3.482v19.376A3.442,3.442,0,0,0,241.259,326.943Z" transform="translate(-237.99 -292.002)" fill="#fff"/>
      </g>
      <path id="Path_30938" data-name="Path 30938" d="M249.253,303.12l1.614,3.368,3.583.538-2.6,2.618.615,3.694-3.214-1.741-3.2,1.741.615-3.694-2.6-2.618,3.583-.538Z" transform="translate(-10335.242 -2618.47)" fill="#3454d1"/>
      <path id="Path_30939" data-name="Path 30939" d="M258.077,303.12l1.6,3.368,3.6.538-2.6,2.618.615,3.694-3.214-1.741-3.2,1.741.6-3.694-2.6-2.618,3.6-.538Z" transform="translate(-10332.003 -2618.47)" fill="#3454d1"/>
      <path id="Path_30940" data-name="Path 30940" d="M266.9,303.12l1.6,3.368,3.583.538-2.585,2.618.6,3.694-3.2-1.741-3.214,1.741.615-3.694-2.6-2.618,3.583-.538Z" transform="translate(-10328.761 -2618.47)" fill="#3454d1"/>
      <path id="Path_30941" data-name="Path 30941" d="M275.717,303.12l1.6,3.368,3.583.538-2.6,2.618.615,3.694-3.2-1.741-3.214,1.741.615-3.694-2.6-2.618,3.583-.538Z" transform="translate(-10325.518 -2618.47)" fill="#3454d1"/>
      <path id="Path_30942" data-name="Path 30942" d="M284.523,303.12l1.614,3.368,3.583.538-2.6,2.618.615,3.694-3.214-1.741-3.2,1.741.615-3.694-2.6-2.618,3.583-.538Z" transform="translate(-10322.275 -2618.47)" fill="#263238"/>
      <path id="Path_30943" data-name="Path 30943" d="M104.718,105.66H174a3.438,3.438,0,0,1,3.378,3.482v19.376A3.438,3.438,0,0,1,174,132H149.74l-4.212,7.19a2.687,2.687,0,0,1-4.623.2L136.556,132H104.7a3.438,3.438,0,0,1-3.364-3.482V109.142A3.438,3.438,0,0,1,104.718,105.66Z" transform="translate(-10387.712 -2700.478)" fill="#3454d1"/>
      <g id="Group_6697" data-name="Group 6697" transform="translate(-10286.372 -2594.818)" opacity="0.7">
        <path id="Path_30944" data-name="Path 30944" d="M104.718,105.66H174a3.438,3.438,0,0,1,3.378,3.482v19.376A3.438,3.438,0,0,1,174,132H149.74l-4.212,7.19a2.687,2.687,0,0,1-4.623.2L136.556,132H104.7a3.438,3.438,0,0,1-3.364-3.482V109.142A3.438,3.438,0,0,1,104.718,105.66Z" transform="translate(-101.34 -105.66)" fill="#fff"/>
      </g>
      <path id="Path_30945" data-name="Path 30945" d="M113.623,110.87l1.614,3.354,3.583.552-2.6,2.6.615,3.708-3.214-1.755-3.2,1.755.615-3.708-2.6-2.6,3.583-.552Z" transform="translate(-10385.103 -2698.315)" fill="#3454d1"/>
      <path id="Path_30946" data-name="Path 30946" d="M122.443,110.87l1.6,3.354,3.6.552-2.6,2.6.615,3.708-3.214-1.755-3.2,1.755.6-3.708-2.585-2.6,3.583-.552Z" transform="translate(-10381.86 -2698.315)" fill="#3454d1"/>
      <path id="Path_30947" data-name="Path 30947" d="M131.267,110.87l1.6,3.354,3.583.552-2.585,2.6.615,3.708-3.214-1.755-3.214,1.755.615-3.708-2.6-2.6,3.6-.552Z" transform="translate(-10378.621 -2698.315)" fill="#3454d1"/>
      <path id="Path_30948" data-name="Path 30948" d="M140.087,110.87l1.6,3.354,3.583.552-2.585,2.6.6,3.708-3.2-1.755-3.214,1.755.615-3.708-2.6-2.6,3.583-.552Z" transform="translate(-10375.378 -2698.315)" fill="#3454d1"/>
      <path id="Path_30949" data-name="Path 30949" d="M148.893,110.87l1.614,3.354,3.583.552-2.6,2.6.615,3.708-3.214-1.755-3.2,1.755.615-3.708-2.6-2.6,3.583-.552Z" transform="translate(-10372.137 -2698.315)" fill="#3454d1"/>
    </g>
  </g>
</svg>
