<svg id="Customer_Service_blue" data-name="Customer Service blue" xmlns="http://www.w3.org/2000/svg" xmlns:xlink="http://www.w3.org/1999/xlink" width="57.572" height="58.762" viewBox="0 0 57.572 58.762">
  <defs>
    <clipPath id="clip-path">
      <rect id="Rectangle_1472" data-name="Rectangle 1472" width="57.572" height="58.762" fill="#3454d1"/>
    </clipPath>
  </defs>
  <g id="Group_6668" data-name="Group 6668" transform="translate(0 0)" clip-path="url(#clip-path)">
    <path id="Path_30462" data-name="Path 30462" d="M17.547,72.409l-4.645-8.2c.519-.314.993-.614,1.48-.891,1.866-1.06,3.725-2.132,5.608-3.162a4.813,4.813,0,0,1,4.029-.352c2.544.864,5.1,1.687,7.665,2.5.688.218,1.41.333,2.114.5a1.889,1.889,0,0,1,1.557,2.114,1.706,1.706,0,0,1-2.174,1.4c-1.741-.375-3.454-.876-5.179-1.325q-.57-.148-1.139-.3c-.617-.167-1.108-.019-1.282.635a.948.948,0,0,0,.759,1.238c1.3.383,2.6.8,3.925,1.1,1.558.353,3.133.663,4.716.87a6.519,6.519,0,0,0,4.165-.978c3.424-1.99,6.832-4.013,10.3-5.934a11.386,11.386,0,0,1,3.14-1.083,1.85,1.85,0,0,1,2.263,1.211,2.119,2.119,0,0,1-.939,2.582q-8.763,5.407-17.533,10.806a5.6,5.6,0,0,1-4.69.643c-4.16-1.158-8.337-2.26-12.516-3.35a7.186,7.186,0,0,0-1.62-.016" transform="translate(-4.658 -21.487)" fill="#3454d1"/>
    <path id="Path_30463" data-name="Path 30463" d="M48.111,4.445V0a25.71,25.71,0,0,1,18.2,9.17A25.829,25.829,0,0,1,72.449,28.8a15.316,15.316,0,0,1,1.624.016,1.365,1.365,0,0,1,.845.371c.092.109-.1.552-.262.766-1.2,1.559-2.433,3.092-3.638,4.647-.461.6-.827.563-1.279-.026-1.2-1.56-2.438-3.088-3.636-4.647-.16-.208-.317-.6-.224-.773a1.07,1.07,0,0,1,.762-.341c1.244-.113,1.223-.1,1.3-1.392A21.547,21.547,0,0,0,52.99,5.588c-1.549-.489-3.171-.75-4.879-1.143" transform="translate(-17.369 0)" fill="#3454d1"/>
    <path id="Path_30464" data-name="Path 30464" d="M40.677,46.882q-5.131,0-10.262,0c-1.328,0-1.734-.535-1.406-1.819a12.086,12.086,0,0,1,23.323-.1c.369,1.378-.048,1.923-1.484,1.925q-5.086,0-10.171,0" transform="translate(-10.434 -13.033)" fill="#3454d1"/>
    <path id="Path_30465" data-name="Path 30465" d="M43.928,15.083a6.1,6.1,0,1,1-6.112,6.091,6.084,6.084,0,0,1,6.112-6.091" transform="translate(-13.653 -5.445)" fill="#3454d1"/>
    <path id="Path_30466" data-name="Path 30466" d="M4.234,63.539a4.356,4.356,0,0,1,1.055.93q3.89,6.757,7.7,13.557A1.374,1.374,0,0,1,12.4,80.1q-1.165.7-2.364,1.342a1.429,1.429,0,0,1-2.151-.621Q4.073,74.126.3,67.409a1.367,1.367,0,0,1,.565-2.137c.776-.467,1.569-.908,2.366-1.341a9.748,9.748,0,0,1,1.006-.393m.448,4.033,0-.413c-.355-.241-.737-.7-1.057-.663a1.237,1.237,0,0,0-.854.873c0,.3.521.815.86.857.32.038.7-.417,1.053-.654" transform="translate(0 -22.939)" fill="#3454d1"/>
    <path id="Path_30467" data-name="Path 30467" d="M18.55,6.8l2.176,3.753-5.648,5.683-3.763-2.168A25.988,25.988,0,0,1,18.55,6.8" transform="translate(-4.085 -2.457)" fill="#3454d1"/>
    <path id="Path_30468" data-name="Path 30468" d="M4.512,43.631H8.851c.691,2.567,1.361,5.056,2.068,7.681L7.164,53.491a25.3,25.3,0,0,1-2.652-9.86" transform="translate(-1.629 -15.752)" fill="#3454d1"/>
    <path id="Path_30469" data-name="Path 30469" d="M7.163,22.754l3.806,2.19C10.272,27.5,9.592,30,8.884,32.6H4.526a25.171,25.171,0,0,1,2.637-9.841" transform="translate(-1.634 -8.215)" fill="#3454d1"/>
    <path id="Path_30470" data-name="Path 30470" d="M29.395,6.421,27.239,2.673A25.566,25.566,0,0,1,37.063.024V4.366L29.395,6.421" transform="translate(-9.834 -0.009)" fill="#3454d1"/>
  </g>
</svg>
