<svg xmlns="http://www.w3.org/2000/svg" width="63.25" height="58.828" viewBox="0 0 63.25 58.828">
  <g id="E-Services_Management_White" data-name="E-Services Management White" transform="translate(10222.943 4400.925)">
    <path id="Path_30492" data-name="Path 30492" d="M195.121,616.37c0-2.326,0-4.589,0-6.852,0-.314.111-.711-.038-.925-.306-.44-.709-1.028-1.151-1.1-.622-.109-1.071.427-1.073,1.135-.007,2.967-.014,5.935,0,8.9.006,1.048.723,1.2,1.583,1.2q7.594-.018,15.188-.006h1.187v4.53c-.348.017-.685.048-1.022.048q-9.793,0-19.587,0c-1.615,0-1.939-.331-1.939-1.975q0-11.154,0-22.308c0-2.676,1.308-3.976,3.982-3.98,1.536,0,3.074.039,4.608-.018a1.241,1.241,0,0,1,1.356.826c.8,1.7,1.637,3.391,2.544,5.039a1.687,1.687,0,0,0,1.156.8,1.534,1.534,0,0,0,1.058-.79c.913-1.684,1.763-3.4,2.586-5.133a1.114,1.114,0,0,1,1.193-.74c1.71.041,3.421.005,5.132.021a13.272,13.272,0,0,1,1.326.15V616.37Z" transform="translate(-10409.01 -4965.403)" fill="#3454d1"/>
    <path id="Path_30493" data-name="Path 30493" d="M351.838,607.651h-8.589c-.14-1.821-.31-3.586-.4-5.356a1.307,1.307,0,0,0-1.518-1.428q-5.24.013-10.48,0a1.352,1.352,0,0,0-1.567,1.5c-.081,1.738-.244,3.473-.377,5.277H318.084c-.02-.34-.053-.645-.053-.95q-.005-7.6,0-15.193c0-1.53.376-1.906,1.935-1.907q14.986-.007,29.972,0c1.536,0,1.94.4,1.942,1.919q.01,7.6,0,15.193c0,.277-.024.554-.042.951" transform="translate(-10511.576 -4961.11)" fill="#3454d1"/>
    <path id="Path_30494" data-name="Path 30494" d="M210.006,508.524a27.271,27.271,0,0,0,10.5-2.858,1.007,1.007,0,0,1,.889.151,11.857,11.857,0,0,0,6.57,2.692c.119,3.884.614,7.836-2.622,10.925a8.524,8.524,0,0,1-9.542,2.015,8.678,8.678,0,0,1-5.765-7.787c-.152-1.658-.026-3.342-.026-5.138m8.958,11.27a6.139,6.139,0,0,0,5.255-2.368c.473-.607.71-1.288-.011-1.834-.694-.526-1.259-.19-1.774.437a4.5,4.5,0,0,1-6.851,0c-.516-.632-1.081-.955-1.774-.431-.725.548-.479,1.23-.009,1.832a6.081,6.081,0,0,0,5.163,2.369m.017-6.728a8.829,8.829,0,0,0-.01-1.287,1.049,1.049,0,0,0-1.539-.851c-1.182.7-.663,1.875-.666,2.846,0,.482.477.967.747,1.445a.248.248,0,0,0,.186.079,12.22,12.22,0,0,0,2.591-.045,1.491,1.491,0,0,0,.914-1.139c-.021-.368-.636-.772-1.07-1.021-.257-.148-.669-.027-1.152-.027m6.931-.849q.008-.253.015-.506c-.418-.311-.811-.825-1.261-.882a.9.9,0,0,0-1.045,1.1c.1.425.614,1.012.984,1.044.411.036.869-.477,1.307-.751m-11.31.071q.019-.249.039-.5c-.4-.338-.765-.878-1.215-.965a.9.9,0,0,0-1.1,1.036,1.56,1.56,0,0,0,.923,1.1c.41.059.9-.426,1.353-.674" transform="translate(-10426.152 -4894.738)" fill="#3454d1"/>
    <path id="Path_30495" data-name="Path 30495" d="M378.539,654.318h9.178l.994,15.857H377.557c.328-5.3.652-10.527.982-15.857" transform="translate(-10558.633 -5012.28)" fill="#3454d1"/>
    <path id="Path_30496" data-name="Path 30496" d="M216.025,461.744c-.245.016-.418.015-.586.041-1.092.169-1.581-.11-1.82-1.385a11.24,11.24,0,0,0-22.058.489c-.112.712-.366.978-1.064.9a11.317,11.317,0,0,0-1.218-.008c-.526-6.021,6.187-12.337,13.139-12.492,7.027-.158,13.9,6.083,13.607,12.453" transform="translate(-10409.784 -4850.213)" fill="#3454d1"/>
    <path id="Path_30497" data-name="Path 30497" d="M210.476,478.809a8.7,8.7,0,0,1,4.861-6.879c3.276-1.635,6.45-1.274,9.625.871a25.141,25.141,0,0,1-14.486,6.008" transform="translate(-10426.562 -4867.306)" fill="#3454d1"/>
    <path id="Path_30498" data-name="Path 30498" d="M306.9,519.439c1.259,0,2.368-.04,3.472.015a1.084,1.084,0,0,1,1.081,1.183q.023,2.2,0,4.4a1.136,1.136,0,0,1-1.182,1.211c-1.143.052-2.291.014-3.371.014Z" transform="translate(-10502.78 -4905.653)" fill="#3454d1"/>
    <path id="Path_30499" data-name="Path 30499" d="M182.31,519.4v6.829c-1.084,0-2.263.047-3.437-.018a1.124,1.124,0,0,1-1.122-1.257c.005-1.43,0-2.86,0-4.289a1.136,1.136,0,0,1,1.226-1.257c1.038-.033,2.079-.008,3.332-.008" transform="translate(-10400.694 -4905.624)" fill="#3454d1"/>
    <path id="Path_30500" data-name="Path 30500" d="M318.3,686.886h10.471c.066.087.141.139.145.2.118,1.989.117,1.989-1.887,1.989-2.335,0-4.67.005-7.005,0-1.557-.005-1.922-.451-1.723-2.182" transform="translate(-10511.753 -5038.023)" fill="#3454d1"/>
    <path id="Path_30501" data-name="Path 30501" d="M307.3,712.495v-4.553a16.671,16.671,0,0,1,3.425.044c1.729.374.893,1.911,1.043,2.972a1.194,1.194,0,0,1-1.17,1.523c-1.067.062-2.141.015-3.3.015" transform="translate(-10503.097 -5054.609)" fill="#3454d1"/>
    <path id="Path_30502" data-name="Path 30502" d="M447.339,687.045c.29,1.6-.133,2.142-1.654,2.148-2.154.01-4.309,0-6.58,0-.049-.733-.093-1.4-.142-2.151Z" transform="translate(-10607.17 -5038.149)" fill="#3454d1"/>
    <path id="Path_30503" data-name="Path 30503" d="M192.09,562.693c.586,0,1.174-.024,1.758.013a.9.9,0,0,1,.615.269c1.014,1.378,2,2.779,3.008,4.2-.819,0-1.743.014-2.666-.013a.737.737,0,0,1-.523-.273c-.844-1.29-1.662-2.6-2.487-3.9l.3-.3" transform="translate(-10411.795 -4939.849)" fill="#3454d1"/>
    <path id="Path_30504" data-name="Path 30504" d="M277.338,492.192a8.8,8.8,0,0,1-4.922-1.9l3.069-2.359a8.271,8.271,0,0,1,1.853,4.261" transform="translate(-10475.522 -4880.758)" fill="#3454d1"/>
    <path id="Path_30505" data-name="Path 30505" d="M248.947,595.517l-1.5,2.993-1.528-2.993Z" transform="translate(-10454.58 -4965.8)" fill="#3454d1"/>
  </g>
</svg>
