<svg xmlns="http://www.w3.org/2000/svg" width="58.978" height="58.931" viewBox="0 0 58.978 58.931">
  <g id="Reporting_Dashboards_blue" data-name="Reporting &amp; Dashboards blue" transform="translate(10261.682 4284.759)">
    <path id="Path_30475" data-name="Path 30475" d="M1.962,1049.394H57.018v-1.044c0-9.613-.014-19.225.013-28.837a3.167,3.167,0,0,0-2.073-3.37.922.922,0,0,1-.537-1.347c.249-.572.746-.635,1.311-.462a4.863,4.863,0,0,1,3.229,4.048c.009.121.014.243.014.365q0,17.932-.01,35.864a4.784,4.784,0,0,1-4.479,4.677c-.242.017-.486.014-.73.014q-24.27,0-48.541,0a4.808,4.808,0,0,1-4.91-3.194,5.221,5.221,0,0,1-.291-1.779q-.025-17.659-.008-35.317a4.842,4.842,0,0,1,4.951-4.979c6.052-.03,12.1-.007,18.157-.013.732,0,1.34.248,1.323,1.034s-.647.989-1.369.988q-8.8-.013-17.61,0c-2.436,0-3.494,1.056-3.5,3.494q0,14.419,0,28.838v1.025m27.585,4.057a9.576,9.576,0,0,0-2,.038c-.38.082-.679.541-1.014.831.312.349.6.97.941,1a22.845,22.845,0,0,0,4,0,1.413,1.413,0,0,0,.914-.986c.077-.553-.4-.9-1.022-.889s-1.216,0-1.824,0" transform="translate(-10261.682 -5292.991)" fill="#3454d1"/>
    <path id="Path_30476" data-name="Path 30476" d="M153.305,1002.536l5.513,5.5c-3.5,3.528-10.515,5.132-16.386,1.931-6.141-3.348-9.319-10.563-7.418-16.95,1.818-6.106,7.957-11.09,13.208-10.679v7.721c-5.657,1.315-6.713,6.594-5.218,9.768a6.93,6.93,0,0,0,10.3,2.708" transform="translate(-10371.608 -5267.074)" fill="#3454d1"/>
    <path id="Path_30477" data-name="Path 30477" d="M221.33,990.178v-7.752c6.316.043,13.226,5.8,13.59,13.619h-1.5c-1.883,0-3.766.015-5.648-.018a.966.966,0,0,1-.752-.395c-1.335-3.5-2.229-4.382-5.687-5.454" transform="translate(-10442.62 -5267.166)" fill="#3454d1"/>
    <path id="Path_30478" data-name="Path 30478" d="M113.151,1278.988q-4.7,0-9.391,0c-1.364,0-1.716-.55-1.124-1.76s1.172-2.4,1.817-3.569a1.115,1.115,0,0,1,.8-.5q7.932-.044,15.864,0a1.118,1.118,0,0,1,.79.529c.654,1.2,1.256,2.425,1.846,3.657.5,1.054.135,1.639-1.033,1.643-3.191.01-6.382,0-9.573,0" transform="translate(-10345.361 -5504.818)" fill="#3454d1"/>
    <path id="Path_30479" data-name="Path 30479" d="M28.9,1105.64H29.98c4.41,0,8.819.008,13.228-.008.707,0,1.309.1,1.425.919.089.618-.511,1.058-1.407,1.059q-7.435.009-14.87,0c-1.119,0-1.407-.295-1.408-1.4q-.006-7.482-.005-14.965c0-.7.076-1.339.965-1.333.87.005.99.643.989,1.337q0,6.615,0,13.231v1.161" transform="translate(-10283.708 -5355.035)" fill="#3454d1"/>
    <path id="Path_30480" data-name="Path 30480" d="M255.874,1068.28a14.14,14.14,0,0,1-3.463,8.486l-5.5-5.61,1.219-2.876Z" transform="translate(-10463.528 -5337.351)" fill="#3454d1"/>
    <path id="Path_30481" data-name="Path 30481" d="M53.166,1110.167c-1.065,1.1-2.017,2.074-2.963,3.057-.49.509-1.03.846-1.641.244s-.251-1.146.244-1.637c1.143-1.134,2.275-2.279,3.421-3.411.738-.729,1.171-.73,1.921.018.642.641,1.253,1.313,1.969,2.068,1.27-1.3,2.433-2.5,3.6-3.69.17-.174.343-.345.517-.514a.977.977,0,0,1,1.46-.112c.536.49.4,1.038-.073,1.512-1.176,1.188-2.362,2.366-3.544,3.548-.387.387-.772.775-1.164,1.156a1.011,1.011,0,0,1-1.6-.01c-.683-.69-1.348-1.4-2.148-2.231" transform="translate(-10301.113 -5368.115)" fill="#3454d1"/>
    <path id="Path_30482" data-name="Path 30482" d="M175.9,1156.179c-2.459,0-4.917-.005-7.376,0-.687,0-1.315-.065-1.391-.93-.059-.676.442-1.064,1.374-1.065q7.467-.008,14.933-.006c.723,0,1.338.222,1.351,1.009.013.812-.609,1-1.334,1-2.519-.016-5.039-.006-7.558-.006" transform="translate(-10398.312 -5407.575)" fill="#3454d1"/>
    <path id="Path_30483" data-name="Path 30483" d="M176.006,1176.07c2.464,0,4.928.011,7.392-.007.714-.005,1.361.125,1.364.956,0,.8-.608,1.027-1.335,1.026-5.019-.006-10.038,0-15.057-.008-.892,0-1.384-.482-1.26-1.172s.631-.8,1.231-.8c2.555.009,5.11,0,7.665,0" transform="translate(-10398.278 -5425.463)" fill="#3454d1"/>
  </g>
</svg>
