<svg xmlns="http://www.w3.org/2000/svg" xmlns:xlink="http://www.w3.org/1999/xlink" width="616" height="671" viewBox="0 0 616 671">
  <defs>
    <linearGradient id="linear-gradient" x1="0.5" x2="0.5" y2="1" gradientUnits="objectBoundingBox">
      <stop offset="0" stop-color="#f8f9fa"/>
      <stop offset="0.466" stop-color="#fafbfc"/>
      <stop offset="0.683" stop-color="#fbfcfd"/>
      <stop offset="1" stop-color="#fff"/>
    </linearGradient>
  </defs>
  <g id="SLA_Implementation" data-name="SLA Implementation" transform="translate(-180 -4920)">
    <rect id="Rectangle_1451" data-name="Rectangle 1451" width="616" height="671" rx="28" transform="translate(180 4920)" fill="url(#linear-gradient)"/>
    <g id="Group_6691" data-name="Group 6691" transform="translate(13624.726 5699.683)">
      <rect id="Rectangle_1479" data-name="Rectangle 1479" width="33.514" height="0.322" transform="translate(-13389.556 -203.205)" fill="#ebebeb"/>
      <rect id="Rectangle_1480" data-name="Rectangle 1480" width="69.735" height="0.322" transform="translate(-13268.558 -206.698)" fill="#ebebeb"/>
      <rect id="Rectangle_1481" data-name="Rectangle 1481" width="33.927" height="0.322" transform="translate(-13354.754 -191.23)" fill="#ebebeb"/>
      <rect id="Rectangle_1482" data-name="Rectangle 1482" width="24.788" height="0.322" transform="translate(-12902.041 -193.395)" fill="#ebebeb"/>
      <rect id="Rectangle_1483" data-name="Rectangle 1483" width="39.044" height="0.322" transform="translate(-12952.57 -193.395)" fill="#ebebeb"/>
      <rect id="Rectangle_1484" data-name="Rectangle 1484" width="70.328" height="0.322" transform="translate(-13124.318 -198.835)" fill="#ebebeb"/>
      <path id="Path_30596" data-name="Path 30596" d="M294.452,419.531H45.557a7.36,7.36,0,0,1-7.347-7.36V62.3A7.36,7.36,0,0,1,45.557,55H294.452a7.36,7.36,0,0,1,7.36,7.36V412.171A7.36,7.36,0,0,1,294.452,419.531ZM45.557,55.258A7.038,7.038,0,0,0,38.532,62.3V412.171a7.038,7.038,0,0,0,7.025,7.038H294.452a7.051,7.051,0,0,0,7.038-7.038V62.3a7.051,7.051,0,0,0-7.038-7.038Z" transform="translate(-13446.136 -692.497)" fill="#ebebeb"/>
      <path id="Path_30597" data-name="Path 30597" d="M510.767,419.531H261.86a7.373,7.373,0,0,1-7.36-7.36V62.3a7.373,7.373,0,0,1,7.36-7.3H510.767a7.36,7.36,0,0,1,7.335,7.3V412.171A7.36,7.36,0,0,1,510.767,419.531ZM261.86,55.258a7.051,7.051,0,0,0-7.038,7.038V412.171a7.051,7.051,0,0,0,7.038,7.038H510.767a7.051,7.051,0,0,0,7.038-7.038V62.3a7.051,7.051,0,0,0-7.038-7.038Z" transform="translate(-13383.626 -692.497)" fill="#ebebeb"/>
      <rect id="Rectangle_1485" data-name="Rectangle 1485" width="35.448" height="135.423" transform="translate(-12923.852 -350.899)" fill="#e6e6e6"/>
      <path id="Path_30598" data-name="Path 30598" d="M437.614,386.695h6.729V367.54H430.55Z" transform="translate(-13332.746 -602.171)" fill="#f0f0f0"/>
      <rect id="Rectangle_1486" data-name="Rectangle 1486" width="35.448" height="135.423" transform="translate(-13126.123 -350.899)" fill="#e6e6e6"/>
      <rect id="Rectangle_1487" data-name="Rectangle 1487" width="208.149" height="123.667" transform="translate(-13096.552 -350.899)" fill="#f0f0f0"/>
      <rect id="Rectangle_1488" data-name="Rectangle 1488" width="93.453" height="61.705" transform="translate(-13089.63 -251.182) rotate(-90)" fill="#e6e6e6"/>
      <path id="Path_30599" data-name="Path 30599" d="M319.691,287.71H307.484a19.335,19.335,0,0,1-14.024-6.02h40.256A19.335,19.335,0,0,1,319.691,287.71Z" transform="translate(-13372.366 -626.982)" fill="#f0f0f0"/>
      <rect id="Rectangle_1489" data-name="Rectangle 1489" width="93.453" height="61.705" transform="translate(-13023.323 -251.169) rotate(-90)" fill="#e6e6e6"/>
      <path id="Path_30600" data-name="Path 30600" d="M371.608,287.71H359.4a19.335,19.335,0,0,1-14.012-6.02h40.243A19.335,19.335,0,0,1,371.608,287.71Z" transform="translate(-13357.358 -626.982)" fill="#f0f0f0"/>
      <rect id="Rectangle_1490" data-name="Rectangle 1490" width="93.453" height="61.705" transform="translate(-12957.03 -251.169) rotate(-90)" fill="#e6e6e6"/>
      <path id="Path_30601" data-name="Path 30601" d="M423.051,287.71H410.844a19.335,19.335,0,0,1-14.024-6.02h40.191a19.335,19.335,0,0,1-13.96,6.02Z" transform="translate(-13342.495 -626.982)" fill="#f0f0f0"/>
      <path id="Path_30602" data-name="Path 30602" d="M286.5,386.695H279.77V367.54h13.792Z" transform="translate(-13376.323 -602.171)" fill="#f0f0f0"/>
      <rect id="Rectangle_1491" data-name="Rectangle 1491" width="195.285" height="182.91" transform="translate(-13369.191 -613.019)" fill="#e6e6e6"/>
      <rect id="Rectangle_1492" data-name="Rectangle 1492" width="199.023" height="182.91" transform="translate(-13365.917 -613.019)" fill="#f0f0f0"/>
      <rect id="Rectangle_1493" data-name="Rectangle 1493" width="195.285" height="13.032" transform="translate(-13369.191 -430.109)" fill="#e6e6e6"/>
      <rect id="Rectangle_1494" data-name="Rectangle 1494" width="199.023" height="13.032" transform="translate(-13354.238 -430.109)" fill="#f0f0f0"/>
      <rect id="Rectangle_1495" data-name="Rectangle 1495" width="163.266" height="179.391" transform="translate(-13176.703 -603.197) rotate(90)" fill="#fafafa"/>
      <path id="Path_30603" data-name="Path 30603" d="M92.99,244.876,150.622,81.61h27.2L120.188,244.876Z" transform="translate(-13430.304 -684.807)" fill="#fff"/>
      <path id="Path_30604" data-name="Path 30604" d="M82.1,188.212a.709.709,0,0,0,.709-.709V86.716a.709.709,0,0,0-.709-.7.7.7,0,0,0-.7.7V187.5a.709.709,0,0,0,.7.709Z" transform="translate(-13433.653 -683.532)" fill="#f0f0f0"/>
      <path id="Path_30605" data-name="Path 30605" d="M118.63,244.876,176.262,81.61h10.6L129.239,244.876Z" transform="translate(-13422.893 -684.807)" fill="#fff"/>
      <rect id="Rectangle_1496" data-name="Rectangle 1496" width="163.266" height="1.25" transform="translate(-13176.716 -603.197) rotate(90)" fill="#e6e6e6"/>
      <path id="Path_30606" data-name="Path 30606" d="M270.987,97.679H75.7L74.8,84.57H270.085Z" transform="translate(-13435.562 -683.951)" fill="#e6e6e6" opacity="0.5"/>
      <path id="Path_30607" data-name="Path 30607" d="M270.987,105.119H75.7L74.8,92.01H270.085Z" transform="translate(-13435.562 -681.801)" fill="#e6e6e6" opacity="0.5"/>
      <path id="Path_30608" data-name="Path 30608" d="M270.987,114.049H75.7l-.9-13.109H270.085Z" transform="translate(-13435.562 -679.22)" fill="#e6e6e6" opacity="0.5"/>
      <path id="Path_30609" data-name="Path 30609" d="M270.987,123.989H75.7l-.9-13.109H270.085Z" transform="translate(-13435.562 -676.347)" fill="#e6e6e6" opacity="0.5"/>
      <path id="Path_30610" data-name="Path 30610" d="M270.987,135.9H75.7l-.9-13.109H270.085Z" transform="translate(-13435.562 -672.905)" fill="#e6e6e6" opacity="0.5"/>
      <path id="Path_30611" data-name="Path 30611" d="M270.987,149.289H75.7l-.9-13.109H270.085Z" transform="translate(-13435.562 -669.036)" fill="#e6e6e6" opacity="0.5"/>
      <rect id="Rectangle_1497" data-name="Rectangle 1497" width="57.799" height="121.424" transform="translate(-13220.271 -336.901)" fill="#e6e6e6"/>
      <path id="Path_30612" data-name="Path 30612" d="M225.487,386.108H231.3V369.57H219.39Z" transform="translate(-13393.773 -601.584)" fill="#f0f0f0"/>
      <rect id="Rectangle_1498" data-name="Rectangle 1498" width="57.799" height="121.424" transform="translate(-13362.449 -336.901)" fill="#e6e6e6"/>
      <rect id="Rectangle_1499" data-name="Rectangle 1499" width="147.243" height="111.28" transform="translate(-13309.729 -336.901)" fill="#f0f0f0"/>
      <rect id="Rectangle_1500" data-name="Rectangle 1500" width="138.233" height="30.524" transform="translate(-13305.218 -331.977)" fill="#e6e6e6"/>
      <path id="Path_30613" data-name="Path 30613" d="M182.859,301.715H169.8c-5.672,0-11.085-3.764-14.991-10.415h43.053C193.957,297.951,188.569,301.715,182.859,301.715Z" transform="translate(-13412.438 -624.205)" fill="#f0f0f0"/>
      <path id="Path_30614" data-name="Path 30614" d="M120.2,386.108H114.39V369.57H126.3Z" transform="translate(-13424.119 -601.584)" fill="#f0f0f0"/>
      <rect id="Rectangle_1501" data-name="Rectangle 1501" width="138.233" height="30.524" transform="translate(-13305.218 -296.529)" fill="#e6e6e6"/>
      <path id="Path_30615" data-name="Path 30615" d="M182.859,329.215H169.8c-5.672,0-11.085-3.764-14.991-10.415h43.053C193.957,325.5,188.569,329.215,182.859,329.215Z" transform="translate(-13412.438 -616.257)" fill="#f0f0f0"/>
      <rect id="Rectangle_1502" data-name="Rectangle 1502" width="138.233" height="30.524" transform="translate(-13305.218 -261.081)" fill="#e6e6e6"/>
      <path id="Path_30616" data-name="Path 30616" d="M182.859,356.715H169.8c-5.672,0-11.085-3.764-14.991-10.415h43.053C193.957,352.951,188.569,356.715,182.859,356.715Z" transform="translate(-13412.438 -608.309)" fill="#f0f0f0"/>
      <rect id="Rectangle_1503" data-name="Rectangle 1503" width="112.221" height="150.092" transform="translate(-13041.333 -587.909)" fill="#e6e6e6"/>
      <rect id="Rectangle_1504" data-name="Rectangle 1504" width="117.944" height="150.092" transform="translate(-13039.759 -587.909)" fill="#f0f0f0"/>
      <rect id="Rectangle_1505" data-name="Rectangle 1505" width="117.441" height="85.294" transform="translate(-12938.147 -571.59) rotate(90)" fill="#fff"/>
      <rect id="Rectangle_1506" data-name="Rectangle 1506" width="117.441" height="1.276" transform="translate(-12938.147 -571.59) rotate(90)" fill="#e6e6e6"/>
      <path id="Path_30617" data-name="Path 30617" d="M376.749,132.42H351.214a.954.954,0,0,0-.954.941v25.484a23.279,23.279,0,0,0,23.2,23.2h25.484a.954.954,0,0,0,.954-.954V155.661A23.267,23.267,0,0,0,376.749,132.42ZM373.565,180.2a21.372,21.372,0,0,1-21.346-21.359V134.353H376.71A21.385,21.385,0,0,1,398.069,155.7Z" transform="translate(-13355.95 -670.122)" fill="#f0f0f0"/>
      <g id="freepik--Shadow--inject-1" transform="translate(-13384.852 -186.448)">
        <ellipse id="freepik--path--inject-1" cx="249.926" cy="14.592" rx="249.926" ry="14.592" fill="#f5f5f5"/>
      </g>
      <g id="freepik--Agreement--inject-1" transform="translate(-13191.483 -607.85)">
        <path id="Path_30618" data-name="Path 30618" d="M258.285,90.89C257.112,83.775,261.92,78,269.035,78H217.05c-7.115,0-11.923,5.762-10.75,12.89Z" transform="translate(-206.123 -78)" fill="#3454d1"/>
        <path id="Path_30619" data-name="Path 30619" d="M258.285,90.89C257.112,83.775,261.92,78,269.035,78H217.05c-7.115,0-11.923,5.762-10.75,12.89Z" transform="translate(-206.123 -78)" opacity="0.3"/>
        <path id="Path_30620" data-name="Path 30620" d="M266.586,78H214.6a15.829,15.829,0,0,1,15.03,12.89l11.382,68.73a15.842,15.842,0,0,0,15.03,12.89H282.26c7.115,0,11.923-5.775,10.75-12.89L281.615,90.89A15.829,15.829,0,0,0,266.586,78Z" transform="translate(-203.673 -78)" fill="#3454d1"/>
        <path id="Path_30621" data-name="Path 30621" d="M257.5,141.35c1.173,7.115-3.635,12.89-10.75,12.89h51.986a10.634,10.634,0,0,0,10.75-12.89Z" transform="translate(-194.382 -59.691)" fill="#3454d1"/>
        <path id="Path_30622" data-name="Path 30622" d="M257.5,141.35c1.173,7.115-3.635,12.89-10.75,12.89h51.986a10.634,10.634,0,0,0,10.75-12.89Z" transform="translate(-194.382 -59.691)" opacity="0.3"/>
        <path id="Path_30623" data-name="Path 30623" d="M270.106,92.977H233a.954.954,0,0,1-.9-.773h0a.632.632,0,0,1,.645-.773h37.11a.954.954,0,0,1,.9.773h0a.632.632,0,0,1-.645.773Z" transform="translate(-198.622 -74.119)" fill="#fff"/>
        <path id="Path_30624" data-name="Path 30624" d="M249.347,97.137H233.686a.954.954,0,0,1-.9-.773h0a.632.632,0,0,1,.645-.773H249.09a.954.954,0,0,1,.9.773h0a.645.645,0,0,1-.644.773Z" transform="translate(-198.423 -72.917)" fill="#fff"/>
        <path id="Path_30625" data-name="Path 30625" d="M259.5,97.137H248.673a.941.941,0,0,1-.889-.773h0a.632.632,0,0,1,.632-.773h10.828a.941.941,0,0,1,.889.773h0a.632.632,0,0,1-.632.773Z" transform="translate(-194.088 -72.916)" fill="#fff"/>
        <path id="Path_30626" data-name="Path 30626" d="M271.538,101.344H234.376a.941.941,0,0,1-.9-.761h0a.632.632,0,0,1,.644-.773h37.111a.954.954,0,0,1,.9.773h0a.632.632,0,0,1-.593.761Z" transform="translate(-198.224 -71.697)" fill="#fff"/>
        <path id="Path_30627" data-name="Path 30627" d="M268.515,105.467h-33.45a.954.954,0,0,1-.9-.773h0a.645.645,0,0,1,.644-.773h33.514a.954.954,0,0,1,.9.773h0a.645.645,0,0,1-.709.773Z" transform="translate(-198.023 -70.509)" fill="#fff"/>
        <path id="Path_30628" data-name="Path 30628" d="M258.248,109.624H235.755a.954.954,0,0,1-.9-.773h0a.632.632,0,0,1,.644-.761H258a.967.967,0,0,1,.9.761h0a.645.645,0,0,1-.657.773Z" transform="translate(-197.824 -69.304)" fill="#fff"/>
        <path id="Path_30629" data-name="Path 30629" d="M273.517,113.8H236.445a.954.954,0,0,1-.9-.773h0a.644.644,0,0,1,.645-.773H273.3a.954.954,0,0,1,.9.773h0a.632.632,0,0,1-.683.773Z" transform="translate(-197.625 -68.102)" fill="#fff"/>
        <path id="Path_30630" data-name="Path 30630" d="M274.246,117.957H237.135a.954.954,0,0,1-.9-.773h0a.645.645,0,0,1,.645-.773H274a.941.941,0,0,1,.889.773h0a.632.632,0,0,1-.645.773Z" transform="translate(-197.425 -66.899)" fill="#fff"/>
        <path id="Path_30631" data-name="Path 30631" d="M260.331,122.114H237.825a.967.967,0,0,1-.9-.76h0a.645.645,0,0,1,.645-.773h22.506a.954.954,0,0,1,.9.773h0a.632.632,0,0,1-.645.76Z" transform="translate(-197.226 -65.694)" fill="#fff"/>
        <rect id="Rectangle_1507" data-name="Rectangle 1507" width="2.733" height="67.583" transform="translate(86.733 72.62) rotate(-148.19)" fill="#263238"/>
        <rect id="Rectangle_1508" data-name="Rectangle 1508" width="2.733" height="67.583" transform="translate(86.733 72.62) rotate(-148.19)" opacity="0.3"/>
        <rect id="Rectangle_1509" data-name="Rectangle 1509" width="2.733" height="67.583" transform="translate(82.098 69.749) rotate(-148.19)" fill="#263238"/>
        <rect id="Rectangle_1510" data-name="Rectangle 1510" width="2.733" height="67.583" transform="translate(82.098 69.749) rotate(-148.19)" opacity="0.3"/>
        <rect id="Rectangle_1511" data-name="Rectangle 1511" width="2.733" height="67.583" transform="translate(84.432 71.179) rotate(-148.19)" fill="#263238"/>
        <path id="Path_30632" data-name="Path 30632" d="M267.97,136.52l2.088,1.3L275,135.308l-6.961-4.318Z" transform="translate(-188.249 -62.686)" fill="#ff8b7b"/>
        <path id="Path_30633" data-name="Path 30633" d="M267.95,137.665l2.114-1.083-2.088-1.3Z" transform="translate(-188.255 -61.446)" fill="#263238"/>
        <path id="Path_30634" data-name="Path 30634" d="M273.257,138.9h-.09a11.434,11.434,0,0,1-4.447-3.274,19.4,19.4,0,0,0-2.436-2.2.735.735,0,0,0-.941,0,.619.619,0,0,0,0,.838,11.42,11.42,0,0,0,1.005,1.289.967.967,0,0,1,.116,1.147.889.889,0,0,1-1.018.322,15.12,15.12,0,0,1-1.444-.554.219.219,0,0,0-.309.309l.064.168a1.07,1.07,0,0,1-.1,1.057,1.083,1.083,0,0,1-.954.425,167.24,167.24,0,0,0-17.028.064.322.322,0,1,1,0-.644,168.494,168.494,0,0,1,17.092-.064.4.4,0,0,0,.387-.155.438.438,0,0,0,0-.438l-.064-.142a.864.864,0,0,1,1.173-1.173,10.311,10.311,0,0,0,1.366.529.232.232,0,0,0,.284,0,.309.309,0,0,0-.064-.374c-.374-.438-.722-.9-1.044-1.366a1.238,1.238,0,0,1,1.83-1.663,18.368,18.368,0,0,1,2.578,2.282,11.033,11.033,0,0,0,4.048,2.978.347.347,0,0,1,0,.644Z" transform="translate(-194.787 -62.205)" fill="#fff"/>
        <path id="Path_30635" data-name="Path 30635" d="M264.641,177.484l8.623-14.914H256.03Z" transform="translate(-191.7 -53.559)" fill="#3454d1"/>
      </g>
      <g id="freepik--character-2--inject-1" transform="translate(-13131.188 -551.778)">
        <path id="Path_30636" data-name="Path 30636" d="M347.437,143.246a19.051,19.051,0,0,0-13.328-4.769c-3.132-6.316-9.59-10-16.422-8.752-9.8,1.792-12.787,13.56-5.981,17.853a28.746,28.746,0,0,0,7.244,3.287v.309a22.107,22.107,0,0,0-14.54,19.077c-1.005,14.592,14.669,23.125,23.2,15a45.108,45.108,0,0,0,3.351-3.545c1.65,2.32,3.429,4.692,5.349,7.167C357.633,179.055,361.23,155.144,347.437,143.246Z" transform="translate(-238.026 -119.193)" fill="#263238"/>
        <path id="Path_30637" data-name="Path 30637" d="M315.8,184.358c-.129,1.8-.284,3.377-.516,5.027s-.451,3.248-.722,4.86c-.541,3.235-1.289,6.445-2.05,9.6a101.408,101.408,0,0,1-6.548,18.678l-.271.567c-.1.219-.129.3-.322.683a10.96,10.96,0,0,1-1.147,1.8,11.6,11.6,0,0,1-2.952,2.578,17.261,17.261,0,0,1-6.033,2.2,38.18,38.18,0,0,1-10.609.142,86.232,86.232,0,0,1-19.116-4.6l1.418-5.156c2.978.451,6.084.864,9.126,1.134a79.252,79.252,0,0,0,9.023.464,33.335,33.335,0,0,0,8.224-.877,8.057,8.057,0,0,0,2.72-1.225,1.831,1.831,0,0,0,.5-.554.826.826,0,0,0,.077-.206l.361-.928c.541-1.379,1.07-2.771,1.521-4.2s.928-2.849,1.379-4.28c.812-2.9,1.611-5.8,2.269-8.765s1.2-5.929,1.7-8.92.9-6.084,1.2-8.868Z" transform="translate(-249.253 -103.576)" fill="#ffb573"/>
        <path id="Path_30638" data-name="Path 30638" d="M300.5,174.323c-4.357,1.1-7.4,19-7.4,19l11.988,8.147s11.5-18.046,8.147-22.828C309.728,173.653,306.841,172.7,300.5,174.323Z" transform="translate(-241.282 -106.444)" fill="#263238"/>
        <path id="Path_30639" data-name="Path 30639" d="M299.888,177.26l-3.338,18.033,6.729,4.576Z" transform="translate(-240.285 -105.385)" opacity="0.2"/>
        <path id="Path_30640" data-name="Path 30640" d="M264.964,212.686l-8.134,3.119,9.191,5.543s5.865-3.39,5.71-7.734l-.9-.516a6.845,6.845,0,0,0-5.865-.413Z" transform="translate(-251.764 -95.283)" fill="#ffb573"/>
        <path id="Path_30641" data-name="Path 30641" d="M264.089,212.89l-4.022,1.431a21.976,21.976,0,0,0-2.307.928s2.655,1.109,3.983.361a22.391,22.391,0,0,0,6.02-.361Z" transform="translate(-251.495 -95.088)" opacity="0.1"/>
        <path id="Path_30642" data-name="Path 30642" d="M252.9,221.034l6.922,5.762,7.322-6.213-9.178-5.543Z" transform="translate(-252.9 -94.466)" fill="#ffb573"/>
        <path id="Path_30643" data-name="Path 30643" d="M319.613,413.36H309.069l-.709-24.44h10.557Z" transform="translate(-236.872 -44.214)" fill="#ffb573"/>
        <path id="Path_30644" data-name="Path 30644" d="M313.07,406.93h11.846a.838.838,0,0,1,.851.722l1.289,9.384a1.689,1.689,0,0,1-1.689,1.869c-4.125-.064-6.123-.309-11.343-.309-3.2,0-12.413.335-16.847.335s-4.666-4.383-2.823-4.782c8.275-1.779,14.179-4.228,16.9-6.574A2.81,2.81,0,0,1,313.07,406.93Z" transform="translate(-241.234 -39.009)" fill="#263238"/>
        <g id="Group_6688" data-name="Group 6688" transform="translate(71.488 344.706)" opacity="0.2">
          <path id="Path_30645" data-name="Path 30645" d="M308.36,388.92l.361,12.606h10.557l-.361-12.606Z" transform="translate(-308.36 -388.92)"/>
        </g>
        <path id="Path_30646" data-name="Path 30646" d="M299.121,174.845s-5.027,1.766,5.04,63.69h42.859c-.722-17.44-.735-28.2,7.605-64a125.641,125.641,0,0,0-18.2-2.4,136.09,136.09,0,0,0-19.464,0C308.6,172.9,299.121,174.845,299.121,174.845Z" transform="translate(-239.904 -106.966)" fill="#263238"/>
        <path id="Path_30647" data-name="Path 30647" d="M324,191.72a19.078,19.078,0,0,1-9.938-3.145.309.309,0,0,1-.077-.438.322.322,0,0,1,.451-.09,18.33,18.33,0,0,0,10.66,2.99c1.4-.889,11.124-7.373,11.859-18.6a.323.323,0,1,1,.645.052c-.748,11.485-10.312,17.956-12.233,19.129a.27.27,0,0,1-.142,0A5.683,5.683,0,0,1,324,191.72Z" transform="translate(-235.264 -106.865)" fill="#fff"/>
        <path id="Path_30648" data-name="Path 30648" d="M308.01,189.719a.258.258,0,0,1-.168,0,4.073,4.073,0,0,1-1.573-3.068c-.606-3.931.851-10.8,3.867-14.36a.324.324,0,1,1,.464.451c-2.862,3.339-4.344,10.054-3.764,13.844a3.867,3.867,0,0,0,1.2,2.578,20.043,20.043,0,0,0,5.156-1.637.335.335,0,0,1,.425.168.323.323,0,0,1-.168.425,20.018,20.018,0,0,1-5.44,1.6Z" transform="translate(-237.515 -106.849)" fill="#fff"/>
        <path id="Path_30649" data-name="Path 30649" d="M330.6,155.06c-1.225,6.252-2.449,17.737,1.934,21.913,0,0-1.714,6.355-13.354,6.355-12.8,0-6.11-6.355-6.11-6.355,6.974-1.676,6.793-6.858,5.581-11.717Z" transform="translate(-236.015 -111.801)" fill="#ffb573"/>
        <path id="Path_30650" data-name="Path 30650" d="M332.676,172.138a136.094,136.094,0,0,0-19.464,0l-1.289.129c-1.56,2.939-1.946,7.463,1.779,14.179,0,0,17.066-6.883,21.514-14.076A23.232,23.232,0,0,0,332.676,172.138Z" transform="translate(-236.168 -106.966)" fill="#ffb573"/>
        <path id="Path_30651" data-name="Path 30651" d="M324.09,158.29,317,164.361a19.233,19.233,0,0,1,.606,3.455c2.668-.387,6.329-3.313,6.613-6.11a9.241,9.241,0,0,0-.129-3.416Z" transform="translate(-234.375 -110.868)" opacity="0.2"/>
        <path id="Path_30652" data-name="Path 30652" d="M338.532,150.609c-2.385,10.2-3.184,14.566-9.294,18.961-9.178,6.626-21.178,1.469-21.913-9.242-.645-9.629,3.377-24.7,14.179-27.069a14.3,14.3,0,0,1,17.028,17.35Z" transform="translate(-237.19 -118.203)" fill="#ffb573"/>
        <path id="Path_30653" data-name="Path 30653" d="M304.47,223.576s-8.327,81.3-7.631,113.433c.722,33.514,12.98,109.81,12.98,109.81h14.308s-2.256-74.389-.993-107.258C324.514,303.713,335.9,223.55,335.9,223.55Z" transform="translate(-240.213 -92.007)" fill="#3454d1"/>
        <path id="Path_30654" data-name="Path 30654" d="M304.47,223.576s-8.327,81.3-7.631,113.433c.722,33.514,12.98,109.81,12.98,109.81h14.308s-2.256-74.389-.993-107.258C324.514,303.713,335.9,223.55,335.9,223.55Z" transform="translate(-240.213 -92.007)" fill="#fff" opacity="0.3"/>
        <path id="Path_30655" data-name="Path 30655" d="M322.959,398.544H306.215l-1.225-5.337,18.755-.657Z" transform="translate(-237.846 -43.165)" fill="#263238"/>
        <path id="Path_30656" data-name="Path 30656" d="M318.234,240.386c-10.518,21.178-2.114,59.81,1.611,74.182,1.908-21.578,5.156-47.977,7.644-67.351C325.852,236.262,323.094,230.629,318.234,240.386Z" transform="translate(-235.493 -88.593)" opacity="0.2"/>
        <path id="Path_30657" data-name="Path 30657" d="M358.594,413.36H348.037l-3.867-24.44h10.544Z" transform="translate(-226.522 -44.214)" fill="#ffb573"/>
        <path id="Path_30658" data-name="Path 30658" d="M350.921,406.93h11.9a.98.98,0,0,1,.928.722l2.578,9.384a1.47,1.47,0,0,1-1.457,1.869c-4.138-.064-6.161-.309-11.382-.309-3.21,0-12.374.335-16.757.335s-5.233-4.383-3.442-4.782c8.043-1.779,13.56-4.228,16.048-6.574a2.449,2.449,0,0,1,1.585-.645Z" transform="translate(-229.922 -39.009)" fill="#263238"/>
        <g id="Group_6689" data-name="Group 6689" transform="translate(117.648 344.706)" opacity="0.2">
          <path id="Path_30659" data-name="Path 30659" d="M344.17,388.92l2,12.606h10.557l-2-12.606Z" transform="translate(-344.17 -388.92)"/>
        </g>
        <path id="Path_30660" data-name="Path 30660" d="M312,223.576s8.855,81.3,13.728,113.433c5.066,33.514,27.237,109.81,27.237,109.81h14.2s-11.91-74.389-14.914-107.258c-3.274-35.847-8.933-116.011-8.933-116.011Z" transform="translate(-235.82 -92.007)" fill="#3454d1"/>
        <path id="Path_30661" data-name="Path 30661" d="M312,223.576s8.855,81.3,13.728,113.433c5.066,33.514,27.237,109.81,27.237,109.81h14.2s-11.91-74.389-14.914-107.258c-3.274-35.847-8.933-116.011-8.933-116.011Z" transform="translate(-235.82 -92.007)" fill="#fff" opacity="0.3"/>
        <path id="Path_30662" data-name="Path 30662" d="M359.995,398.544H343.251l-1.921-5.337,18.665-.657Z" transform="translate(-227.343 -43.165)" fill="#263238"/>
        <path id="Path_30663" data-name="Path 30663" d="M344.609,408.959a4.332,4.332,0,0,1-2.643-.645,1.56,1.56,0,0,1-.606-1.225.67.67,0,0,1,.335-.657c1.2-.709,5.684,1.431,6.187,1.689a.27.27,0,0,1,.168.258.206.206,0,0,1-.168.206A17.094,17.094,0,0,1,344.609,408.959Zm-2.166-2.178a.875.875,0,0,0-.451.09.258.258,0,0,0-.129.271,1.044,1.044,0,0,0,.387.8c.722.58,2.462.67,4.757.284a15.053,15.053,0,0,0-4.563-1.444Z" transform="translate(-227.335 -39.194)" fill="#3454d1"/>
        <path id="Path_30664" data-name="Path 30664" d="M347.316,409.138h-.1c-1.289-.58-4.112-2.849-4.073-4.047,0-.284.168-.632.851-.709a2.011,2.011,0,0,1,1.431.438,8.122,8.122,0,0,1,2.114,4.06.245.245,0,0,1-.077.232.257.257,0,0,1-.142.026Zm-3.068-4.28h-.142c-.451,0-.464.232-.464.284,0,.722,1.895,2.514,3.274,3.287a6.574,6.574,0,0,0-1.766-3.248,1.457,1.457,0,0,0-.9-.322Z" transform="translate(-226.82 -39.747)" fill="#3454d1"/>
        <path id="Path_30665" data-name="Path 30665" d="M318.873,146.985c-.142.838-.709,1.444-1.289,1.289s-.889-.851-.735-1.689.7-1.444,1.289-1.353S319.014,146.147,318.873,146.985Z" transform="translate(-234.43 -114.644)" fill="#263238"/>
        <path id="Path_30666" data-name="Path 30666" d="M311.512,145.724c-.142.838-.709,1.444-1.289,1.289s-.876-.838-.735-1.689.7-1.444,1.289-1.289S311.653,144.886,311.512,145.724Z" transform="translate(-236.556 -114.994)" fill="#263238"/>
        <path id="Path_30667" data-name="Path 30667" d="M311.091,144.308l-1.921-.928S309.943,145.133,311.091,144.308Z" transform="translate(-236.638 -115.177)" fill="#263238"/>
        <path id="Path_30668" data-name="Path 30668" d="M313.987,146.9a22.775,22.775,0,0,1-3.867,4.847,3.712,3.712,0,0,0,2.9,1.07Z" transform="translate(-236.363 -114.159)" fill="#ed893e"/>
        <path id="Path_30669" data-name="Path 30669" d="M315.786,155.169a7.165,7.165,0,0,1-1.289-.116.245.245,0,0,1-.206-.284.258.258,0,0,1,.3-.206,6.742,6.742,0,0,0,5.852-1.676.251.251,0,1,1,.361.348A7.038,7.038,0,0,1,315.786,155.169Z" transform="translate(-235.159 -112.452)" fill="#263238"/>
        <path id="Path_30670" data-name="Path 30670" d="M342.7,138.025a10.673,10.673,0,0,0-4.035-1.727c-1.173-10.054-9.229-16.448-18.214-14.424-10.183,2.294-13.728,14.927-6.883,19.232a30.1,30.1,0,0,0,13.277,4.318c.181,8.34,5.375,15.468,9.023,15.855C346.286,157.128,348.98,142.446,342.7,138.025Z" transform="translate(-236.386 -121.5)" fill="#263238"/>
        <path id="Path_30671" data-name="Path 30671" d="M334.224,155.539a7.734,7.734,0,0,1-4.653,3.545c-2.578.657-3.867-1.676-3.068-4.1.683-2.178,2.874-5.156,5.465-4.756a3.454,3.454,0,0,1,2.256,5.311Z" transform="translate(-231.696 -113.208)" fill="#ffb573"/>
        <path id="Path_30672" data-name="Path 30672" d="M322.6,146.6a.5.5,0,0,1-.477-.348c-.683-2.2-3.506-3.158-3.532-3.158a.5.5,0,0,1-.322-.632.49.49,0,0,1,.632-.322c.129,0,3.351,1.121,4.176,3.867a.5.5,0,0,1-.322.632Z" transform="translate(-234.016 -115.544)" fill="#263238"/>
        <path id="Path_30673" data-name="Path 30673" d="M309.533,141.929a.515.515,0,0,1-.438-.245.5.5,0,0,1,.193-.683,4.975,4.975,0,0,1,4.55-.309.5.5,0,0,1-.451.889h0a4.022,4.022,0,0,0-3.609.284.438.438,0,0,1-.245.064Z" transform="translate(-236.678 -116.072)" fill="#263238"/>
        <path id="Path_30674" data-name="Path 30674" d="M349.015,183.45c1.289,6.071,2.14,12.039,2.862,18.136a170.883,170.883,0,0,1,1.289,18.446c0,.309,0,.954,0,1.521a10.453,10.453,0,0,1-.155,1.508,23.061,23.061,0,0,1-.541,2.578c-.413,1.65-.9,3.184-1.418,4.692-1.031,3-2.256,5.852-3.493,8.662a181.771,181.771,0,0,1-8.391,16.306l-4.847-2.256,2.874-8.482c.967-2.81,1.895-5.646,2.758-8.469s1.7-5.62,2.423-8.379c.348-1.379.645-2.746.851-4.035.1-.644.18-1.289.232-1.8v-.735l-.064-.735c-.232-2.887-.567-5.788-.915-8.7l-1.212-8.765c-.889-5.826-1.882-11.73-2.874-17.492Z" transform="translate(-229.369 -103.596)" fill="#ffb573"/>
        <path id="Path_30675" data-name="Path 30675" d="M344.55,173.973C348.843,175.262,354,190.06,354,190.06l-16.667,11.91s-6.071-12.336-4.267-17.891C334.947,178.3,339.639,172.478,344.55,173.973Z" transform="translate(-229.829 -106.404)" fill="#263238"/>
        <path id="Path_30676" data-name="Path 30676" d="M306.232,408.959a3.932,3.932,0,0,1-2.578-.645,1.367,1.367,0,0,1-.451-1.225.786.786,0,0,1,.412-.657c1.289-.709,5.5,1.431,5.981,1.689a.25.25,0,0,1-.064.464,17.922,17.922,0,0,1-3.3.374Zm-1.882-2.178a.953.953,0,0,0-.464.09.31.31,0,0,0-.168.271.928.928,0,0,0,.284.8c.645.58,2.385.67,4.718.284a13.447,13.447,0,0,0-4.37-1.444Z" transform="translate(-238.366 -39.194)" fill="#3454d1"/>
        <path id="Path_30677" data-name="Path 30677" d="M308.913,409.138H308.8c-1.289-.58-3.751-2.849-3.545-4.047,0-.284.245-.632.928-.709a1.857,1.857,0,0,1,1.392.438c1.289,1.109,1.573,3.944,1.573,4.06a.232.232,0,0,1-.1.232A.258.258,0,0,1,308.913,409.138Zm-2.514-4.28h-.18c-.451,0-.477.232-.49.284-.116.722,1.573,2.514,2.849,3.287a5.762,5.762,0,0,0-1.289-3.248,1.289,1.289,0,0,0-.889-.322Z" transform="translate(-237.773 -39.748)" fill="#3454d1"/>
        <path id="Path_30678" data-name="Path 30678" d="M318.431,145.558l-1.921-.928S317.309,146.4,318.431,145.558Z" transform="translate(-234.516 -114.815)" fill="#263238"/>
        <path id="Path_30679" data-name="Path 30679" d="M346.552,221.689l1.1,3.867c.155.309-.206.606-.7.606H302.828c-.387,0-.7-.193-.722-.425l-.387-3.867c0-.271.309-.49.722-.49h43.465a.786.786,0,0,1,.644.309Z" transform="translate(-238.791 -92.634)" fill="#3454d1"/>
        <path id="Path_30680" data-name="Path 30680" d="M332.226,226.617h1.16c.232,0,.4-.116.387-.258l-.541-4.988c0-.142-.219-.271-.451-.271h-1.16c-.232,0-.413.129-.4.271l.554,4.988C331.762,226.5,331.968,226.617,332.226,226.617Z" transform="translate(-230.265 -92.715)" fill="#3454d1"/>
        <g id="Group_6690" data-name="Group 6690" transform="translate(100.954 128.385)" opacity="0.3">
          <path id="Path_30681" data-name="Path 30681" d="M332.226,226.617h1.16c.232,0,.4-.116.387-.258l-.541-4.988c0-.142-.219-.271-.451-.271h-1.16c-.232,0-.413.129-.4.271l.554,4.988C331.762,226.5,331.968,226.617,332.226,226.617Z" transform="translate(-331.219 -221.1)" fill="#fff"/>
        </g>
        <path id="Path_30682" data-name="Path 30682" d="M305.343,226.617h1.16c.232,0,.412-.116.4-.258l-.554-4.988c0-.142-.219-.271-.451-.271h-1.16c-.232,0-.412.129-.387.271l.541,4.988C304.9,226.5,305.111,226.617,305.343,226.617Z" transform="translate(-238.031 -92.715)" fill="#3454d1"/>
        <path id="Path_30683" data-name="Path 30683" d="M305.343,226.617h1.16c.232,0,.412-.116.4-.258l-.554-4.988c0-.142-.219-.271-.451-.271h-1.16c-.232,0-.412.129-.387.271l.541,4.988C304.9,226.5,305.111,226.617,305.343,226.617Z" transform="translate(-238.031 -92.715)" fill="#fff" opacity="0.3"/>
        <path id="Path_30684" data-name="Path 30684" d="M318.773,226.617h1.16c.232,0,.412-.116.387-.258l-.541-4.988c0-.142-.219-.271-.451-.271h-1.16c-.232,0-.413.129-.387.271l.541,4.988C318.335,226.5,318.541,226.617,318.773,226.617Z" transform="translate(-234.15 -92.715)" fill="#3454d1"/>
        <path id="Path_30685" data-name="Path 30685" d="M318.773,226.617h1.16c.232,0,.412-.116.387-.258l-.541-4.988c0-.142-.219-.271-.451-.271h-1.16c-.232,0-.413.129-.387.271l.541,4.988C318.335,226.5,318.541,226.617,318.773,226.617Z" transform="translate(-234.15 -92.715)" fill="#fff" opacity="0.3"/>
        <path id="Path_30686" data-name="Path 30686" d="M336.305,236.8l-8.185,7.94,10.673,1.07s3.867-5.581,1.843-9.474Z" transform="translate(-231.161 -88.311)" fill="#ffb573"/>
        <path id="Path_30687" data-name="Path 30687" d="M327.18,251.651l9,.412,2.887-8.134-10.673-1.07Z" transform="translate(-231.432 -86.426)" fill="#ffb573"/>
      </g>
      <g id="freepik--character-1--inject-1" transform="translate(-13283.506 -560.557)">
        <path id="Path_30688" data-name="Path 30688" d="M165.976,409.621a4.254,4.254,0,0,0,2.887-.709.876.876,0,0,0,.129-.98.941.941,0,0,0-.632-.528c-1.521-.425-5.156,1.457-5.259,1.547a.245.245,0,0,0-.142.232.194.194,0,0,0,.155.181A16.345,16.345,0,0,0,165.976,409.621Zm1.779-1.83a1.483,1.483,0,0,1,.425,0,.541.541,0,0,1,.387.309.684.684,0,0,1,0,.5c-.528.606-2.926.619-4.653.374a11.525,11.525,0,0,1,3.841-1.186Z" transform="translate(-126.577 -30.111)" fill="#3454d1"/>
        <path id="Path_30689" data-name="Path 30689" d="M163.15,409.868h.1c1.212-.516,3.777-2.578,3.764-3.635,0-.258-.142-.567-.748-.632a1.907,1.907,0,0,0-1.289.387,7.579,7.579,0,0,0-2,3.648.168.168,0,0,0,.168.232ZM166.024,406h.142c.387,0,.4.193.4.245,0,.645-1.766,2.256-3.042,2.952a6.329,6.329,0,0,1,1.676-2.913,1.405,1.405,0,0,1,.825-.258Z" transform="translate(-126.573 -30.615)" fill="#3454d1"/>
        <path id="Path_30690" data-name="Path 30690" d="M155.06,413.659h9.474L168.7,391.72h-9.474Z" transform="translate(-128.86 -34.626)" fill="#b55b52"/>
        <path id="Path_30691" data-name="Path 30691" d="M165.716,407.89H155.4a1.006,1.006,0,0,0-.9.645l-3.107,8.417a1.173,1.173,0,0,0,1.109,1.676c3.751,0,9.165-.271,13.857-.271,5.478,0,4.976.3,11.408.3,3.867,0,5.543-3.931,3.97-4.292-7.167-1.611-8-1.792-13.818-5.736a3.867,3.867,0,0,0-2.2-.735Z" transform="translate(-129.952 -29.953)" fill="#263238"/>
        <path id="Path_30692" data-name="Path 30692" d="M168.247,391.73l-2.153,11.3H156.62l2.153-11.3Z" transform="translate(-128.409 -34.623)" opacity="0.2"/>
        <path id="Path_30693" data-name="Path 30693" d="M167.468,225.45l6.2,6.51-10,3.493s-3.635-5.311-.838-8.946Z" transform="translate(-126.921 -82.679)" fill="#b55b52"/>
        <path id="Path_30694" data-name="Path 30694" d="M175.1,239.6l-9.9,1.444-1.959-7.051,10-3.493Z" transform="translate(-126.496 -81.22)" fill="#b55b52"/>
        <path id="Path_30695" data-name="Path 30695" d="M138.119,275.8l48.312,2.114a4.924,4.924,0,0,0,4.885-3.867l5.775-29.518A3.429,3.429,0,0,0,193.8,240.3l-48.312-2.127a4.924,4.924,0,0,0-4.872,3.867l-5.788,29.518a3.429,3.429,0,0,0,3.287,4.241Z" transform="translate(-134.734 -79.003)" fill="#263238"/>
        <path id="Path_30696" data-name="Path 30696" d="M140.967,284.868l59.681,2.578a5.285,5.285,0,0,0,5.465-4.808L209.271,246a4.782,4.782,0,0,0-4.6-5.246L145,238.181a5.324,5.324,0,0,0-5.478,4.808l-3.158,36.634a4.8,4.8,0,0,0,4.6,5.246Z" transform="translate(-134.269 -79.001)" fill="#3454d1"/>
        <path id="Path_30697" data-name="Path 30697" d="M140.967,284.868l59.681,2.578a5.285,5.285,0,0,0,5.465-4.808L209.271,246a4.782,4.782,0,0,0-4.6-5.246L145,238.181a5.324,5.324,0,0,0-5.478,4.808l-3.158,36.634a4.8,4.8,0,0,0,4.6,5.246Z" transform="translate(-134.269 -79.001)" opacity="0.2"/>
        <path id="Path_30698" data-name="Path 30698" d="M178.536,251.76h-.155L161.057,251h0a3.313,3.313,0,0,1-3.184-3.622l.683-7.9a6.445,6.445,0,0,1,6.587-5.775l11.6.5a6.187,6.187,0,0,1,5.917,6.741L182,248.6A3.506,3.506,0,0,1,178.536,251.76Zm-16.757-4.615,16.383.722.632-7.27a2.32,2.32,0,0,0-2.23-2.578l-11.6-.516a2.578,2.578,0,0,0-2.578,2.256Z" transform="translate(-128.051 -80.295)" fill="#3454d1"/>
        <path id="Path_30699" data-name="Path 30699" d="M205.894,287.75l-59.668-2.578a5.478,5.478,0,0,1-5.156-5.285l-.8-36.8a4.653,4.653,0,0,1,4.924-4.834l59.681,2.578a5.465,5.465,0,0,1,5.156,5.285l.786,36.8a4.666,4.666,0,0,1-4.924,4.834Z" transform="translate(-133.135 -78.982)" fill="#3454d1"/>
        <path id="Path_30700" data-name="Path 30700" d="M183.968,171.37c-.632,1.289-1.379,2.758-2.05,4.163s-1.289,2.9-2,4.357c-1.289,2.926-2.578,5.865-3.687,8.817s-2.14,5.929-3.055,8.881c-.425,1.482-.864,2.952-1.186,4.408-.193.735-.361,1.469-.49,2.178l-.206,1.083c-.077.374-.155.748-.18,1.005,0,.567-.155,1.083-.18,1.843s-.09,1.379-.09,2.166v4.679c.064,3.21.258,6.445.451,9.771.374,6.587.928,13.277,1.444,19.876l-11.807,1.908c-1.6-6.716-2.862-13.367-4-20.186-.541-3.4-1.005-6.832-1.392-10.312-.18-1.779-.361-3.545-.451-5.414-.077-.889-.09-1.895-.1-2.874a27.471,27.471,0,0,1,.116-3.2,14.781,14.781,0,0,1,.155-1.508l.18-1.418c.1-.954.245-1.882.412-2.784.309-1.856.7-3.648,1.083-5.44.838-3.545,1.792-7.038,2.926-10.415s2.333-6.729,3.674-10c.67-1.637,1.289-3.261,2.088-4.885s1.431-3.171,2.32-4.95Z" transform="translate(-128.881 -100.693)" fill="#3454d1"/>
        <path id="Path_30701" data-name="Path 30701" d="M209.937,221.87s-9.113,70.805-14.385,99.679c-5.491,30.034-24.942,128.385-24.942,128.385h-16.1s8.172-96.6,11.794-126.091c3.957-32.225,10.312-101.973,10.312-101.973Z" transform="translate(-129.019 -83.714)" fill="#263238"/>
        <path id="Path_30702" data-name="Path 30702" d="M174.878,393.84c.077,0-1.882,6.664-1.882,6.664H153.48l.348-5.942Z" transform="translate(-129.317 -34.013)" fill="#3454d1"/>
        <path id="Path_30703" data-name="Path 30703" d="M203.53,130.974c0,.8.425,1.457.954,1.457s.941-.657.941-1.457-.425-1.444-.941-1.444S203.53,130.136,203.53,130.974Z" transform="translate(-114.852 -110.401)" fill="#263238"/>
        <path id="Path_30704" data-name="Path 30704" d="M203.8,131.78a28.72,28.72,0,0,0,3.867,6.857,4.64,4.64,0,0,1-3.867.722Z" transform="translate(-114.774 -109.75)" fill="#a02724"/>
        <path id="Path_30705" data-name="Path 30705" d="M201.436,127.6a.5.5,0,0,0,.271-.077,3.712,3.712,0,0,1,3.351-.619.477.477,0,0,0,.606-.271.464.464,0,0,0-.271-.606,4.653,4.653,0,0,0-4.241.722.477.477,0,0,0-.1.657A.464.464,0,0,0,201.436,127.6Z" transform="translate(-115.594 -111.477)" fill="#263238"/>
        <path id="Path_30706" data-name="Path 30706" d="M184.32,137.52c1.289,6.935,2.707,19.632-2.14,24.246,0,0,1.895,7.025,14.772,7.025,14.179,0,6.754-7.025,6.754-7.025-7.734-1.843-7.515-7.566-6.174-12.954Z" transform="translate(-121.022 -108.091)" fill="#b55b52"/>
        <path id="Path_30707" data-name="Path 30707" d="M181,159.682c-1.005-2.217-2.127-4.769.18-5.569,2.578-.877,16.461-1.766,21.256-.116a4.963,4.963,0,0,1,3.442,6.161Z" transform="translate(-121.702 -103.597)" fill="#263238"/>
        <path id="Path_30708" data-name="Path 30708" d="M170.724,158.695c-8.288,3.764-13.444,32.3-13.444,32.3l16.254,5.156a172.637,172.637,0,0,0,7.94-23.2C184.426,161.041,179.206,154.853,170.724,158.695Z" transform="translate(-128.218 -102.3)" fill="#3454d1"/>
        <path id="Path_30709" data-name="Path 30709" d="M246.705,213.26h10l-1.753,11.962s-7.837-.284-11.395-6.187Z" transform="translate(-103.283 -86.202)" fill="#b55b52"/>
        <path id="Path_30710" data-name="Path 30710" d="M263.574,217.418l-5.027,9.242-6.187-1.418,1.753-11.962Z" transform="translate(-100.74 -86.196)" fill="#b55b52"/>
        <path id="Path_30711" data-name="Path 30711" d="M182.788,132.566c.606,9.848.464,15.649,5.44,20.7,7.476,7.605,19.632,3.094,21.978-6.742,2.127-8.843.773-23.46-8.868-27.379a13.457,13.457,0,0,0-18.549,13.419Z" transform="translate(-120.857 -113.695)" fill="#b55b52"/>
        <path id="Path_30712" data-name="Path 30712" d="M183.528,146.954s-8.92-13.38-6.986-22.106c1.766-7.979,19.773-10.828,27.25-10.028,7.94.864,11.034,4.279,6.677,11.163a36.894,36.894,0,0,1-8.056,2.733s4.421,5.427,4.46,9.023c-1.289.67-5.272,2.269-5.272,2.269s-5.646,13.934-5.813,13.908c-2.178-.258-7.218-.335-9.023.348a48.287,48.287,0,0,1-3.235-7.309Z" transform="translate(-122.731 -114.69)" fill="#263238"/>
        <path id="Path_30713" data-name="Path 30713" d="M192.93,134.24a11.189,11.189,0,0,0,4,5.917c2.578,1.933,4.5.1,4.305-2.8-.168-2.578-1.714-6.742-4.55-7.554S192.182,131.391,192.93,134.24Z" transform="translate(-117.967 -110.367)" fill="#b55b52"/>
        <path id="Path_30714" data-name="Path 30714" d="M194.408,242.4c-12.671,2.939-10.312,48.776-7.876,74.9.116-.593.206-1.147.309-1.689,3.145-17.2,7.644-49.24,10.776-72.365a6.342,6.342,0,0,0-3.21-.851Z" transform="translate(-120.322 -77.78)" opacity="0.3"/>
        <path id="Path_30715" data-name="Path 30715" d="M202.406,409.621c1.212,0,2.385-.168,2.784-.709a.838.838,0,0,0,0-.98,1.121,1.121,0,0,0-.709-.529c-1.573-.425-4.885,1.457-5.027,1.547a.219.219,0,0,0-.1.232.232.232,0,0,0,.18.181,17.134,17.134,0,0,0,2.874.258Zm1.508-1.83a1.481,1.481,0,0,1,.425,0,.657.657,0,0,1,.438.309c.168.284.1.425,0,.5-.438.606-2.836.619-4.6.374a10.144,10.144,0,0,1,3.738-1.186Z" transform="translate(-116.061 -30.111)" fill="#3454d1"/>
        <path id="Path_30716" data-name="Path 30716" d="M199.561,409.869h.09c1.147-.516,3.416-2.578,3.235-3.635,0-.258-.219-.567-.838-.632a1.675,1.675,0,0,0-1.289.387c-1.212.992-1.457,3.545-1.469,3.648a.219.219,0,0,0,.09.206.245.245,0,0,0,.18.026ZM201.868,406h.142c.4,0,.425.193.438.245.1.645-1.444,2.256-2.578,2.952a5.259,5.259,0,0,1,1.289-2.913,1.186,1.186,0,0,1,.709-.258Z" transform="translate(-116.078 -30.617)" fill="#3454d1"/>
        <path id="Path_30717" data-name="Path 30717" d="M191.42,413.659h9.474l.941-21.939h-9.461Z" transform="translate(-118.352 -34.626)" fill="#b55b52"/>
        <path id="Path_30718" data-name="Path 30718" d="M201.64,407.89H191.328a.838.838,0,0,0-.812.645l-1.869,8.417a1.379,1.379,0,0,0,1.366,1.676c3.725,0,9.113-.271,13.805-.271,5.491,0,10.222.3,16.654.3,3.867,0,4.963-3.931,3.339-4.292-7.412-1.611-13.457-1.792-19.864-5.736a4.4,4.4,0,0,0-2.307-.735Z" transform="translate(-119.162 -29.953)" fill="#263238"/>
        <path id="Path_30719" data-name="Path 30719" d="M201.734,391.73l-.49,11.3H191.77l.49-11.3Z" transform="translate(-118.25 -34.623)" opacity="0.2"/>
        <path id="Path_30720" data-name="Path 30720" d="M218.082,221.87s1.289,70.805.271,99.679c-1.07,30.034-11.6,128.385-11.6,128.385h-16s-.593-96.6-1.289-126.091C188.68,291.618,184.8,221.87,184.8,221.87Z" transform="translate(-120.265 -83.714)" fill="#263238"/>
        <path id="Path_30721" data-name="Path 30721" d="M208.959,393.84c.064,0-.915,6.664-.915,6.664h-19.5L188,394.562Z" transform="translate(-119.34 -34.013)" fill="#3454d1"/>
        <path id="Path_30722" data-name="Path 30722" d="M222.073,159.029s11.369,17.324,1.843,87.794H170.422c-.348-7.734,6.11-51.65-1.392-88.284a132.2,132.2,0,0,1,16.95-2.14,187.247,187.247,0,0,1,21.526,0A94.74,94.74,0,0,1,222.073,159.029Z" transform="translate(-124.823 -102.725)" fill="#3454d1"/>
        <path id="Path_30723" data-name="Path 30723" d="M217.074,190.507,205.86,171.92s4.215,26.347,10.673,38.232C216.971,202.714,217.126,196.192,217.074,190.507Z" transform="translate(-114.178 -98.15)" opacity="0.2"/>
        <path id="Path_30724" data-name="Path 30724" d="M222.114,168.89c1.843,5.891,3.867,11.923,5.942,17.827s4.241,11.769,6.613,17.4l.9,2.088a4.594,4.594,0,0,1,.206.477,3.068,3.068,0,0,0,.18.348,13.779,13.779,0,0,0,1.985,2.346,50.959,50.959,0,0,0,6.535,5.156c2.423,1.676,4.988,3.3,7.631,4.834s5.375,3.107,7.979,4.46l-5.014,11.7a132.763,132.763,0,0,1-18.42-8.4,66.925,66.925,0,0,1-9.023-6.045,29.259,29.259,0,0,1-4.576-4.615c-.387-.554-.761-1.044-1.134-1.663s-.786-1.392-.9-1.65l-1.134-2.256c-2.952-6.007-5.594-12.014-8.031-18.046s-4.7-12.1-6.883-18.381Z" transform="translate(-114.436 -99.025)" fill="#3454d1"/>
        <path id="Path_30725" data-name="Path 30725" d="M200.462,162.786c-3.313,8.43,16.834,42.37,16.834,42.37l13.109-12.542s-2.862-10.66-6.677-23.5C219.965,156.5,203.621,154.729,200.462,162.786Z" transform="translate(-115.845 -102.202)" fill="#3454d1"/>
      </g>
    </g>
  </g>
</svg>
