<svg xmlns="http://www.w3.org/2000/svg" width="141.113" height="34.704" viewBox="0 0 141.113 34.704">
  <g id="Group_6709" data-name="Group 6709" transform="translate(-1289.428 -2970.5)">
    <path id="Path_30333" data-name="Path 30333" d="M365.082,2882.678h8.574v21.375s-.079,6.177,5.9,5.735,5.735-5.735,5.735-5.735v-21.375H393.8v21.811s.394,12.942-14.246,12.893-14.47-12.893-14.47-12.893Z" transform="translate(924.345 87.822)" fill="#fff"/>
    <path id="Subtraction_1" data-name="Subtraction 1" d="M27.805,34.581H17.352L9.651,22H8.76V34.58H0V0H14.617a10.978,10.978,0,0,1,1.571.228,13.077,13.077,0,0,1,3.457,1.247A9.382,9.382,0,0,1,23.1,4.586a10.456,10.456,0,0,1,1.571,5.823,15.607,15.607,0,0,1-1.024,5.915A9.178,9.178,0,0,1,21.4,19.64a7.734,7.734,0,0,1-2.253,1.45,5.152,5.152,0,0,1-1.024.32L27.8,34.58ZM8.639,6.992v8.229H12.9a3.868,3.868,0,0,0,1.591-.667,3.955,3.955,0,0,0,1.556-3.486A4,4,0,0,0,14.451,7.62,3.67,3.67,0,0,0,12.9,6.992Z" transform="translate(1328.023 2970.5)" fill="#fff"/>
    <path id="Path_30336" data-name="Path 30336" d="M649.361,2882.678l14.062,34.58h7.234l14.176-34.58h-9.766l-8,21.109-8.054-21.109Z" transform="translate(709.741 87.822)" fill="#fff"/>
    <g id="Group_2844" data-name="Group 2844" transform="translate(1395.317 2970.624)">
      <path id="Path_30337" data-name="Path 30337" d="M0,0,12.574,34.58h10.21L35.224,0H25.458L17.7,24.086,9.651,0Z" transform="translate(35.224 34.58) rotate(180)" fill="#fff"/>
      <circle id="Ellipse_305" data-name="Ellipse 305" cx="4.836" cy="4.836" r="4.836" transform="translate(12.801 23.889)" fill="#ffa21d"/>
    </g>
  </g>
</svg>
